# Blender 3.1.0
# www.blender.org
o grass2
v -0.250000 0.000000 0.010000
v 0.250000 0.000000 0.010000
v -0.250000 0.250000 0.000000
v 0.250000 0.250000 0.000000
v -0.250000 0.000000 -0.010000
v 0.250000 0.000000 -0.010000
v -0.010000 0.000000 -0.250000
v -0.010000 0.000000 0.250000
v 0.000000 0.250000 -0.250000
v -0.000000 0.250000 0.250000
v 0.010000 0.000000 -0.250000
v 0.010000 0.000000 0.250000
vn -0.0000 0.0400 0.9992
vn -0.0000 0.0400 -0.9992
vn -0.9992 0.0400 -0.0000
vn 0.9992 0.0400 -0.0000
vt 0.281250 0.750000
vt 0.531250 0.750000
vt 0.281250 0.875000
vt 0.531250 0.875000
vt 0.281250 0.750000
vt 0.531250 0.750000
vt 0.281250 0.750000
vt 0.531250 0.750000
vt 0.281250 0.875000
vt 0.531250 0.875000
vt 0.281250 0.750000
vt 0.531250 0.750000
s 0
f 2/2/1 3/3/1 1/1/1
f 3/3/2 6/6/2 5/5/2
f 8/8/3 9/9/3 7/7/3
f 9/9/4 12/12/4 11/11/4
f 2/2/1 4/4/1 3/3/1
f 3/3/2 4/4/2 6/6/2
f 8/8/3 10/10/3 9/9/3
f 9/9/4 10/10/4 12/12/4
