# Blender 3.1.0
# www.blender.org
o grass1
v -0.205000 0.000000 0.010000
v -0.205000 0.500000 0.000000
v 0.200000 0.500000 0.000000
v 0.200000 0.000000 0.010000
v -0.205000 0.000000 -0.010000
v 0.200000 0.000000 -0.010000
v -0.010000 0.000000 -0.202000
v 0.000000 0.500000 -0.202000
v 0.000000 0.500000 0.202000
v -0.010000 0.000000 0.202000
v 0.010000 0.000000 -0.202000
v 0.010000 0.000000 0.202000
vn -0.0000 0.0200 0.9998
vn -0.0000 0.0200 -0.9998
vn -0.9998 0.0200 -0.0000
vn 0.9998 0.0200 -0.0000
vt 0.022500 0.750000
vt 0.022500 1.000000
vt 0.225000 1.000000
vt 0.225000 0.750000
vt 0.022500 0.750000
vt 0.225000 0.750000
vt 0.022500 0.750000
vt 0.022500 1.000000
vt 0.225000 1.000000
vt 0.225000 0.750000
vt 0.022500 0.750000
vt 0.225000 0.750000
s 0
f 4/4/1 2/2/1 1/1/1
f 2/2/2 6/6/2 5/5/2
f 10/10/3 8/8/3 7/7/3
f 8/8/4 12/12/4 11/11/4
f 4/4/1 3/3/1 2/2/1
f 2/2/2 3/3/2 6/6/2
f 10/10/3 9/9/3 8/8/3
f 8/8/4 9/9/4 12/12/4
