# Blender 3.1.0
# www.blender.org
o grass_patch_corner
v 1.000000 0.000000 -1.030000
v 1.000000 0.500000 -1.040000
v 0.500000 0.000000 -0.700000
v 0.000000 0.000000 -1.030000
v -0.500000 0.000000 -0.700000
v -0.500000 0.000000 -0.720000
v 0.000000 0.000000 -1.050000
v 0.500000 0.000000 -0.720000
v 0.500000 0.500000 -0.710000
v 0.000000 0.500000 -1.040000
v -0.500000 0.500000 -0.710000
v 1.000000 0.000000 -1.050000
v -0.460000 0.500000 0.000000
v -0.790000 0.500000 -0.500000
v -0.800000 0.000000 -0.500000
v -0.470000 0.000000 0.000000
v -0.450000 0.000000 0.000000
v -0.780000 0.000000 -0.500000
v -0.460000 0.500000 -1.000000
v -0.450000 0.000000 -1.000000
v -0.470000 0.000000 -1.000000
v 1.000000 0.000000 -0.450000
v 1.000000 0.500000 -0.460000
v 1.000000 -0.000000 -0.470000
v -0.500000 0.500000 -0.790000
v 0.000000 0.500000 -0.460000
v 0.500000 0.500000 -0.790000
v 0.500000 -0.000000 -0.800000
v 0.000000 -0.000000 -0.470000
v -0.500000 -0.000000 -0.800000
v -0.500000 0.000000 -0.780000
v 0.000000 0.000000 -0.450000
v 0.500000 0.000000 -0.780000
v -0.700000 0.000000 -0.500000
v -0.720000 0.000000 -0.500000
v -0.710000 0.500000 -0.500000
v 1.000000 0.000000 -0.490000
v 1.000000 0.500000 -0.500000
v 1.000000 -0.000000 -0.510000
v -0.490000 0.000000 -1.000000
v -0.500000 0.500000 -1.000000
v -0.510000 0.000000 -1.000000
v -0.290000 0.500000 0.500000
v 0.040000 0.500000 0.000000
v -0.290000 0.500000 -0.500000
v -0.300000 0.000000 -0.500000
v 0.030000 0.000000 0.000000
v -0.300000 0.000000 0.500000
v -0.280000 0.000000 0.500000
v 0.050000 0.000000 0.000000
v -0.280000 0.000000 -0.500000
v 0.040000 0.500000 -1.000000
v 0.050000 0.000000 -1.000000
v 0.030000 0.000000 -1.000000
v -0.550000 0.000000 -1.000000
v -0.530000 0.000000 -1.000000
v -0.540000 0.500000 -1.000000
v -0.200000 0.000000 -0.500000
v -0.530000 0.000000 0.000000
v -0.200000 0.000000 0.500000
v -0.220000 0.000000 0.500000
v -0.550000 0.000000 0.000000
v -0.220000 0.000000 -0.500000
v -0.210000 0.500000 -0.500000
v -0.540000 0.500000 0.000000
v -0.210000 0.500000 0.500000
v 0.210000 0.500000 0.500000
v 0.540000 0.500000 0.000000
v 0.210000 0.500000 -0.500000
v 0.200000 0.000000 -0.500000
v 0.530000 0.000000 0.000000
v 0.200000 0.000000 0.500000
v 0.220000 0.000000 0.500000
v 0.550000 0.000000 0.000000
v 0.220000 0.000000 -0.500000
v 0.540000 0.500000 -1.000000
v 0.550000 0.000000 -1.000000
v 0.530000 0.000000 -1.000000
v -0.050000 0.000000 -1.000000
v -0.030000 0.000000 -1.000000
v -0.040000 0.500000 -1.000000
v 0.300000 0.000000 -0.500000
v -0.030000 0.000000 0.000000
v 0.300000 0.000000 0.500000
v 0.280000 0.000000 0.500000
v -0.050000 0.000000 0.000000
v 0.280000 0.000000 -0.500000
v 0.290000 0.500000 -0.500000
v -0.040000 0.500000 0.000000
v 0.290000 0.500000 0.500000
v 0.710000 0.500000 0.500000
v 1.040000 0.500000 0.000000
v 0.710000 0.500000 -0.500000
v 0.700000 0.000000 -0.500000
v 1.030000 0.000000 0.000000
v 0.700000 0.000000 0.500000
v 0.720000 0.000000 0.500000
v 1.050000 0.000000 0.000000
v 0.720000 0.000000 -0.500000
v 1.040000 0.500000 -1.000000
v 1.050000 0.000000 -1.000000
v 1.030000 0.000000 -1.000000
v 0.450000 0.000000 -1.000000
v 0.470000 0.000000 -1.000000
v 0.460000 0.500000 -1.000000
v 0.800000 0.000000 -0.500000
v 0.470000 0.000000 0.000000
v 0.800000 0.000000 0.500000
v 0.780000 0.000000 0.500000
v 0.450000 0.000000 0.000000
v 0.780000 0.000000 -0.500000
v 0.790000 0.500000 -0.500000
v 0.460000 0.500000 0.000000
v 0.790000 0.500000 0.500000
v 1.000000 0.000000 -0.530000
v 1.000000 0.500000 -0.540000
v 0.500000 0.000000 -0.200000
v 0.000000 0.000000 -0.530000
v -0.500000 0.000000 -0.200000
v -0.500000 0.000000 -0.220000
v 0.000000 -0.000000 -0.550000
v 0.500000 0.000000 -0.220000
v 0.500000 0.500000 -0.210000
v 0.000000 0.500000 -0.540000
v -0.500000 0.500000 -0.210000
v 1.000000 -0.000000 -0.550000
v 1.000000 0.000000 0.050000
v 1.000000 0.500000 0.040000
v 1.000000 -0.000000 0.030000
v -0.500000 0.500000 -0.290000
v 0.000000 0.500000 0.040000
v 0.500000 0.500000 -0.290000
v 0.500000 -0.000000 -0.300000
v 0.000000 -0.000000 0.030000
v -0.500000 -0.000000 -0.300000
v -0.500000 0.000000 -0.280000
v 0.000000 0.000000 0.050000
v 0.500000 0.000000 -0.280000
v 1.000000 0.000000 -0.030000
v 1.000000 0.500000 -0.040000
v 0.500000 0.000000 0.300000
v 0.000000 0.000000 -0.030000
v -0.500000 0.000000 0.300000
v -0.500000 0.000000 0.280000
v 0.000000 -0.000000 -0.050000
v 0.500000 0.000000 0.280000
v 0.500000 0.500000 0.290000
v 0.000000 0.500000 -0.040000
v -0.500000 0.500000 0.290000
v 1.000000 -0.000000 -0.050000
v 1.000000 0.000000 0.550000
v 1.000000 0.500000 0.540000
v 1.000000 -0.000000 0.530000
v -0.500000 0.500000 0.210000
v 0.000000 0.500000 0.540000
v 0.500000 0.500000 0.210000
v 0.500000 -0.000000 0.200000
v 0.000000 -0.000000 0.530000
v -0.500000 -0.000000 0.200000
v -0.500000 0.000000 0.220000
v 0.000000 0.000000 0.550000
v 0.500000 0.000000 0.220000
v 1.000000 0.000000 0.470000
v 1.000000 0.500000 0.460000
v 0.500000 0.000000 0.800000
v 0.000000 0.000000 0.470000
v 0.000000 -0.000000 0.450000
v 0.500000 0.000000 0.780000
v 0.500000 0.500000 0.790000
v 0.000000 0.500000 0.460000
v 1.000000 -0.000000 0.450000
v 0.500000 0.500000 0.710000
v 0.500000 -0.000000 0.700000
v 0.500000 0.000000 0.720000
v 0.010000 0.000000 -1.000000
v -0.000000 0.500000 -1.000000
v -0.010000 0.000000 -1.000000
v 0.510000 0.000000 -1.000000
v 0.500000 0.500000 -1.000000
v 0.490000 0.000000 -1.000000
v 1.000000 0.000000 0.010000
v 1.000000 0.500000 0.000000
v 1.000000 -0.000000 -0.010000
v 1.000000 0.000000 0.510000
v 1.000000 0.500000 0.500000
v 1.000000 -0.000000 0.490000
v 1.037559 0.500000 0.996301
v 1.046948 0.000000 0.995376
v 1.028169 0.000000 0.997226
v 0.928763 0.500000 0.992984
v 0.910954 0.000000 0.991230
v 0.946572 0.000000 0.994738
v 0.283819 0.000000 0.862679
v 0.263058 0.000000 0.856382
v 0.497792 0.000000 0.927588
v 0.514456 0.000000 0.932642
v 0.478307 0.000000 0.921677
v 0.503313 0.000000 0.929262
v 0.490000 0.000000 0.925224
v 0.510000 0.000000 0.931291
v 0.273438 0.500000 0.859531
v 0.506124 0.500000 0.930115
v 0.490810 0.500000 0.925469
v 0.500000 0.500000 0.928257
v 0.105895 0.500000 0.778947
v 0.000000 0.500000 0.722345
v 0.010000 0.000000 0.727690
v 0.098503 0.000000 0.774996
v 0.113287 0.000000 0.782898
v -0.010000 0.000000 0.717000
v -0.288558 0.000000 0.517336
v -0.244923 0.000000 0.553146
v -0.191905 0.000000 0.596657
v -0.205412 0.000000 0.585572
v -0.238536 0.000000 0.558388
v -0.251509 0.000000 0.547741
v -0.297497 0.000000 0.510000
v -0.321867 0.000000 0.490000
v -0.266740 0.500000 0.535242
v -0.245023 0.500000 0.553065
v -0.198659 0.500000 0.591115
v -0.309682 0.500000 0.500000
v -0.500000 0.500000 0.309683
v -0.553065 0.500000 0.245023
v -0.591115 0.500000 0.198659
v -0.535242 0.500000 0.266740
v -0.510000 0.000000 0.297497
v -0.490000 0.000000 0.321868
v -0.547741 0.000000 0.251509
v -0.558388 0.000000 0.238536
v -0.585572 0.000000 0.205412
v -0.596657 0.000000 0.191905
v -0.517337 0.000000 0.288558
v -0.553147 0.000000 0.244923
v -0.778947 0.500000 -0.105895
v -0.722345 0.500000 0.000000
v -0.774996 0.000000 -0.098503
v -0.727690 0.000000 -0.010000
v -0.717000 0.000000 0.010000
v -0.782898 -0.000000 -0.113287
v -0.929262 0.000000 -0.503313
v -0.927588 0.000000 -0.497792
v -0.856382 -0.000000 -0.263058
v -0.862679 -0.000000 -0.283819
v -0.921677 0.000000 -0.478307
v -0.925224 0.000000 -0.490000
v -0.931291 0.000000 -0.510000
v -0.932642 0.000000 -0.514456
v -0.859531 0.500000 -0.273438
v -0.925469 0.500000 -0.490810
v -0.928257 0.500000 -0.500000
v -0.930115 0.500000 -0.506124
v -0.992984 0.500000 -0.928764
v -0.991230 0.000000 -0.910954
v -0.994738 0.000000 -0.946573
v -0.997226 -0.000000 -1.028169
v -0.995376 0.000000 -1.046948
v -0.996301 0.500000 -1.037559
vn 0.5508 0.0167 0.8345
vn -0.5508 0.0167 -0.8345
vn -0.5508 0.0167 0.8345
vn 0.5508 0.0167 -0.8345
vn -0.8345 0.0167 -0.5508
vn -0.8345 0.0167 0.5508
vn 0.8345 0.0167 0.5508
vn 0.8345 0.0167 -0.5508
vn 0.9952 -0.0000 -0.0980
vn 0.2903 -0.0000 -0.9569
vn 0.6344 -0.0000 -0.7730
vn 0.9569 -0.0000 -0.2903
vn -0.9569 -0.0000 0.2903
vn -0.0000 0.0200 0.9998
vn 0.7730 -0.0000 -0.6344
vn -0.9998 0.0200 -0.0000
vn -0.0000 0.0200 -0.9998
vn -0.0980 -0.0000 -0.9952
vn 0.4714 -0.0000 -0.8819
vn 0.9998 0.0200 -0.0000
vn 0.8819 -0.0000 -0.4714
vn 0.0980 -0.0000 -0.9952
vt 1.000000 0.750000
vt 1.000000 1.000000
vt 0.750000 0.750000
vt 0.500000 0.750000
vt 0.250000 0.750000
vt 0.250000 0.750000
vt 0.500000 0.750000
vt 0.750000 0.750000
vt 0.750000 1.000000
vt 0.500000 1.000000
vt 0.250000 1.000000
vt 1.000000 0.750000
vt 0.500000 1.000000
vt 0.250000 1.000000
vt 0.250000 0.750000
vt 0.500000 0.750000
vt 0.500000 0.750000
vt 0.250000 0.750000
vt 0.000000 1.000000
vt 0.000000 0.750000
vt 0.000000 0.750000
vt 1.000000 0.750000
vt 1.000000 1.000000
vt 1.000000 0.750000
vt 0.250000 1.000000
vt 0.500000 1.000000
vt 0.750000 1.000000
vt 0.750000 0.750000
vt 0.500000 0.750000
vt 0.250000 0.750000
vt 0.250000 0.750000
vt 0.500000 0.750000
vt 0.750000 0.750000
vt 0.250000 0.750000
vt 0.250000 0.750000
vt 0.250000 1.000000
vt 1.000000 0.750000
vt 1.000000 1.000000
vt 1.000000 0.750000
vt 1.000000 0.750000
vt 1.000000 1.000000
vt 1.000000 0.750000
vt 0.750000 1.000000
vt 0.500000 1.000000
vt 0.250000 1.000000
vt 0.250000 0.750000
vt 0.500000 0.750000
vt 0.750000 0.750000
vt 0.750000 0.750000
vt 0.500000 0.750000
vt 0.250000 0.750000
vt 0.000000 1.000000
vt 0.000000 0.750000
vt 0.000000 0.750000
vt 0.000000 0.750000
vt 0.000000 0.750000
vt 0.000000 1.000000
vt 0.250000 0.750000
vt 0.500000 0.750000
vt 0.750000 0.750000
vt 0.750000 0.750000
vt 0.500000 0.750000
vt 0.250000 0.750000
vt 0.250000 1.000000
vt 0.500000 1.000000
vt 0.750000 1.000000
vt 0.750000 1.000000
vt 0.500000 1.000000
vt 0.250000 1.000000
vt 0.250000 0.750000
vt 0.500000 0.750000
vt 0.750000 0.750000
vt 0.750000 0.750000
vt 0.500000 0.750000
vt 0.250000 0.750000
vt 0.000000 1.000000
vt 0.000000 0.750000
vt 0.000000 0.750000
vt 0.000000 0.750000
vt 0.000000 0.750000
vt 0.000000 1.000000
vt 0.250000 0.750000
vt 0.500000 0.750000
vt 0.750000 0.750000
vt 0.750000 0.750000
vt 0.500000 0.750000
vt 0.250000 0.750000
vt 0.250000 1.000000
vt 0.500000 1.000000
vt 0.750000 1.000000
vt 0.750000 1.000000
vt 0.500000 1.000000
vt 0.250000 1.000000
vt 0.250000 0.750000
vt 0.500000 0.750000
vt 0.750000 0.750000
vt 0.750000 0.750000
vt 0.500000 0.750000
vt 0.250000 0.750000
vt 0.000000 1.000000
vt 0.000000 0.750000
vt 0.000000 0.750000
vt 0.000000 0.750000
vt 0.000000 0.750000
vt 0.000000 1.000000
vt 0.250000 0.750000
vt 0.500000 0.750000
vt 0.750000 0.750000
vt 0.750000 0.750000
vt 0.500000 0.750000
vt 0.250000 0.750000
vt 0.250000 1.000000
vt 0.500000 1.000000
vt 0.750000 1.000000
vt 1.000000 0.750000
vt 1.000000 1.000000
vt 0.750000 0.750000
vt 0.500000 0.750000
vt 0.250000 0.750000
vt 0.250000 0.750000
vt 0.500000 0.750000
vt 0.750000 0.750000
vt 0.750000 1.000000
vt 0.500000 1.000000
vt 0.250000 1.000000
vt 1.000000 0.750000
vt 1.000000 0.750000
vt 1.000000 1.000000
vt 1.000000 0.750000
vt 0.250000 1.000000
vt 0.500000 1.000000
vt 0.750000 1.000000
vt 0.750000 0.750000
vt 0.500000 0.750000
vt 0.250000 0.750000
vt 0.250000 0.750000
vt 0.500000 0.750000
vt 0.750000 0.750000
vt 1.000000 0.750000
vt 1.000000 1.000000
vt 0.750000 0.750000
vt 0.500000 0.750000
vt 0.250000 0.750000
vt 0.250000 0.750000
vt 0.500000 0.750000
vt 0.750000 0.750000
vt 0.750000 1.000000
vt 0.500000 1.000000
vt 0.250000 1.000000
vt 1.000000 0.750000
vt 1.000000 0.750000
vt 1.000000 1.000000
vt 1.000000 0.750000
vt 0.250000 1.000000
vt 0.500000 1.000000
vt 0.750000 1.000000
vt 0.750000 0.750000
vt 0.500000 0.750000
vt 0.250000 0.750000
vt 0.250000 0.750000
vt 0.500000 0.750000
vt 0.750000 0.750000
vt 1.000000 0.750000
vt 1.000000 1.000000
vt 0.750000 0.750000
vt 0.500000 0.750000
vt 0.500000 0.750000
vt 0.750000 0.750000
vt 0.750000 1.000000
vt 0.500000 1.000000
vt 1.000000 0.750000
vt 0.750000 1.000000
vt 0.750000 0.750000
vt 0.750000 0.750000
vt 1.000000 0.750000
vt 1.000000 1.000000
vt 1.000000 0.750000
vt 1.000000 0.750000
vt 1.000000 1.000000
vt 1.000000 0.750000
vt 1.000000 0.750000
vt 1.000000 1.000000
vt 1.000000 0.750000
vt 1.000000 0.750000
vt 1.000000 1.000000
vt 1.000000 0.750000
vt 0.000000 0.750000
vt 0.998150 1.000000
vt 1.000000 0.750000
vt 0.000000 0.750000
vt 0.000000 0.750000
vt 1.000000 0.750000
vt 0.000000 0.750000
vt 0.964382 1.000000
vt 0.000000 0.750000
vt 0.953125 0.750000
vt 0.976562 0.750000
vt 0.000000 0.750000
vt 0.000000 0.750000
vt 0.640625 0.750000
vt 0.000000 0.750000
vt 0.632812 0.750000
vt 0.960938 0.750000
vt 0.968750 0.750000
vt 0.960938 0.750000
vt 0.960938 0.750000
vt 0.000000 0.750000
vt 0.039062 0.750000
vt 0.000000 0.750000
vt 0.031250 0.750000
vt 0.000000 0.750000
vt 0.636719 1.000000
vt 0.965057 1.000000
vt 0.962735 1.000000
vt 0.000000 0.750000
vt 0.000000 0.750000
vt 0.035871 1.000000
vt 0.000000 0.750000
vt 0.889474 1.000000
vt 0.000000 0.750000
vt 0.138827 1.000000
vt 0.000000 0.750000
vt 0.132812 0.750000
vt 0.000000 0.750000
vt 0.890625 0.750000
vt 0.000000 0.750000
vt 0.890625 0.750000
vt 0.000000 0.750000
vt 0.140625 0.750000
vt 0.757812 0.750000
vt 0.773438 0.750000
vt 0.000000 0.750000
vt 0.000000 0.750000
vt 0.406250 0.750000
vt 0.000000 0.750000
vt 0.398438 0.750000
vt 0.781250 0.750000
vt 0.000000 0.750000
vt 0.000000 0.750000
vt 0.773438 0.750000
vt 0.351562 0.750000
vt 0.335938 0.750000
vt 0.767621 1.000000
vt 0.776532 1.000000
vt 0.000000 0.750000
vt 0.000000 0.750000
vt 0.400671 1.000000
vt 0.345159 1.000000
vt 0.000000 0.750000
vt 0.345159 1.000000
vt 0.223468 1.000000
vt 0.000000 0.750000
vt 0.599329 1.000000
vt 0.000000 0.750000
vt 0.232379 1.000000
vt 0.000000 0.750000
vt 0.351562 0.750000
vt 0.000000 0.750000
vt 0.335938 0.750000
vt 0.000000 0.750000
vt 0.226562 0.750000
vt 0.218750 0.750000
vt 0.000000 0.750000
vt 0.601562 0.750000
vt 0.000000 0.750000
vt 0.593750 0.750000
vt 0.242188 0.750000
vt 0.000000 0.750000
vt 0.000000 0.750000
vt 0.226562 0.750000
vt 0.110526 1.000000
vt 0.000000 0.750000
vt 0.000000 0.750000
vt 0.138827 1.000000
vt 0.109375 0.750000
vt 0.000000 0.750000
vt 0.132812 0.750000
vt 0.000000 0.750000
vt 0.140625 0.750000
vt 0.000000 0.750000
vt 0.109375 0.750000
vt 0.039062 0.750000
vt 0.000000 0.750000
vt 0.000000 0.750000
vt 0.039062 0.750000
vt 0.367188 0.750000
vt 0.000000 0.750000
vt 0.000000 0.750000
vt 0.359375 0.750000
vt 0.000000 0.750000
vt 0.039062 0.750000
vt 0.000000 0.750000
vt 0.039062 0.750000
vt 0.031250 0.750000
vt 0.000000 0.750000
vt 0.000000 0.750000
vt 0.031250 0.750000
vt 0.000000 0.750000
vt 0.363281 1.000000
vt 0.037265 1.000000
vt 0.000000 0.750000
vt 0.000000 0.750000
vt 0.035871 1.000000
vt 0.000000 0.750000
vt 0.034943 1.000000
vt 0.000000 0.750000
vt 0.035618 1.000000
vt 0.000000 0.750000
vt 0.046875 0.750000
vt 0.000000 0.750000
vt 0.023438 0.750000
vt 0.000000 0.750000
vt 0.000000 0.750000
vt 0.001850 1.000000
s 0
f 4/4/1 11/11/1 5/5/1
f 6/6/2 10/10/2 7/7/2
f 4/4/3 9/9/3 10/10/3
f 10/10/4 8/8/4 7/7/4
f 8/8/2 2/2/2 12/12/2
f 1/1/1 9/9/1 3/3/1
f 16/16/5 225/253/5 13/13/5
f 16/16/6 14/14/6 15/15/6
f 13/13/7 231/264/7 17/17/7
f 21/21/5 14/14/5 19/19/5
f 18/18/8 13/13/8 17/17/8
f 19/19/7 18/18/7 20/20/7
f 33/33/3 23/23/3 27/27/3
f 27/27/4 24/24/4 28/28/4
f 29/29/2 27/27/2 28/28/2
f 33/33/1 26/26/1 32/32/1
f 25/25/4 29/29/4 30/30/4
f 31/31/3 26/26/3 25/25/3
f 244/289/5 36/36/5 35/35/5
f 34/34/7 249/299/7 243/286/7
f 47/47/5 43/43/5 44/44/5
f 47/47/6 45/45/6 46/46/6
f 44/44/7 49/49/7 50/50/7
f 54/54/5 45/45/5 52/52/5
f 51/51/8 44/44/8 50/50/8
f 52/52/7 51/51/7 53/53/7
f 211/230/6 43/43/6 48/48/6
f 49/49/8 219/243/8 212/231/8
f 59/59/8 66/66/8 60/60/8
f 61/61/5 220/244/5 66/66/5
f 63/63/5 65/65/5 64/64/5
f 66/66/7 215/237/7 60/60/7
f 63/63/6 57/57/6 55/55/6
f 64/64/7 59/59/7 58/58/7
f 56/56/8 64/64/8 58/58/8
f 61/61/6 65/65/6 62/62/6
f 71/71/5 67/67/5 68/68/5
f 71/71/6 69/69/6 70/70/6
f 68/68/7 73/73/7 74/74/7
f 78/78/5 69/69/5 76/76/5
f 75/75/8 68/68/8 74/74/8
f 76/76/7 75/75/7 77/77/7
f 197/205/6 67/67/6 72/72/6
f 73/73/8 203/214/8 198/206/8
f 83/83/8 90/90/8 84/84/8
f 85/85/5 205/219/5 90/90/5
f 87/87/5 89/89/5 88/88/5
f 90/90/7 209/227/7 84/84/7
f 87/87/6 81/81/6 79/79/6
f 88/88/7 83/83/7 82/82/7
f 80/80/8 88/88/8 82/82/8
f 85/85/6 89/89/6 86/86/6
f 95/95/5 91/91/5 92/92/5
f 95/95/6 93/93/6 94/94/6
f 92/92/7 97/97/7 98/98/7
f 102/102/5 93/93/5 100/100/5
f 99/99/8 92/92/8 98/98/8
f 100/100/7 99/99/7 101/101/7
f 189/192/6 91/91/6 96/96/6
f 97/97/8 187/188/8 188/189/8
f 107/107/8 114/114/8 108/108/8
f 109/109/5 202/213/5 114/114/5
f 111/111/5 113/113/5 112/112/5
f 114/114/7 196/204/7 108/108/7
f 111/111/6 105/105/6 103/103/6
f 112/112/7 107/107/7 106/106/7
f 104/104/8 112/112/8 106/106/8
f 109/109/6 113/113/6 110/110/6
f 118/118/1 125/125/1 119/119/1
f 120/120/2 124/124/2 121/121/2
f 118/118/3 123/123/3 124/124/3
f 124/124/4 122/122/4 121/121/4
f 122/122/2 116/116/2 126/126/2
f 115/115/1 123/123/1 117/117/1
f 138/138/3 128/128/3 132/132/3
f 132/132/4 129/129/4 133/133/4
f 134/134/2 132/132/2 133/133/2
f 138/138/1 131/131/1 137/137/1
f 130/130/4 134/134/4 135/135/4
f 136/136/3 131/131/3 130/130/3
f 142/142/1 149/149/1 143/143/1
f 144/144/2 148/148/2 145/145/2
f 142/142/3 147/147/3 148/148/3
f 148/148/4 146/146/4 145/145/4
f 146/146/2 140/140/2 150/150/2
f 139/139/1 147/147/1 141/141/1
f 162/162/3 152/152/3 156/156/3
f 156/156/4 153/153/4 157/157/4
f 158/158/2 156/156/2 157/157/2
f 162/162/1 155/155/1 161/161/1
f 154/154/4 158/158/4 159/159/4
f 160/160/3 155/155/3 154/154/3
f 166/166/3 169/169/3 170/170/3
f 170/170/4 168/168/4 167/167/4
f 168/168/2 164/164/2 171/171/2
f 163/163/1 169/169/1 165/165/1
f 191/196/3 172/172/3 174/174/3
f 173/173/4 190/194/4 192/197/4
f 240/281/2 130/130/2 135/135/2
f 256/312/3 11/11/3 258/314/3
f 255/310/9 253/306/9 254/308/9
f 198/207/10 204/216/10 200/209/10
f 194/201/10 201/211/10 193/199/10
f 230/262/2 154/154/2 159/159/2
f 193/200/1 172/172/1 201/212/1
f 233/267/3 149/149/3 226/255/3
f 250/300/4 120/120/4 241/282/4
f 221/246/11 213/233/11 214/235/11
f 220/245/11 212/232/11 216/239/11
f 221/247/1 166/166/1 170/170/1
f 249/298/12 243/287/12 244/288/12
f 251/302/13 248/296/13 242/284/13
f 241/283/12 251/302/12 250/301/12
f 242/284/12 251/302/12 246/292/12
f 239/279/14 182/182/14 236/274/14
f 248/297/2 25/25/2 30/30/2
f 223/249/15 228/258/15 227/256/15
f 226/254/15 229/260/15 234/269/15
f 232/265/15 225/252/15 231/263/15
f 217/241/14 185/185/14 222/248/14
f 226/255/4 144/144/4 234/270/4
f 252/305/1 31/31/1 25/25/1
f 227/257/16 41/41/16 42/42/16
f 251/303/17 39/39/17 247/294/17
f 245/291/3 125/125/3 250/300/3
f 214/236/2 170/170/2 167/167/2
f 189/191/18 187/187/18 188/190/18
f 222/248/17 186/186/17 218/242/17
f 254/309/6 36/36/6 253/307/6
f 258/314/4 6/6/4 257/313/4
f 205/218/19 209/226/19 208/224/19
f 210/228/19 206/220/19 207/222/19
f 210/229/16 176/176/16 177/177/16
f 223/250/20 40/40/20 41/41/20
f 206/221/20 175/175/20 176/176/20
f 235/271/1 136/136/1 130/130/1
f 224/251/1 160/160/1 154/154/1
f 201/212/2 173/173/2 194/202/2
f 204/217/20 178/178/20 179/179/20
f 238/278/21 235/272/21 236/273/21
f 240/280/21 235/272/21 237/276/21
f 253/307/8 34/34/8 255/311/8
f 246/293/14 38/38/14 251/303/14
f 236/274/17 183/183/17 238/277/17
f 199/208/16 179/179/16 180/180/16
f 191/195/22 190/193/22 192/198/22
f 4/4/1 10/10/1 11/11/1
f 6/6/2 11/11/2 10/10/2
f 4/4/3 3/3/3 9/9/3
f 10/10/4 9/9/4 8/8/4
f 8/8/2 9/9/2 2/2/2
f 1/1/1 2/2/1 9/9/1
f 16/16/5 232/266/5 225/253/5
f 16/16/6 13/13/6 14/14/6
f 13/13/7 225/253/7 231/264/7
f 21/21/5 15/15/5 14/14/5
f 18/18/8 14/14/8 13/13/8
f 19/19/7 14/14/7 18/18/7
f 33/33/3 22/22/3 23/23/3
f 27/27/4 23/23/4 24/24/4
f 29/29/2 26/26/2 27/27/2
f 33/33/1 27/27/1 26/26/1
f 25/25/4 26/26/4 29/29/4
f 31/31/3 32/32/3 26/26/3
f 244/289/5 249/299/5 36/36/5
f 34/34/7 36/36/7 249/299/7
f 47/47/5 48/48/5 43/43/5
f 47/47/6 44/44/6 45/45/6
f 44/44/7 43/43/7 49/49/7
f 54/54/5 46/46/5 45/45/5
f 51/51/8 45/45/8 44/44/8
f 52/52/7 45/45/7 51/51/7
f 211/230/6 219/243/6 43/43/6
f 49/49/8 43/43/8 219/243/8
f 59/59/8 65/65/8 66/66/8
f 61/61/5 216/240/5 220/244/5
f 63/63/5 62/62/5 65/65/5
f 66/66/7 220/244/7 215/237/7
f 63/63/6 64/64/6 57/57/6
f 64/64/7 65/65/7 59/59/7
f 56/56/8 57/57/8 64/64/8
f 61/61/6 66/66/6 65/65/6
f 71/71/5 72/72/5 67/67/5
f 71/71/6 68/68/6 69/69/6
f 68/68/7 67/67/7 73/73/7
f 78/78/5 70/70/5 69/69/5
f 75/75/8 69/69/8 68/68/8
f 76/76/7 69/69/7 75/75/7
f 197/205/6 203/214/6 67/67/6
f 73/73/8 67/67/8 203/214/8
f 83/83/8 89/89/8 90/90/8
f 85/85/5 208/225/5 205/219/5
f 87/87/5 86/86/5 89/89/5
f 90/90/7 205/219/7 209/227/7
f 87/87/6 88/88/6 81/81/6
f 88/88/7 89/89/7 83/83/7
f 80/80/8 81/81/8 88/88/8
f 85/85/6 90/90/6 89/89/6
f 95/95/5 96/96/5 91/91/5
f 95/95/6 92/92/6 93/93/6
f 92/92/7 91/91/7 97/97/7
f 102/102/5 94/94/5 93/93/5
f 99/99/8 93/93/8 92/92/8
f 100/100/7 93/93/7 99/99/7
f 189/192/6 187/188/6 91/91/6
f 97/97/8 91/91/8 187/188/8
f 107/107/8 113/113/8 114/114/8
f 109/109/5 195/203/5 202/213/5
f 111/111/5 110/110/5 113/113/5
f 114/114/7 202/213/7 196/204/7
f 111/111/6 112/112/6 105/105/6
f 112/112/7 113/113/7 107/107/7
f 104/104/8 105/105/8 112/112/8
f 109/109/6 114/114/6 113/113/6
f 118/118/1 124/124/1 125/125/1
f 120/120/2 125/125/2 124/124/2
f 118/118/3 117/117/3 123/123/3
f 124/124/4 123/123/4 122/122/4
f 122/122/2 123/123/2 116/116/2
f 115/115/1 116/116/1 123/123/1
f 138/138/3 127/127/3 128/128/3
f 132/132/4 128/128/4 129/129/4
f 134/134/2 131/131/2 132/132/2
f 138/138/1 132/132/1 131/131/1
f 130/130/4 131/131/4 134/134/4
f 136/136/3 137/137/3 131/131/3
f 142/142/1 148/148/1 149/149/1
f 144/144/2 149/149/2 148/148/2
f 142/142/3 141/141/3 147/147/3
f 148/148/4 147/147/4 146/146/4
f 146/146/2 147/147/2 140/140/2
f 139/139/1 140/140/1 147/147/1
f 162/162/3 151/151/3 152/152/3
f 156/156/4 152/152/4 153/153/4
f 158/158/2 155/155/2 156/156/2
f 162/162/1 156/156/1 155/155/1
f 154/154/4 155/155/4 158/158/4
f 160/160/3 161/161/3 155/155/3
f 166/166/3 165/165/3 169/169/3
f 170/170/4 169/169/4 168/168/4
f 168/168/2 169/169/2 164/164/2
f 163/163/1 164/164/1 169/169/1
f 191/196/3 190/194/3 172/172/3
f 173/173/4 172/172/4 190/194/4
f 240/281/2 235/271/2 130/130/2
f 256/312/3 5/5/3 11/11/3
f 198/207/10 203/215/10 204/216/10
f 230/262/2 224/251/2 154/154/2
f 193/200/1 174/174/1 172/172/1
f 233/267/3 143/143/3 149/149/3
f 250/300/4 125/125/4 120/120/4
f 220/245/11 215/238/11 212/232/11
f 221/247/1 213/234/1 166/166/1
f 250/301/12 245/290/12 246/292/12
f 251/302/12 247/295/12 248/296/12
f 250/301/12 246/292/12 251/302/12
f 242/284/12 241/283/12 250/301/12
f 248/296/12 252/304/12 242/284/12
f 242/284/13 250/301/13 251/302/13
f 241/283/12 247/295/12 251/302/12
f 242/284/12 252/304/12 251/302/12
f 239/279/14 181/181/14 182/182/14
f 248/297/2 252/305/2 25/25/2
f 226/254/15 233/268/15 229/260/15
f 217/241/14 184/184/14 185/185/14
f 226/255/4 149/149/4 144/144/4
f 252/305/1 242/285/1 31/31/1
f 227/257/16 223/250/16 41/41/16
f 251/303/17 38/38/17 39/39/17
f 245/291/3 119/119/3 125/125/3
f 214/236/2 221/247/2 170/170/2
f 222/248/17 185/185/17 186/186/17
f 254/309/6 35/35/6 36/36/6
f 258/314/4 11/11/4 6/6/4
f 210/229/16 206/221/16 176/176/16
f 223/250/20 228/259/20 40/40/20
f 206/221/20 207/223/20 175/175/20
f 235/271/1 237/275/1 136/136/1
f 224/251/1 229/261/1 160/160/1
f 201/212/2 172/172/2 173/173/2
f 204/217/20 200/210/20 178/178/20
f 238/278/21 237/276/21 235/272/21
f 253/307/8 36/36/8 34/34/8
f 246/293/14 37/37/14 38/38/14
f 236/274/17 182/182/17 183/183/17
f 199/208/16 204/217/16 179/179/16
