# Blender 3.1.0
# www.blender.org
o grass6
v -0.250000 0.000000 0.010000
v 0.250000 0.000000 0.010000
v -0.249500 0.500000 0.000000
v 0.250500 0.500000 0.000000
v -0.249000 0.000000 -0.010000
v 0.251000 0.000000 -0.010000
v 0.010500 0.000000 0.250500
v 0.010500 0.000000 -0.249500
v 0.000500 0.500000 0.250000
v 0.000500 0.500000 -0.250000
v -0.009500 0.000000 0.249500
v -0.009500 0.000000 -0.250500
vn -0.0000 0.0200 0.9998
vn -0.0000 0.0200 -0.9998
vn 0.9998 0.0200 -0.0000
vn -0.9998 0.0200 -0.0000
vt 0.562500 0.468750
vt 0.812500 0.468750
vt 0.562500 0.718750
vt 0.812500 0.718750
vt 0.562500 0.468750
vt 0.812500 0.468750
vt 0.562500 0.468750
vt 0.812500 0.468750
vt 0.562500 0.718750
vt 0.812500 0.718750
vt 0.562500 0.468750
vt 0.812500 0.468750
s 0
f 2/2/1 3/3/1 1/1/1
f 5/5/2 4/4/2 6/6/2
f 8/8/3 9/9/3 7/7/3
f 11/11/4 10/10/4 12/12/4
f 2/2/1 4/4/1 3/3/1
f 5/5/2 3/3/2 4/4/2
f 8/8/3 10/10/3 9/9/3
f 11/11/4 9/9/4 10/10/4
