# Blender 3.1.0
# www.blender.org
o grass_bush
v -0.499000 0.000000 0.010000
v 0.501000 0.000000 0.010000
v -0.499000 0.500000 0.000000
v 0.501000 0.500000 0.000000
v -0.499000 0.000000 -0.010000
v 0.501000 0.000000 -0.010000
v 0.011000 0.000000 0.500000
v 0.501000 0.500000 0.030000
v -0.499000 0.500000 0.030000
v 0.501000 0.000000 0.020000
v -0.499000 0.000000 0.020000
v 0.011000 0.000000 -0.500000
v -0.009000 0.000000 -0.500000
v 0.501000 0.000000 0.040000
v -0.499000 0.000000 0.040000
v 0.251000 0.500000 0.250000
v 0.001000 0.500000 0.300000
v -0.249000 0.500000 0.250000
v -0.249000 0.000000 0.060000
v 0.001000 0.000000 0.160000
v 0.251000 0.000000 0.060000
v -0.009000 0.000000 0.500000
v 0.001000 0.500000 -0.500000
v 0.001000 0.500000 0.500000
v 0.251000 0.000000 0.080000
v 0.001000 0.000000 0.180000
v -0.249000 0.000000 0.080000
v -0.501000 0.500000 -0.030000
v 0.499000 0.500000 -0.030000
v -0.501000 0.000000 -0.020000
v 0.499000 0.000000 -0.020000
v -0.501000 0.000000 -0.040000
v 0.499000 0.000000 -0.040000
v -0.251000 0.500000 -0.250000
v -0.001000 0.500000 -0.300000
v 0.249000 0.500000 -0.250000
v 0.249000 0.000000 -0.060000
v -0.001000 0.000000 -0.160000
v -0.251000 0.000000 -0.060000
v -0.251000 0.000000 -0.080000
v -0.001000 0.000000 -0.180000
v 0.249000 0.000000 -0.080000
v -0.345775 0.000000 0.359917
v 0.361332 0.000000 -0.347189
v -0.352846 0.500000 0.352846
v 0.354260 0.500000 -0.354260
v -0.359917 0.000000 0.345775
v 0.347189 0.000000 -0.361332
v 0.361332 0.000000 0.345775
v -0.345775 0.000000 -0.361332
v -0.359917 0.000000 -0.347190
v 0.347189 0.000000 0.359917
v -0.352846 0.500000 -0.354261
v 0.354260 0.500000 0.352846
vn -0.0000 0.0200 0.9998
vn -0.0000 0.0200 -0.9998
vn -0.1580 0.0197 -0.9872
vn 0.6401 -0.2473 0.7274
vn 0.1580 0.0197 -0.9872
vn 0.3502 0.3327 -0.8756
vn -0.3502 0.3327 -0.8756
vn -0.1580 0.0197 0.9872
vn -0.3542 -0.3010 0.8854
vn 0.1909 -0.2291 0.9545
vn -0.9998 0.0200 -0.0000
vn 0.9998 0.0200 -0.0000
vn 0.1580 0.0197 0.9872
vn -0.6401 -0.2473 -0.7274
vn -0.3502 0.3327 0.8756
vn 0.3502 0.3327 0.8756
vn 0.3542 -0.3010 -0.8854
vn -0.1909 -0.2291 -0.9545
vn 0.7070 0.0200 0.7070
vn -0.7070 0.0200 -0.7070
vn -0.7070 0.0200 0.7070
vn 0.7070 0.0200 -0.7070
vn -0.6353 0.2743 -0.7219
vn 0.6353 0.2743 -0.7219
vn 0.1891 0.2648 -0.9456
vn -0.1891 0.2648 -0.9456
vn -0.6401 -0.2473 0.7274
vn -0.1909 -0.2291 0.9545
vn 0.3542 -0.3010 0.8854
vn 0.6353 0.2743 0.7219
vn -0.6353 0.2743 0.7219
vn -0.1891 0.2648 0.9456
vn 0.1891 0.2648 0.9456
vn 0.6401 -0.2473 -0.7274
vn 0.1909 -0.2291 -0.9545
vn -0.3542 -0.3010 -0.8854
vt 0.000000 0.750000
vt 0.562500 0.750000
vt 0.000000 1.000000
vt 0.562500 1.000000
vt 0.000000 0.750000
vt 0.562500 0.750000
vt 0.562500 0.750000
vt 0.562500 1.000000
vt 0.000000 1.000000
vt 0.562500 0.750000
vt 0.000000 0.750000
vt 0.000000 0.750000
vt 0.000000 0.750000
vt 0.562500 0.750000
vt 0.000000 0.750000
vt 0.421875 1.000000
vt 0.281250 1.000000
vt 0.140625 1.000000
vt 0.140625 0.750000
vt 0.281250 0.750000
vt 0.421875 0.750000
vt 0.562500 0.750000
vt 0.000000 1.000000
vt 0.562500 1.000000
vt 0.421875 0.750000
vt 0.281250 0.750000
vt 0.140625 0.750000
vt 0.562500 1.000000
vt 0.000000 1.000000
vt 0.562500 0.750000
vt 0.000000 0.750000
vt 0.562500 0.750000
vt 0.000000 0.750000
vt 0.421875 1.000000
vt 0.281250 1.000000
vt 0.140625 1.000000
vt 0.140625 0.750000
vt 0.281250 0.750000
vt 0.421875 0.750000
vt 0.421875 0.750000
vt 0.281250 0.750000
vt 0.140625 0.750000
vt 0.000000 0.750000
vt 0.562500 0.750000
vt 0.000000 1.000000
vt 0.562500 1.000000
vt 0.000000 0.750000
vt 0.562500 0.750000
vt 0.562500 0.750000
vt 0.000000 0.750000
vt 0.000000 0.750000
vt 0.562500 0.750000
vt 0.000000 1.000000
vt 0.562500 1.000000
s 0
f 2/2/1 3/3/1 1/1/1
f 3/3/2 6/6/2 5/5/2
f 21/21/3 8/8/3 10/10/3
f 25/25/4 8/8/4 16/16/4
f 9/9/5 19/19/5 11/11/5
f 18/18/6 20/20/6 19/19/6
f 20/20/7 16/16/7 21/21/7
f 27/27/8 9/9/8 15/15/8
f 26/26/9 18/18/9 27/27/9
f 26/26/10 16/16/10 17/17/10
f 22/22/11 23/23/11 13/13/11
f 23/23/12 7/7/12 12/12/12
f 39/39/13 28/28/13 30/30/13
f 40/40/14 28/28/14 34/34/14
f 29/29/8 37/37/8 31/31/8
f 36/36/15 38/38/15 37/37/15
f 38/38/16 34/34/16 39/39/16
f 42/42/5 29/29/5 33/33/5
f 41/41/17 36/36/17 42/42/17
f 41/41/18 34/34/18 35/35/18
f 44/44/19 45/45/19 43/43/19
f 45/45/20 48/48/20 47/47/20
f 52/52/21 53/53/21 51/51/21
f 53/53/22 49/49/22 50/50/22
f 2/2/1 4/4/1 3/3/1
f 3/3/2 4/4/2 6/6/2
f 21/21/23 16/16/23 8/8/23
f 25/25/13 14/14/13 8/8/13
f 9/9/24 18/18/24 19/19/24
f 18/18/25 17/17/25 20/20/25
f 20/20/26 17/17/26 16/16/26
f 27/27/27 18/18/27 9/9/27
f 26/26/28 17/17/28 18/18/28
f 26/26/29 25/25/29 16/16/29
f 22/22/11 24/24/11 23/23/11
f 23/23/12 24/24/12 7/7/12
f 39/39/30 34/34/30 28/28/30
f 40/40/3 32/32/3 28/28/3
f 29/29/31 36/36/31 37/37/31
f 36/36/32 35/35/32 38/38/32
f 38/38/33 35/35/33 34/34/33
f 42/42/34 36/36/34 29/29/34
f 41/41/35 35/35/35 36/36/35
f 41/41/36 40/40/36 34/34/36
f 44/44/19 46/46/19 45/45/19
f 45/45/20 46/46/20 48/48/20
f 52/52/21 54/54/21 53/53/21
f 53/53/22 54/54/22 49/49/22
