# Blender 3.1.0
# www.blender.org
o grass3
v 0.166667 0.000000 0.010000
v -0.166667 0.000000 0.010000
v -0.166667 0.425000 0.000000
v 0.166667 0.425000 0.000000
v 0.166667 0.000000 -0.010000
v -0.166667 0.000000 -0.010000
v 0.010000 0.000000 -0.166667
v 0.010000 0.000000 0.166667
v 0.000000 0.425000 0.166667
v 0.000000 0.425000 -0.166667
v -0.010000 0.000000 -0.166667
v -0.010000 0.000000 0.166667
vn -0.0000 0.0235 0.9997
vn -0.0000 0.0235 -0.9997
vn 0.9997 0.0235 -0.0000
vn -0.9997 0.0235 -0.0000
vt 0.770833 0.750000
vt 0.604167 0.750000
vt 0.604167 0.962500
vt 0.770833 0.962500
vt 0.770833 0.750000
vt 0.604167 0.750000
vt 0.770833 0.750000
vt 0.604167 0.750000
vt 0.604167 0.962500
vt 0.770833 0.962500
vt 0.770833 0.750000
vt 0.604167 0.750000
s 0
f 4/4/1 2/2/1 1/1/1
f 6/6/2 4/4/2 5/5/2
f 10/10/3 8/8/3 7/7/3
f 12/12/4 10/10/4 11/11/4
f 4/4/1 3/3/1 2/2/1
f 6/6/2 3/3/2 4/4/2
f 10/10/3 9/9/3 8/8/3
f 12/12/4 9/9/4 10/10/4
