# Blender 3.1.0
# www.blender.org
o bush6
v -1.000000 0.000000 0.010000
v 1.000000 0.000000 0.010000
v -1.000000 1.000000 0.010000
v 1.000000 1.000000 0.010000
v -1.000000 0.000000 -0.010000
v 1.000000 0.000000 -0.010000
v -1.000000 1.000000 -0.010000
v 1.000000 1.000000 -0.010000
v -0.090000 0.000000 1.000000
v -0.090000 0.000000 -1.000000
v -0.110000 0.000000 1.000000
v -0.110000 0.000000 -1.000000
v -0.710000 0.000000 0.500000
v -0.810000 0.000000 0.000000
v -0.710000 0.000000 -0.500000
v -0.110000 1.000000 -0.500000
v -0.210000 1.000000 0.000000
v -0.110000 1.000000 0.500000
v -0.690000 0.000000 -0.500000
v -0.790000 0.000000 0.000000
v -0.690000 0.000000 0.500000
v -0.090000 1.000000 0.500000
v -0.190000 1.000000 -0.000000
v -0.090000 1.000000 -0.500000
v 0.090000 0.750000 1.000000
v -0.110000 0.500000 1.000000
v -0.210000 0.250000 1.000000
v -0.210000 0.250000 -1.000000
v -0.110000 0.500000 -1.000000
v 0.090000 0.750000 -1.000000
v -0.510000 0.750000 0.500000
v -0.710000 0.500000 0.500000
v -0.810000 0.250000 0.500000
v -0.610000 0.750000 0.000000
v -0.810000 0.500000 0.000000
v -0.910000 0.250000 0.000000
v -0.510000 0.750000 -0.500000
v -0.710000 0.500000 -0.500000
v -0.810000 0.250000 -0.500000
v -0.190000 0.250000 1.000000
v -0.090000 0.500000 1.000000
v 0.110000 0.750000 1.000000
v 0.110000 0.750000 -1.000000
v -0.090000 0.500000 -1.000000
v -0.190000 0.250000 -1.000000
v -0.790000 0.250000 0.500000
v -0.690000 0.500000 0.500000
v -0.490000 0.750000 0.500000
v -0.890000 0.250000 -0.000000
v -0.790000 0.500000 -0.000000
v -0.590000 0.750000 -0.000000
v -0.790000 0.250000 -0.500000
v -0.690000 0.500000 -0.500000
v -0.490000 0.750000 -0.500000
v 0.010000 0.000000 1.000000
v 0.010000 0.000000 -1.000000
v 0.010000 1.000000 1.000000
v 0.010000 1.000000 -1.000000
v -0.010000 0.000000 1.000000
v -0.010000 0.000000 -1.000000
v -0.010000 1.000000 1.000000
v -0.010000 1.000000 -1.000000
v 0.090000 0.000000 -1.000000
v 0.090000 0.000000 1.000000
v 0.110000 0.000000 -1.000000
v 0.110000 0.000000 1.000000
v 0.710000 0.000000 -0.500000
v 0.810000 -0.000000 0.000000
v 0.710000 0.000000 0.500000
v 0.110000 1.000000 0.500000
v 0.210000 1.000000 -0.000000
v 0.110000 1.000000 -0.500000
v 0.690000 0.000000 0.500000
v 0.790000 0.000000 0.000000
v 0.690000 0.000000 -0.500000
v 0.090000 1.000000 -0.500000
v 0.190000 1.000000 0.000000
v 0.090000 1.000000 0.500000
v -0.090000 0.750000 -1.000000
v 0.110000 0.500000 -1.000000
v 0.210000 0.250000 -1.000000
v 0.210000 0.250000 1.000000
v 0.110000 0.500000 1.000000
v -0.090000 0.750000 1.000000
v 0.510000 0.750000 -0.500000
v 0.710000 0.500000 -0.500000
v 0.810000 0.250000 -0.500000
v 0.610000 0.750000 0.000000
v 0.810000 0.500000 0.000000
v 0.910000 0.250000 0.000000
v 0.510000 0.750000 0.500000
v 0.710000 0.500000 0.500000
v 0.810000 0.250000 0.500000
v 0.190000 0.250000 -1.000000
v 0.090000 0.500000 -1.000000
v -0.110000 0.750000 -1.000000
v -0.110000 0.750000 1.000000
v 0.090000 0.500000 1.000000
v 0.190000 0.250000 1.000000
v 0.790000 0.250000 -0.500000
v 0.690000 0.500000 -0.500000
v 0.490000 0.750000 -0.500000
v 0.890000 0.250000 0.000000
v 0.790000 0.500000 0.000000
v 0.590000 0.750000 0.000000
v 0.790000 0.250000 0.500000
v 0.690000 0.500000 0.500000
v 0.490000 0.750000 0.500000
v -1.000000 0.000000 -0.090000
v 1.000000 0.000000 -0.090000
v -1.000000 0.000000 -0.110000
v 1.000000 0.000000 -0.110000
v -0.500000 -0.000000 -0.710000
v 0.000000 0.000000 -0.810000
v 0.500000 0.000000 -0.710000
v 0.500000 1.000000 -0.110000
v -0.000000 1.000000 -0.210000
v -0.500000 1.000000 -0.110000
v 0.500000 0.000000 -0.690000
v 0.000000 0.000000 -0.790000
v -0.500000 0.000000 -0.690000
v -0.500000 1.000000 -0.090000
v 0.000000 1.000000 -0.190000
v 0.500000 1.000000 -0.090000
v -1.000000 0.750000 0.090000
v -1.000000 0.500000 -0.110000
v -1.000000 0.250000 -0.210000
v 1.000000 0.250000 -0.210000
v 1.000000 0.500000 -0.110000
v 1.000000 0.750000 0.090000
v -0.500000 0.750000 -0.510000
v -0.500000 0.500000 -0.710000
v -0.500000 0.250000 -0.810000
v 0.000000 0.750000 -0.610000
v 0.000000 0.500000 -0.810000
v 0.000000 0.250000 -0.910000
v 0.500000 0.750000 -0.510000
v 0.500000 0.500000 -0.710000
v 0.500000 0.250000 -0.810000
v -1.000000 0.250000 -0.190000
v -1.000000 0.500000 -0.090000
v -1.000000 0.750000 0.110000
v 1.000000 0.750000 0.110000
v 1.000000 0.500000 -0.090000
v 1.000000 0.250000 -0.190000
v -0.500000 0.250000 -0.790000
v -0.500000 0.500000 -0.690000
v -0.500000 0.750000 -0.490000
v 0.000000 0.250000 -0.890000
v 0.000000 0.500000 -0.790000
v 0.000000 0.750000 -0.590000
v 0.500000 0.250000 -0.790000
v 0.500000 0.500000 -0.690000
v 0.500000 0.750000 -0.490000
v 1.000000 0.000000 0.090000
v -1.000000 0.000000 0.090000
v 1.000000 -0.000000 0.110000
v -1.000000 0.000000 0.110000
v 0.500000 0.000000 0.710000
v -0.000000 0.000000 0.810000
v -0.500000 0.000000 0.710000
v -0.500000 1.000000 0.110000
v 0.000000 1.000000 0.210000
v 0.500000 1.000000 0.110000
v -0.500000 0.000000 0.690000
v -0.000000 0.000000 0.790000
v 0.500000 0.000000 0.690000
v 0.500000 1.000000 0.090000
v -0.000000 1.000000 0.190000
v -0.500000 1.000000 0.090000
v 1.000000 0.750000 -0.090000
v 1.000000 0.500000 0.110000
v 1.000000 0.250000 0.210000
v -1.000000 0.250000 0.210000
v -1.000000 0.500000 0.110000
v -1.000000 0.750000 -0.090000
v 0.500000 0.750000 0.510000
v 0.500000 0.500000 0.710000
v 0.500000 0.250000 0.810000
v -0.000000 0.750000 0.610000
v -0.000000 0.500000 0.810000
v -0.000000 0.250000 0.910000
v -0.500000 0.750000 0.510000
v -0.500000 0.500000 0.710000
v -0.500000 0.250000 0.810000
v 1.000000 0.250000 0.190000
v 1.000000 0.500000 0.090000
v 1.000000 0.750000 -0.110000
v -1.000000 0.750000 -0.110000
v -1.000000 0.500000 0.090000
v -1.000000 0.250000 0.190000
v 0.500000 0.250000 0.790000
v 0.500000 0.500000 0.690000
v 0.500000 0.750000 0.490000
v -0.000000 0.250000 0.890000
v -0.000000 0.500000 0.790000
v -0.000000 0.750000 0.590000
v -0.500000 0.250000 0.790000
v -0.500000 0.500000 0.690000
v -0.500000 0.750000 0.490000
v -0.350000 0.850000 -0.350000
v 0.350000 0.850000 -0.350000
v -0.350000 0.850000 0.350000
v 0.350000 0.850000 0.350000
v -0.500000 0.850000 0.000000
v 0.000000 0.850000 -0.500000
v 0.500000 0.850000 0.000000
v 0.000000 0.850000 0.500000
v 0.000000 0.900000 0.000000
v -0.714178 0.000000 -0.700036
v 0.700036 0.000000 0.714178
v -0.714178 1.000000 -0.700036
v 0.700036 1.000000 0.714178
v -0.700036 0.000000 -0.714178
v 0.714178 0.000000 0.700036
v -0.700036 1.000000 -0.714178
v 0.714178 1.000000 0.700036
v -0.700036 0.000000 0.714178
v 0.714178 0.000000 -0.700036
v -0.700036 1.000000 0.714178
v 0.714178 1.000000 -0.700036
v -0.714178 0.000000 0.700036
v 0.700036 0.000000 -0.714178
v -0.714178 1.000000 0.700036
v 0.700036 1.000000 -0.714178
vn -0.0000 -0.0000 1.0000
vn -0.0000 -0.0000 -1.0000
vn 0.4472 -0.7155 0.5367
vn -0.4472 0.7155 -0.5367
vn -0.5270 0.8433 0.1054
vn -0.5270 0.8433 -0.1054
vn 0.5270 -0.8433 -0.1054
vn 0.5270 -0.8433 0.1054
vn -0.9129 -0.3651 -0.1826
vn -0.9129 0.3651 -0.1826
vn -0.7715 0.6172 -0.1543
vn -0.9129 -0.3651 0.1826
vn -0.9129 0.3651 0.1826
vn -0.7715 0.6172 0.1543
vn -0.6202 -0.2481 0.7442
vn -0.6202 0.2481 0.7442
vn -0.5698 0.4558 0.6838
vn -0.6202 -0.2481 -0.7442
vn -0.6202 0.2481 -0.7442
vn -0.5698 0.4558 -0.6838
vn 0.9129 0.3651 0.1826
vn 0.9129 -0.3651 0.1826
vn 0.7715 -0.6172 0.1543
vn 0.9129 0.3651 -0.1826
vn 0.9129 -0.3651 -0.1826
vn 0.7715 -0.6172 -0.1543
vn 0.6202 0.2481 -0.7442
vn 0.6202 -0.2481 -0.7442
vn 0.5698 -0.4558 -0.6838
vn 0.6202 0.2481 0.7442
vn 0.6202 -0.2481 0.7442
vn 0.5698 -0.4558 0.6838
vn -0.4472 0.7155 0.5367
vn 0.4472 -0.7155 -0.5367
vn 1.0000 -0.0000 -0.0000
vn -1.0000 -0.0000 -0.0000
vn -0.4472 -0.7155 -0.5367
vn 0.4472 0.7155 0.5367
vn 0.5270 0.8433 -0.1054
vn 0.5270 0.8433 0.1054
vn -0.5270 -0.8433 0.1054
vn -0.5270 -0.8433 -0.1054
vn 0.7715 0.6172 0.1543
vn 0.7715 0.6172 -0.1543
vn 0.5698 0.4558 -0.6838
vn 0.5698 0.4558 0.6838
vn -0.7715 -0.6172 -0.1543
vn -0.7715 -0.6172 0.1543
vn -0.5698 -0.4558 0.6838
vn -0.5698 -0.4558 -0.6838
vn 0.4472 0.7155 -0.5367
vn -0.4472 -0.7155 0.5367
vn -0.5367 -0.7155 0.4472
vn 0.5367 0.7155 -0.4472
vn -0.1054 0.8433 -0.5270
vn 0.1054 0.8433 -0.5270
vn 0.1054 -0.8433 0.5270
vn -0.1054 -0.8433 0.5270
vn 0.1826 -0.3651 -0.9129
vn 0.1826 0.3651 -0.9129
vn 0.1543 0.6172 -0.7715
vn -0.1826 -0.3651 -0.9129
vn -0.1826 0.3651 -0.9129
vn -0.1543 0.6172 -0.7715
vn -0.7442 -0.2481 -0.6202
vn -0.7442 0.2481 -0.6202
vn -0.6838 0.4558 -0.5698
vn 0.7442 -0.2481 -0.6202
vn 0.7442 0.2481 -0.6202
vn 0.6838 0.4558 -0.5698
vn -0.1826 0.3651 0.9129
vn -0.1826 -0.3651 0.9129
vn -0.1543 -0.6172 0.7715
vn 0.1826 0.3651 0.9129
vn 0.1826 -0.3651 0.9129
vn 0.1543 -0.6172 0.7715
vn 0.7442 0.2481 0.6202
vn 0.7442 -0.2481 0.6202
vn 0.6838 -0.4558 0.5698
vn -0.7442 0.2481 0.6202
vn -0.7442 -0.2481 0.6202
vn -0.6838 -0.4558 0.5698
vn -0.5367 0.7155 -0.4472
vn 0.5367 -0.7155 0.4472
vn 0.5367 -0.7155 -0.4472
vn -0.5367 0.7155 0.4472
vn 0.1054 0.8433 0.5270
vn -0.1054 0.8433 0.5270
vn -0.1054 -0.8433 -0.5270
vn 0.1054 -0.8433 -0.5270
vn -0.1543 0.6172 0.7715
vn 0.1543 0.6172 0.7715
vn 0.6838 0.4558 0.5698
vn -0.6838 0.4558 0.5698
vn 0.1543 -0.6172 -0.7715
vn -0.1543 -0.6172 -0.7715
vn -0.6838 -0.4558 -0.5698
vn 0.6838 -0.4558 -0.5698
vn 0.5367 0.7155 0.4472
vn -0.5367 -0.7155 -0.4472
vn 0.0994 0.9941 0.0426
vn 0.0426 0.9941 -0.0994
vn -0.0426 0.9941 -0.0994
vn -0.0994 0.9941 0.0426
vn 0.0426 0.9941 0.0994
vn 0.0994 0.9941 -0.0426
vn -0.0994 0.9941 -0.0426
vn -0.0426 0.9941 0.0994
vn -0.7071 -0.0000 0.7071
vn 0.7071 -0.0000 -0.7071
vn 0.7071 -0.0000 0.7071
vn -0.7071 -0.0000 -0.7071
vt 0.023438 0.500000
vt 0.976562 0.500000
vt 0.023438 1.000000
vt 0.976562 1.000000
vt 0.023438 0.500000
vt 0.976562 0.500000
vt 0.023438 1.000000
vt 0.976562 1.000000
vt 0.023438 0.000000
vt 0.976562 0.000000
vt 0.023438 0.000000
vt 0.976562 0.000000
vt 0.257812 0.000000
vt 0.500000 0.000000
vt 0.742188 0.000000
vt 0.742188 0.500000
vt 0.500000 0.500000
vt 0.257812 0.500000
vt 0.742188 0.000000
vt 0.500000 0.000000
vt 0.257812 0.000000
vt 0.257812 0.500000
vt 0.500000 0.500000
vt 0.742188 0.500000
vt 0.023438 0.375000
vt 0.023438 0.250000
vt 0.023438 0.125000
vt 0.976562 0.125000
vt 0.976562 0.250000
vt 0.976562 0.375000
vt 0.257812 0.375000
vt 0.257812 0.250000
vt 0.257812 0.125000
vt 0.500000 0.375000
vt 0.500000 0.250000
vt 0.500000 0.125000
vt 0.742188 0.375000
vt 0.742188 0.250000
vt 0.742188 0.125000
vt 0.023438 0.125000
vt 0.023438 0.250000
vt 0.023438 0.375000
vt 0.976562 0.375000
vt 0.976562 0.250000
vt 0.976562 0.125000
vt 0.257812 0.125000
vt 0.257812 0.250000
vt 0.257812 0.375000
vt 0.500000 0.125000
vt 0.500000 0.250000
vt 0.500000 0.375000
vt 0.742188 0.125000
vt 0.742188 0.250000
vt 0.742188 0.375000
vt 0.023438 0.500000
vt 0.976562 0.500000
vt 0.023438 1.000000
vt 0.976562 1.000000
vt 0.023438 0.500000
vt 0.976562 0.500000
vt 0.023438 1.000000
vt 0.976562 1.000000
vt 0.023438 0.000000
vt 0.976562 0.000000
vt 0.023438 0.000000
vt 0.976562 0.000000
vt 0.257812 0.000000
vt 0.500000 0.000000
vt 0.742188 0.000000
vt 0.742188 0.500000
vt 0.500000 0.500000
vt 0.257812 0.500000
vt 0.742188 0.000000
vt 0.500000 0.000000
vt 0.257812 0.000000
vt 0.257812 0.500000
vt 0.500000 0.500000
vt 0.742188 0.500000
vt 0.023438 0.375000
vt 0.023438 0.250000
vt 0.023438 0.125000
vt 0.976562 0.125000
vt 0.976562 0.250000
vt 0.976562 0.375000
vt 0.257812 0.375000
vt 0.257812 0.250000
vt 0.257812 0.125000
vt 0.500000 0.375000
vt 0.500000 0.250000
vt 0.500000 0.125000
vt 0.742188 0.375000
vt 0.742188 0.250000
vt 0.742188 0.125000
vt 0.023438 0.125000
vt 0.023438 0.250000
vt 0.023438 0.375000
vt 0.976562 0.375000
vt 0.976562 0.250000
vt 0.976562 0.125000
vt 0.257812 0.125000
vt 0.257812 0.250000
vt 0.257812 0.375000
vt 0.500000 0.125000
vt 0.500000 0.250000
vt 0.500000 0.375000
vt 0.742188 0.125000
vt 0.742188 0.250000
vt 0.742188 0.375000
vt 0.023438 0.000000
vt 0.976562 0.000000
vt 0.023438 0.000000
vt 0.976562 0.000000
vt 0.257812 0.000000
vt 0.500000 0.000000
vt 0.742188 0.000000
vt 0.742188 0.500000
vt 0.500000 0.500000
vt 0.257812 0.500000
vt 0.742188 0.000000
vt 0.500000 0.000000
vt 0.257812 0.000000
vt 0.257812 0.500000
vt 0.500000 0.500000
vt 0.742188 0.500000
vt 0.023438 0.375000
vt 0.023438 0.250000
vt 0.023438 0.125000
vt 0.976562 0.125000
vt 0.976562 0.250000
vt 0.976562 0.375000
vt 0.257812 0.375000
vt 0.257812 0.250000
vt 0.257812 0.125000
vt 0.500000 0.375000
vt 0.500000 0.250000
vt 0.500000 0.125000
vt 0.742188 0.375000
vt 0.742188 0.250000
vt 0.742188 0.125000
vt 0.023438 0.125000
vt 0.023438 0.250000
vt 0.023438 0.375000
vt 0.976562 0.375000
vt 0.976562 0.250000
vt 0.976562 0.125000
vt 0.257812 0.125000
vt 0.257812 0.250000
vt 0.257812 0.375000
vt 0.500000 0.125000
vt 0.500000 0.250000
vt 0.500000 0.375000
vt 0.742188 0.125000
vt 0.742188 0.250000
vt 0.742188 0.375000
vt 0.023438 0.000000
vt 0.976562 0.000000
vt 0.023438 0.000000
vt 0.976562 0.000000
vt 0.257812 0.000000
vt 0.500000 0.000000
vt 0.742188 0.000000
vt 0.742188 0.500000
vt 0.500000 0.500000
vt 0.257812 0.500000
vt 0.742188 0.000000
vt 0.500000 0.000000
vt 0.257812 0.000000
vt 0.257812 0.500000
vt 0.500000 0.500000
vt 0.742188 0.500000
vt 0.023438 0.375000
vt 0.023438 0.250000
vt 0.023438 0.125000
vt 0.976562 0.125000
vt 0.976562 0.250000
vt 0.976562 0.375000
vt 0.257812 0.375000
vt 0.257812 0.250000
vt 0.257812 0.125000
vt 0.500000 0.375000
vt 0.500000 0.250000
vt 0.500000 0.125000
vt 0.742188 0.375000
vt 0.742188 0.250000
vt 0.742188 0.125000
vt 0.023438 0.125000
vt 0.023438 0.250000
vt 0.023438 0.375000
vt 0.976562 0.375000
vt 0.976562 0.250000
vt 0.976562 0.125000
vt 0.257812 0.125000
vt 0.257812 0.250000
vt 0.257812 0.375000
vt 0.500000 0.125000
vt 0.500000 0.250000
vt 0.500000 0.375000
vt 0.742188 0.125000
vt 0.742188 0.250000
vt 0.742188 0.375000
vt 0.367188 0.101562
vt 0.632812 0.101562
vt 0.367188 0.398438
vt 0.632812 0.398438
vt 0.367188 0.250000
vt 0.500000 0.101562
vt 0.632812 0.250000
vt 0.500000 0.398438
vt 0.500000 0.250000
vt 0.023438 0.500000
vt 0.976562 0.500000
vt 0.023438 1.000000
vt 0.976562 1.000000
vt 0.023438 0.500000
vt 0.976562 0.500000
vt 0.023438 1.000000
vt 0.976562 1.000000
vt 0.023438 0.500000
vt 0.976562 0.500000
vt 0.023438 1.000000
vt 0.976562 1.000000
vt 0.023438 0.500000
vt 0.976562 0.500000
vt 0.023438 1.000000
vt 0.976562 1.000000
s 0
f 2/2/1 3/3/1 1/1/1
f 7/7/2 6/6/2 5/5/2
f 54/54/3 43/43/3 24/24/3
f 37/37/4 16/16/4 30/30/4
f 31/31/5 17/17/5 34/34/5
f 17/17/6 37/37/6 34/34/6
f 48/48/7 23/23/7 22/22/7
f 54/54/8 23/23/8 51/51/8
f 14/14/9 39/39/9 15/15/9
f 35/35/10 39/39/10 36/36/10
f 34/34/11 38/38/11 35/35/11
f 33/33/12 14/14/12 13/13/12
f 33/33/13 35/35/13 36/36/13
f 32/32/14 34/34/14 35/35/14
f 27/27/15 13/13/15 11/11/15
f 27/27/16 32/32/16 33/33/16
f 26/26/17 31/31/17 32/32/17
f 15/15/18 28/28/18 12/12/18
f 38/38/19 28/28/19 39/39/19
f 37/37/20 29/29/20 38/38/20
f 20/20/21 52/52/21 49/49/21
f 52/52/22 50/50/22 49/49/22
f 53/53/23 51/51/23 50/50/23
f 20/20/24 46/46/24 21/21/24
f 46/46/25 50/50/25 47/47/25
f 47/47/26 51/51/26 48/48/26
f 21/21/27 40/40/27 9/9/27
f 40/40/28 47/47/28 41/41/28
f 41/41/29 48/48/29 42/42/29
f 19/19/30 45/45/30 52/52/30
f 45/45/31 53/53/31 52/52/31
f 44/44/32 54/54/32 53/53/32
f 18/18/33 31/31/33 25/25/33
f 22/22/34 42/42/34 48/48/34
f 56/56/35 57/57/35 55/55/35
f 61/61/36 60/60/36 59/59/36
f 108/108/37 97/97/37 78/78/37
f 91/91/38 70/70/38 84/84/38
f 85/85/39 71/71/39 88/88/39
f 71/71/40 91/91/40 88/88/40
f 102/102/41 77/77/41 76/76/41
f 108/108/42 77/77/42 105/105/42
f 68/68/22 93/93/22 69/69/22
f 89/89/21 93/93/21 90/90/21
f 88/88/43 92/92/43 89/89/43
f 87/87/25 68/68/25 67/67/25
f 87/87/24 89/89/24 90/90/24
f 86/86/44 88/88/44 89/89/44
f 81/81/28 67/67/28 65/65/28
f 81/81/27 86/86/27 87/87/27
f 80/80/45 85/85/45 86/86/45
f 69/69/31 82/82/31 66/66/31
f 92/92/30 82/82/30 93/93/30
f 91/91/46 83/83/46 92/92/46
f 74/74/10 106/106/10 103/103/10
f 106/106/9 104/104/9 103/103/9
f 107/107/47 105/105/47 104/104/47
f 74/74/13 100/100/13 75/75/13
f 100/100/12 104/104/12 101/101/12
f 101/101/48 105/105/48 102/102/48
f 75/75/16 94/94/16 63/63/16
f 94/94/15 101/101/15 95/95/15
f 95/95/49 102/102/49 96/96/49
f 73/73/19 99/99/19 106/106/19
f 99/99/18 107/107/18 106/106/18
f 98/98/50 108/108/50 107/107/50
f 72/72/51 85/85/51 79/79/51
f 76/76/52 96/96/52 102/102/52
f 154/154/53 143/143/53 124/124/53
f 137/137/54 116/116/54 130/130/54
f 131/131/55 117/117/55 134/134/55
f 117/117/56 137/137/56 134/134/56
f 148/148/57 123/123/57 122/122/57
f 154/154/58 123/123/58 151/151/58
f 114/114/59 139/139/59 115/115/59
f 135/135/60 139/139/60 136/136/60
f 134/134/61 138/138/61 135/135/61
f 133/133/62 114/114/62 113/113/62
f 133/133/63 135/135/63 136/136/63
f 132/132/64 134/134/64 135/135/64
f 127/127/65 113/113/65 111/111/65
f 127/127/66 132/132/66 133/133/66
f 126/126/67 131/131/67 132/132/67
f 115/115/68 128/128/68 112/112/68
f 138/138/69 128/128/69 139/139/69
f 137/137/70 129/129/70 138/138/70
f 120/120/71 152/152/71 149/149/71
f 152/152/72 150/150/72 149/149/72
f 153/153/73 151/151/73 150/150/73
f 120/120/74 146/146/74 121/121/74
f 146/146/75 150/150/75 147/147/75
f 147/147/76 151/151/76 148/148/76
f 121/121/77 140/140/77 109/109/77
f 140/140/78 147/147/78 141/141/78
f 141/141/79 148/148/79 142/142/79
f 119/119/80 145/145/80 152/152/80
f 145/145/81 153/153/81 152/152/81
f 144/144/82 154/154/82 153/153/82
f 118/118/83 131/131/83 125/125/83
f 122/122/84 142/142/84 148/148/84
f 200/200/85 189/189/85 170/170/85
f 183/183/86 162/162/86 176/176/86
f 177/177/87 163/163/87 180/180/87
f 163/163/88 183/183/88 180/180/88
f 194/194/89 169/169/89 168/168/89
f 200/200/90 169/169/90 197/197/90
f 160/160/72 185/185/72 161/161/72
f 181/181/71 185/185/71 182/182/71
f 180/180/91 184/184/91 181/181/91
f 179/179/75 160/160/75 159/159/75
f 179/179/74 181/181/74 182/182/74
f 178/178/92 180/180/92 181/181/92
f 173/173/78 159/159/78 157/157/78
f 173/173/77 178/178/77 179/179/77
f 172/172/93 177/177/93 178/178/93
f 161/161/81 174/174/81 158/158/81
f 184/184/80 174/174/80 185/185/80
f 183/183/94 175/175/94 184/184/94
f 166/166/60 198/198/60 195/195/60
f 198/198/59 196/196/59 195/195/59
f 199/199/95 197/197/95 196/196/95
f 166/166/63 192/192/63 167/167/63
f 192/192/62 196/196/62 193/193/62
f 193/193/96 197/197/96 194/194/96
f 167/167/66 186/186/66 155/155/66
f 186/186/65 193/193/65 187/187/65
f 187/187/97 194/194/97 188/188/97
f 165/165/69 191/191/69 198/198/69
f 191/191/68 199/199/68 198/198/68
f 190/190/98 200/200/98 199/199/98
f 164/164/99 177/177/99 171/171/99
f 168/168/100 188/188/100 194/194/100
f 209/209/101 204/204/101 207/207/101
f 209/209/102 202/202/102 206/206/102
f 201/201/103 209/209/103 206/206/103
f 203/203/104 209/209/104 205/205/104
f 2/2/1 4/4/1 3/3/1
f 7/7/2 8/8/2 6/6/2
f 31/31/5 18/18/5 17/17/5
f 17/17/6 16/16/6 37/37/6
f 48/48/7 51/51/7 23/23/7
f 54/54/8 24/24/8 23/23/8
f 14/14/9 36/36/9 39/39/9
f 35/35/10 38/38/10 39/39/10
f 34/34/11 37/37/11 38/38/11
f 33/33/12 36/36/12 14/14/12
f 33/33/13 32/32/13 35/35/13
f 32/32/14 31/31/14 34/34/14
f 27/27/15 33/33/15 13/13/15
f 27/27/16 26/26/16 32/32/16
f 26/26/17 25/25/17 31/31/17
f 15/15/18 39/39/18 28/28/18
f 38/38/19 29/29/19 28/28/19
f 37/37/20 30/30/20 29/29/20
f 20/20/21 19/19/21 52/52/21
f 52/52/22 53/53/22 50/50/22
f 53/53/23 54/54/23 51/51/23
f 20/20/24 49/49/24 46/46/24
f 46/46/25 49/49/25 50/50/25
f 47/47/26 50/50/26 51/51/26
f 21/21/27 46/46/27 40/40/27
f 40/40/28 46/46/28 47/47/28
f 41/41/29 47/47/29 48/48/29
f 19/19/30 10/10/30 45/45/30
f 45/45/31 44/44/31 53/53/31
f 44/44/32 43/43/32 54/54/32
f 56/56/35 58/58/35 57/57/35
f 61/61/36 62/62/36 60/60/36
f 85/85/39 72/72/39 71/71/39
f 71/71/40 70/70/40 91/91/40
f 102/102/41 105/105/41 77/77/41
f 108/108/42 78/78/42 77/77/42
f 68/68/22 90/90/22 93/93/22
f 89/89/21 92/92/21 93/93/21
f 88/88/43 91/91/43 92/92/43
f 87/87/25 90/90/25 68/68/25
f 87/87/24 86/86/24 89/89/24
f 86/86/44 85/85/44 88/88/44
f 81/81/28 87/87/28 67/67/28
f 81/81/27 80/80/27 86/86/27
f 80/80/45 79/79/45 85/85/45
f 69/69/31 93/93/31 82/82/31
f 92/92/30 83/83/30 82/82/30
f 91/91/46 84/84/46 83/83/46
f 74/74/10 73/73/10 106/106/10
f 106/106/9 107/107/9 104/104/9
f 107/107/47 108/108/47 105/105/47
f 74/74/13 103/103/13 100/100/13
f 100/100/12 103/103/12 104/104/12
f 101/101/48 104/104/48 105/105/48
f 75/75/16 100/100/16 94/94/16
f 94/94/15 100/100/15 101/101/15
f 95/95/49 101/101/49 102/102/49
f 73/73/19 64/64/19 99/99/19
f 99/99/18 98/98/18 107/107/18
f 98/98/50 97/97/50 108/108/50
f 131/131/55 118/118/55 117/117/55
f 117/117/56 116/116/56 137/137/56
f 148/148/57 151/151/57 123/123/57
f 154/154/58 124/124/58 123/123/58
f 114/114/59 136/136/59 139/139/59
f 135/135/60 138/138/60 139/139/60
f 134/134/61 137/137/61 138/138/61
f 133/133/62 136/136/62 114/114/62
f 133/133/63 132/132/63 135/135/63
f 132/132/64 131/131/64 134/134/64
f 127/127/65 133/133/65 113/113/65
f 127/127/66 126/126/66 132/132/66
f 126/126/67 125/125/67 131/131/67
f 115/115/68 139/139/68 128/128/68
f 138/138/69 129/129/69 128/128/69
f 137/137/70 130/130/70 129/129/70
f 120/120/71 119/119/71 152/152/71
f 152/152/72 153/153/72 150/150/72
f 153/153/73 154/154/73 151/151/73
f 120/120/74 149/149/74 146/146/74
f 146/146/75 149/149/75 150/150/75
f 147/147/76 150/150/76 151/151/76
f 121/121/77 146/146/77 140/140/77
f 140/140/78 146/146/78 147/147/78
f 141/141/79 147/147/79 148/148/79
f 119/119/80 110/110/80 145/145/80
f 145/145/81 144/144/81 153/153/81
f 144/144/82 143/143/82 154/154/82
f 177/177/87 164/164/87 163/163/87
f 163/163/88 162/162/88 183/183/88
f 194/194/89 197/197/89 169/169/89
f 200/200/90 170/170/90 169/169/90
f 160/160/72 182/182/72 185/185/72
f 181/181/71 184/184/71 185/185/71
f 180/180/91 183/183/91 184/184/91
f 179/179/75 182/182/75 160/160/75
f 179/179/74 178/178/74 181/181/74
f 178/178/92 177/177/92 180/180/92
f 173/173/78 179/179/78 159/159/78
f 173/173/77 172/172/77 178/178/77
f 172/172/93 171/171/93 177/177/93
f 161/161/81 185/185/81 174/174/81
f 184/184/80 175/175/80 174/174/80
f 183/183/94 176/176/94 175/175/94
f 166/166/60 165/165/60 198/198/60
f 198/198/59 199/199/59 196/196/59
f 199/199/95 200/200/95 197/197/95
f 166/166/63 195/195/63 192/192/63
f 192/192/62 195/195/62 196/196/62
f 193/193/96 196/196/96 197/197/96
f 167/167/66 192/192/66 186/186/66
f 186/186/65 192/192/65 193/193/65
f 187/187/97 193/193/97 194/194/97
f 165/165/69 156/156/69 191/191/69
f 191/191/68 190/190/68 199/199/68
f 190/190/98 189/189/98 200/200/98
f 209/209/105 208/208/105 204/204/105
f 209/209/106 207/207/106 202/202/106
f 201/201/107 205/205/107 209/209/107
f 203/203/108 208/208/108 209/209/108
f 211/211/109 212/212/109 210/210/109
f 216/216/110 215/215/110 214/214/110
f 219/219/111 220/220/111 218/218/111
f 224/224/112 223/223/112 222/222/112
f 211/211/109 213/213/109 212/212/109
f 216/216/110 217/217/110 215/215/110
f 219/219/111 221/221/111 220/220/111
f 224/224/112 225/225/112 223/223/112
