# Blender 3.1.0
# www.blender.org
o bush3
v 0.500000 0.000000 -0.010000
v -0.040000 0.000000 0.500000
v -0.040000 0.000000 -0.500000
v 0.395185 0.750000 0.173852
v 0.396659 0.750000 0.192673
v 0.250000 0.896658 0.192673
v 0.125000 1.000000 0.160000
v 0.500000 0.625000 0.160000
v 0.500000 -0.000000 -0.030000
v 0.346482 0.000000 0.360624
v -0.360624 1.000000 -0.346482
v -0.346482 0.000000 -0.360625
v 0.360624 0.000000 0.346482
v 0.346482 -0.000000 -0.360624
v 0.346482 1.000000 -0.360625
v 0.360624 0.000000 -0.346482
v -0.346482 1.000000 0.360624
v -0.360624 -0.000000 -0.346482
v 0.346482 1.000000 0.360624
v -0.346482 1.000000 -0.360625
v 0.360624 1.000000 0.346482
v -0.360624 0.000000 0.346482
v -0.360624 1.000000 0.346482
v -0.346482 0.000000 0.360624
v 0.360624 1.000000 -0.346482
v -0.020000 0.000000 0.500000
v -0.020000 0.000000 -0.500000
v 0.159158 0.750000 0.413552
v -0.188029 0.750000 0.402464
v -0.160000 1.000000 0.125000
v 0.210000 0.250000 0.500000
v 0.210000 0.500000 0.500000
v 0.056939 1.000000 0.291326
v -0.188028 0.902464 0.250000
v 0.210000 0.500000 -0.500000
v 0.210000 0.250000 -0.500000
v 0.190000 0.500000 0.500000
v 0.190000 0.250000 0.500000
v 0.190000 0.250000 -0.500000
v 0.190000 0.500000 -0.500000
v -0.140000 0.625000 0.500000
v 0.210000 0.000000 -0.250000
v 0.310000 0.000000 0.000000
v 0.210000 0.000000 0.250000
v 0.110000 1.000000 0.250000
v 0.210000 1.000000 0.000000
v -0.140000 1.000000 0.125000
v 0.410000 0.250000 -0.250000
v 0.510000 0.250000 0.000000
v 0.410000 0.250000 0.250000
v 0.410000 0.500000 -0.250000
v 0.510000 0.500000 0.000000
v 0.410000 0.500000 0.250000
v 0.310000 0.750000 -0.250000
v 0.410000 0.750000 0.000000
v 0.310000 0.750000 0.250000
v 0.190000 0.000000 0.250000
v 0.290000 0.000000 0.000000
v 0.190000 0.000000 -0.250000
v -0.160000 0.625000 0.500000
v 0.190000 1.000000 0.000000
v 0.090000 1.000000 0.250000
v 0.390000 0.250000 0.250000
v 0.490000 0.250000 0.000000
v 0.390000 0.250000 -0.250000
v 0.390000 0.500000 0.250000
v 0.490000 0.500000 0.000000
v 0.390000 0.500000 -0.250000
v 0.290000 0.750000 0.250000
v 0.390000 0.750000 0.000000
v 0.290000 0.750000 -0.250000
v -0.500000 -0.000000 -0.010000
v -0.298352 1.000000 0.051318
v 0.250000 0.896671 0.172663
v -0.500000 0.000000 -0.030000
v -0.500000 0.250000 0.210000
v -0.500000 0.500000 0.210000
v -0.414824 0.750000 0.158141
v 0.125000 1.000000 0.140000
v 0.500000 0.500000 0.210000
v 0.500000 0.250000 0.210000
v -0.500000 0.500000 0.190000
v -0.500000 0.250000 0.190000
v 0.500000 0.250000 0.190000
v 0.500000 0.500000 0.190000
v 0.250000 -0.000000 0.210000
v 0.000000 0.000000 0.310000
v -0.250000 -0.000000 0.210000
v -0.250000 1.000000 0.110000
v 0.000000 1.000000 0.210000
v 0.500000 0.625000 0.140000
v 0.250000 0.250000 0.410000
v 0.000000 0.250000 0.510000
v -0.250000 0.250000 0.410000
v 0.250000 0.500000 0.410000
v 0.000000 0.500000 0.510000
v -0.250000 0.500000 0.410000
v 0.250000 0.750000 0.310000
v 0.000000 0.750000 0.410000
v -0.250000 0.750000 0.310000
v -0.250000 -0.000000 0.190000
v 0.000000 0.000000 0.290000
v 0.250000 -0.000000 0.190000
v 0.000000 1.000000 0.190000
v -0.250000 1.000000 0.090000
v -0.250000 0.250000 0.390000
v 0.000000 0.250000 0.490000
v 0.250000 0.250000 0.390000
v -0.250000 0.500000 0.390000
v 0.000000 0.500000 0.490000
v 0.250000 0.500000 0.390000
v -0.250000 0.750000 0.290000
v 0.000000 0.750000 0.390000
v 0.250000 0.750000 0.290000
v -0.010000 0.000000 0.500000
v -0.010000 1.000000 -0.500000
v -0.010000 1.000000 0.500000
v 0.010000 1.000000 -0.500000
v -0.010000 -0.000000 -0.500000
v 0.010000 1.000000 0.500000
v 0.010000 0.000000 0.500000
v 0.010000 -0.000000 -0.500000
v 0.500000 -0.000000 0.010000
v -0.500000 1.000000 0.010000
v 0.500000 1.000000 0.010000
v -0.500000 1.000000 -0.010000
v 0.500000 1.000000 -0.010000
v 0.500000 0.000000 -0.010000
v -0.500000 -0.000000 0.010000
v -0.500000 0.000000 -0.010000
v 0.500000 0.000000 0.010000
v -0.125000 1.000000 -0.160000
v 0.500000 0.250000 -0.210000
v 0.500000 0.500000 -0.210000
v -0.500000 0.625000 -0.160000
v -0.500000 0.500000 -0.210000
v -0.500000 0.250000 -0.210000
v -0.250000 -0.000000 -0.210000
v 0.000000 0.000000 -0.310000
v 0.250000 0.000000 -0.210000
v 0.250000 1.000000 -0.110000
v 0.000000 1.000000 -0.210000
v -0.250000 0.250000 -0.410000
v 0.000000 0.250000 -0.510000
v 0.250000 0.250000 -0.410000
v -0.250000 0.500000 -0.410000
v 0.000000 0.500000 -0.510000
v 0.250000 0.500000 -0.410000
v -0.250000 0.750000 -0.310000
v 0.000000 0.750000 -0.410000
v 0.250000 0.750000 -0.310000
v -0.500000 0.000000 0.010000
v 0.500000 0.000000 0.030000
v -0.500000 0.625000 -0.140000
v -0.125000 1.000000 -0.140000
v 0.500000 0.500000 -0.190000
v 0.500000 0.250000 -0.190000
v -0.500000 0.250000 -0.190000
v -0.500000 0.500000 -0.190000
v 0.250000 0.000000 -0.190000
v 0.000000 0.000000 -0.290000
v -0.250000 0.000000 -0.190000
v 0.000000 1.000000 -0.190000
v 0.250000 1.000000 -0.090000
v 0.250000 0.250000 -0.390000
v 0.000000 0.250000 -0.490000
v -0.250000 0.250000 -0.390000
v 0.250000 0.500000 -0.390000
v 0.000000 0.500000 -0.490000
v -0.250000 0.500000 -0.390000
v 0.250000 0.750000 -0.290000
v 0.000000 0.750000 -0.390000
v -0.250000 0.750000 -0.290000
v -0.500000 -0.000000 0.030000
v 0.020000 0.000000 0.500000
v 0.020000 0.000000 -0.500000
v -0.210000 0.250000 -0.500000
v -0.210000 0.500000 -0.500000
v -0.170738 0.750000 -0.424077
v -0.210000 0.500000 0.500000
v -0.210000 0.250000 0.500000
v -0.190000 0.500000 -0.500000
v -0.190000 0.250000 -0.500000
v -0.190000 0.250000 0.500000
v -0.190000 0.500000 0.500000
v -0.059898 1.000000 -0.312628
v -0.210000 0.000000 0.250000
v -0.310000 0.000000 0.000000
v -0.210000 0.000000 -0.250000
v -0.110000 1.000000 -0.250000
v -0.210000 1.000000 -0.000000
v -0.040573 1.000000 -0.311784
v -0.410000 0.250000 0.250000
v -0.510000 0.250000 0.000000
v -0.410000 0.250000 -0.250000
v -0.410000 0.500000 0.250000
v -0.510000 0.500000 -0.000000
v -0.410000 0.500000 -0.250000
v -0.310000 0.750000 0.250000
v -0.410000 0.750000 0.000000
v -0.310000 0.750000 -0.250000
v -0.190000 0.000000 -0.250000
v -0.290000 0.000000 0.000000
v -0.190000 0.000000 0.250000
v -0.153870 0.750000 -0.420163
v -0.190000 1.000000 0.000000
v -0.090000 1.000000 -0.250000
v -0.390000 0.250000 -0.250000
v -0.490000 0.250000 0.000000
v -0.390000 0.250000 0.250000
v -0.390000 0.500000 -0.250000
v -0.490000 0.500000 -0.000000
v -0.390000 0.500000 0.250000
v -0.290000 0.750000 -0.250000
v -0.390000 0.750000 0.000000
v -0.290000 0.750000 0.250000
v 0.040000 0.000000 0.500000
v 0.040000 0.000000 -0.500000
v -0.422135 0.750000 0.172292
v -0.305068 1.000000 0.065945
v 0.414670 0.750000 -0.178264
v 0.300973 1.000000 -0.069221
v 0.301645 1.000000 -0.048684
v 0.404429 0.750000 -0.166457
v 0.146453 0.750000 0.331419
v -0.250000 0.881694 -0.184644
v 0.144694 0.983720 0.145146
v -0.381695 0.750000 -0.184644
v -0.250000 0.890827 -0.197339
v -0.388205 0.750000 -0.199436
v 0.170481 0.750000 0.424398
v 0.072033 1.000000 0.297458
v 0.160000 0.625000 -0.500000
v 0.140000 0.625000 -0.500000
v 0.160000 1.000000 -0.125000
v 0.140000 1.000000 -0.125000
v 0.188748 0.901564 -0.250000
v 0.188748 0.750000 -0.401565
v 0.174551 0.750000 -0.394311
v 0.174283 0.894646 -0.250000
v -0.176195 0.892256 0.250000
v -0.175407 0.750000 0.393241
v 0.165758 0.890000 -0.155758
v -0.165758 0.890000 0.175758
v 0.165758 0.890000 0.175758
v -0.165758 0.890000 -0.155758
v 0.250000 0.890000 0.010000
v 0.000000 0.890000 0.260000
v -0.250000 0.890000 0.010000
v 0.000000 0.890000 -0.240000
v 0.000000 0.940000 0.010000
vn -0.7071 -0.0000 0.7071
vn 0.7071 -0.0000 -0.7071
vn -0.7071 -0.0000 -0.7071
vn 0.7071 -0.0000 0.7071
vn 0.6623 0.5298 -0.5298
vn -0.6623 -0.5298 0.5298
vn 0.6351 -0.5462 -0.5462
vn 0.7809 -0.0000 -0.6247
vn 0.7454 0.2981 -0.5963
vn -0.6351 0.5462 0.5462
vn -0.7809 -0.0000 0.6247
vn -0.7454 -0.2981 0.5963
vn 0.7454 0.2981 0.5963
vn 0.8704 0.3482 0.3482
vn 0.8704 0.3482 -0.3482
vn 0.7809 -0.0000 0.6247
vn 0.9285 -0.0000 0.3714
vn 0.9285 -0.0000 -0.3714
vn 0.6351 -0.5462 0.5462
vn 0.7454 -0.5963 0.2981
vn 0.7454 -0.5963 -0.2981
vn -0.6623 -0.5298 -0.5298
vn 0.7454 0.5963 0.2981
vn 0.7454 0.5963 -0.2981
vn -0.7454 -0.2981 -0.5963
vn -0.8704 -0.3482 -0.3482
vn -0.8704 -0.3482 0.3482
vn -0.7809 -0.0000 -0.6247
vn -0.9285 -0.0000 -0.3714
vn -0.9285 -0.0000 0.3714
vn -0.6351 0.5462 -0.5462
vn -0.7454 0.5963 -0.2981
vn -0.7454 0.5963 0.2981
vn -0.7454 -0.5963 -0.2981
vn -0.7454 -0.5963 0.2981
vn 0.5298 0.5298 0.6623
vn -0.5298 -0.5298 -0.6623
vn 0.5410 -0.5410 0.6440
vn 0.6247 -0.0000 0.7809
vn 0.5963 0.2981 0.7454
vn -0.5410 0.5410 -0.6440
vn -0.6247 -0.0000 -0.7809
vn -0.5963 -0.2981 -0.7454
vn -0.5963 0.2981 0.7454
vn -0.3482 0.3482 0.8704
vn 0.3482 0.3482 0.8704
vn -0.6247 -0.0000 0.7809
vn -0.3714 -0.0000 0.9285
vn 0.3714 -0.0000 0.9285
vn -0.5410 -0.5410 0.6440
vn -0.2981 -0.5963 0.7454
vn 0.2981 -0.5963 0.7454
vn 0.5298 -0.5298 -0.6623
vn -0.2981 0.5963 0.7454
vn 0.2981 0.5963 0.7454
vn 0.5963 -0.2981 -0.7454
vn 0.3482 -0.3482 -0.8704
vn -0.3482 -0.3482 -0.8704
vn 0.6247 -0.0000 -0.7809
vn 0.3714 -0.0000 -0.9285
vn -0.3714 -0.0000 -0.9285
vn 0.5410 0.5410 -0.6440
vn 0.2981 0.5963 -0.7454
vn -0.2981 0.5963 -0.7454
vn 0.2981 -0.5963 -0.7454
vn -0.2981 -0.5963 -0.7454
vn -1.0000 -0.0000 -0.0000
vn 1.0000 -0.0000 -0.0000
vn -0.0000 -0.0000 1.0000
vn -0.0000 -0.0000 -1.0000
vn -0.5298 0.5298 -0.6623
vn -0.5410 -0.5410 -0.6440
vn -0.5963 0.2981 -0.7454
vn 0.5963 0.2981 -0.7454
vn 0.3482 0.3482 -0.8704
vn -0.3482 0.3482 -0.8704
vn 0.5410 -0.5410 -0.6440
vn 0.5298 -0.5298 0.6623
vn 0.5410 0.5410 0.6440
vn 0.5963 -0.2981 0.7454
vn -0.5963 -0.2981 0.7454
vn -0.3482 -0.3482 0.8704
vn 0.3482 -0.3482 0.8704
vn -0.5410 0.5410 0.6440
vn -0.6623 0.5298 0.5298
vn 0.6623 -0.5298 -0.5298
vn -0.6351 -0.5462 0.5462
vn -0.7454 0.2981 0.5963
vn 0.6351 0.5462 -0.5462
vn 0.7454 -0.2981 -0.5963
vn -0.7454 0.2981 -0.5963
vn -0.8704 0.3482 -0.3482
vn -0.8704 0.3482 0.3482
vn -0.6351 -0.5462 -0.5462
vn 0.7454 -0.2981 0.5963
vn 0.8704 -0.3482 0.3482
vn 0.8704 -0.3482 -0.3482
vn 0.6351 0.5462 0.5462
vn -0.5298 0.5298 0.6623
vn 0.5298 0.5298 -0.6623
vn -0.5298 -0.5298 0.6623
vn 0.6623 0.5298 0.5298
vn 0.6623 -0.5298 0.5298
vn -0.6623 0.5298 -0.5298
vn 0.1475 0.9780 0.1475
vn 0.1475 0.9780 -0.1475
vn -0.1475 0.9780 -0.1475
vn -0.1475 0.9780 0.1475
vt 1.000000 0.500000
vt 0.500000 0.500000
vt 1.000000 0.500000
vt 0.947592 0.875000
vt 0.948329 0.875000
vt 0.875000 0.948329
vt 0.812500 1.000000
vt 1.000000 0.812500
vt 1.000000 0.500000
vt 0.500000 0.500000
vt 0.000000 1.000000
vt 0.000000 0.500000
vt 0.500000 0.500000
vt 0.000000 0.500000
vt 0.000000 1.000000
vt 0.000000 0.500000
vt 0.500000 1.000000
vt 0.000000 0.500000
vt 0.500000 1.000000
vt 0.000000 1.000000
vt 0.500000 1.000000
vt 0.500000 0.500000
vt 0.500000 1.000000
vt 0.500000 0.500000
vt 0.000000 1.000000
vt 0.500000 0.500000
vt 1.000000 0.500000
vt 0.543224 0.875000
vt 0.951232 0.875000
vt 0.812500 1.000000
vt 0.500000 0.625000
vt 0.500000 0.750000
vt 0.604337 1.000000
vt 0.875000 0.951232
vt 1.000000 0.750000
vt 1.000000 0.625000
vt 0.500000 0.750000
vt 0.500000 0.625000
vt 1.000000 0.625000
vt 1.000000 0.750000
vt 1.000000 0.812500
vt 0.875000 0.500000
vt 0.750000 0.500000
vt 0.625000 0.500000
vt 0.625000 1.000000
vt 0.750000 1.000000
vt 0.812500 1.000000
vt 0.875000 0.625000
vt 0.750000 0.625000
vt 0.625000 0.625000
vt 0.875000 0.750000
vt 0.750000 0.750000
vt 0.625000 0.750000
vt 0.875000 0.875000
vt 0.750000 0.875000
vt 0.625000 0.875000
vt 0.625000 0.500000
vt 0.750000 0.500000
vt 0.875000 0.500000
vt 1.000000 0.812500
vt 0.750000 1.000000
vt 0.625000 1.000000
vt 0.625000 0.625000
vt 0.750000 0.625000
vt 0.875000 0.625000
vt 0.625000 0.750000
vt 0.750000 0.750000
vt 0.875000 0.750000
vt 0.625000 0.875000
vt 0.750000 0.875000
vt 0.875000 0.875000
vt 0.500000 0.500000
vt 0.600824 1.000000
vt 0.875000 0.948335
vt 0.500000 0.500000
vt 0.500000 0.625000
vt 0.500000 0.750000
vt 0.542588 0.875000
vt 0.812500 1.000000
vt 1.000000 0.750000
vt 1.000000 0.625000
vt 0.500000 0.750000
vt 0.500000 0.625000
vt 1.000000 0.625000
vt 1.000000 0.750000
vt 0.875000 0.500000
vt 0.750000 0.500000
vt 0.625000 0.500000
vt 0.625000 1.000000
vt 0.750000 1.000000
vt 1.000000 0.812500
vt 0.875000 0.625000
vt 0.750000 0.625000
vt 0.625000 0.625000
vt 0.875000 0.750000
vt 0.750000 0.750000
vt 0.625000 0.750000
vt 0.875000 0.875000
vt 0.750000 0.875000
vt 0.625000 0.875000
vt 0.625000 0.500000
vt 0.750000 0.500000
vt 0.875000 0.500000
vt 0.750000 1.000000
vt 0.625000 1.000000
vt 0.625000 0.625000
vt 0.750000 0.625000
vt 0.875000 0.625000
vt 0.625000 0.750000
vt 0.750000 0.750000
vt 0.875000 0.750000
vt 0.625000 0.875000
vt 0.750000 0.875000
vt 0.875000 0.875000
vt 0.500000 0.500000
vt 0.000000 1.000000
vt 0.500000 1.000000
vt 0.000000 1.000000
vt 0.000000 0.500000
vt 0.500000 1.000000
vt 0.500000 0.500000
vt 0.000000 0.500000
vt 0.500000 0.500000
vt 0.000000 1.000000
vt 0.500000 1.000000
vt 0.000000 1.000000
vt 0.500000 1.000000
vt 0.500000 0.500000
vt 0.000000 0.500000
vt 0.000000 0.500000
vt 0.500000 0.500000
vt 0.812500 1.000000
vt 0.500000 0.625000
vt 0.500000 0.750000
vt 1.000000 0.812500
vt 1.000000 0.750000
vt 1.000000 0.625000
vt 0.875000 0.500000
vt 0.750000 0.500000
vt 0.625000 0.500000
vt 0.625000 1.000000
vt 0.750000 1.000000
vt 0.875000 0.625000
vt 0.750000 0.625000
vt 0.625000 0.625000
vt 0.875000 0.750000
vt 0.750000 0.750000
vt 0.625000 0.750000
vt 0.875000 0.875000
vt 0.750000 0.875000
vt 0.625000 0.875000
vt 1.000000 0.500000
vt 0.500000 0.500000
vt 1.000000 0.812500
vt 0.812500 1.000000
vt 0.500000 0.750000
vt 0.500000 0.625000
vt 1.000000 0.625000
vt 1.000000 0.750000
vt 0.625000 0.500000
vt 0.750000 0.500000
vt 0.875000 0.500000
vt 0.750000 1.000000
vt 0.625000 1.000000
vt 0.625000 0.625000
vt 0.750000 0.625000
vt 0.875000 0.625000
vt 0.625000 0.750000
vt 0.750000 0.750000
vt 0.875000 0.750000
vt 0.625000 0.875000
vt 0.750000 0.875000
vt 0.875000 0.875000
vt 1.000000 0.500000
vt 1.000000 0.500000
vt 0.500000 0.500000
vt 0.500000 0.625000
vt 0.500000 0.750000
vt 0.537962 0.875000
vt 1.000000 0.750000
vt 1.000000 0.625000
vt 0.500000 0.750000
vt 0.500000 0.625000
vt 1.000000 0.625000
vt 1.000000 0.750000
vt 0.593686 1.000000
vt 0.875000 0.500000
vt 0.750000 0.500000
vt 0.625000 0.500000
vt 0.625000 1.000000
vt 0.750000 1.000000
vt 0.594108 1.000000
vt 0.875000 0.625000
vt 0.750000 0.625000
vt 0.625000 0.625000
vt 0.875000 0.750000
vt 0.750000 0.750000
vt 0.625000 0.750000
vt 0.875000 0.875000
vt 0.750000 0.875000
vt 0.625000 0.875000
vt 0.625000 0.500000
vt 0.750000 0.500000
vt 0.875000 0.500000
vt 0.539918 0.875000
vt 0.750000 1.000000
vt 0.625000 1.000000
vt 0.625000 0.625000
vt 0.750000 0.625000
vt 0.875000 0.625000
vt 0.625000 0.750000
vt 0.750000 0.750000
vt 0.875000 0.750000
vt 0.625000 0.875000
vt 0.750000 0.875000
vt 0.875000 0.875000
vt 1.000000 0.500000
vt 0.500000 0.500000
vt 0.538932 0.875000
vt 0.597466 1.000000
vt 0.542665 0.875000
vt 0.599513 1.000000
vt 0.599178 1.000000
vt 0.547786 0.875000
vt 0.823227 0.875000
vt 0.875000 0.940847
vt 0.822347 0.991860
vt 0.940847 0.875000
vt 0.875000 0.945413
vt 0.944103 0.875000
vt 0.537801 0.875000
vt 0.601271 1.000000
vt 1.000000 0.812500
vt 1.000000 0.812500
vt 0.812500 1.000000
vt 0.812500 1.000000
vt 0.875000 0.950782
vt 0.950782 0.875000
vt 0.947155 0.875000
vt 0.875000 0.947323
vt 0.875000 0.946128
vt 0.946621 0.875000
vt 0.875000 0.625000
vt 0.625000 0.875000
vt 0.875000 0.875000
vt 0.625000 0.625000
vt 0.875000 0.750000
vt 0.750000 0.875000
vt 0.625000 0.750000
vt 0.750000 0.625000
vt 0.750000 0.750000
s 0
f 18/18/1 10/10/1 19/19/1 11/11/1
f 12/12/2 20/20/2 21/21/2 13/13/2
f 14/14/3 22/22/3 23/23/3 15/15/3
f 16/16/4 25/25/4 17/17/4 24/24/4
f 54/54/5 238/238/5 237/237/5
f 71/71/6 240/240/6 239/239/6
f 42/42/7 27/27/7 36/36/7 48/48/7
f 48/48/8 36/36/8 35/35/8 51/51/8
f 51/51/9 35/35/9 233/233/9 238/238/9 54/54/9
f 59/59/10 65/65/10 39/39/10 3/3/10
f 65/65/11 68/68/11 40/40/11 39/39/11
f 68/68/12 71/71/12 239/239/12 234/234/12 40/40/12
f 32/32/13 53/53/13 56/56/13 231/231/13
f 53/53/14 52/52/14 55/55/14 56/56/14
f 52/52/15 51/51/15 54/54/15 55/55/15
f 31/31/16 50/50/16 53/53/16 32/32/16
f 50/50/17 49/49/17 52/52/17 53/53/17
f 49/49/18 48/48/18 51/51/18 52/52/18
f 26/26/19 44/44/19 50/50/19 31/31/19
f 44/44/20 43/43/20 49/49/20 50/50/20
f 43/43/21 42/42/21 48/48/21 49/49/21
f 28/28/22 33/33/22 62/62/22 69/69/22
f 56/56/23 55/55/23 46/46/23 45/45/23
f 55/55/24 54/54/24 237/237/24 235/235/24 46/46/24
f 37/37/25 28/28/25 69/69/25 66/66/25
f 66/66/26 69/69/26 70/70/26 67/67/26
f 67/67/27 70/70/27 71/71/27 68/68/27
f 38/38/28 37/37/28 66/66/28 63/63/28
f 63/63/29 66/66/29 67/67/29 64/64/29
f 64/64/30 67/67/30 68/68/30 65/65/30
f 2/2/31 38/38/31 63/63/31 57/57/31
f 57/57/32 63/63/32 64/64/32 58/58/32
f 58/58/33 64/64/33 65/65/33 59/59/33
f 69/69/34 62/62/34 61/61/34 70/70/34
f 70/70/35 61/61/35 236/236/35 240/240/35 71/71/35
f 98/98/36 5/5/36 6/6/36
f 114/114/37 74/74/37 4/4/37
f 86/86/38 1/1/38 81/81/38 92/92/38
f 92/92/39 81/81/39 80/80/39 95/95/39
f 95/95/40 80/80/40 8/8/40 5/5/40 98/98/40
f 103/103/41 108/108/41 84/84/41 9/9/41
f 108/108/42 111/111/42 85/85/42 84/84/42
f 111/111/43 114/114/43 4/4/43 91/91/43 85/85/43
f 77/77/44 97/97/44 100/100/44 219/219/44
f 97/97/45 96/96/45 99/99/45 100/100/45
f 96/96/46 95/95/46 98/98/46 99/99/46
f 76/76/47 94/94/47 97/97/47 77/77/47
f 94/94/48 93/93/48 96/96/48 97/97/48
f 93/93/49 92/92/49 95/95/49 96/96/49
f 72/72/50 88/88/50 94/94/50 76/76/50
f 88/88/51 87/87/51 93/93/51 94/94/51
f 87/87/52 86/86/52 92/92/52 93/93/52
f 78/78/53 73/73/53 105/105/53 112/112/53
f 100/100/54 99/99/54 90/90/54 89/89/54
f 99/99/55 98/98/55 6/6/55 7/7/55 90/90/55
f 82/82/56 78/78/56 112/112/56 109/109/56
f 109/109/57 112/112/57 113/113/57 110/110/57
f 110/110/58 113/113/58 225/225/58 114/114/58 111/111/58
f 83/83/59 82/82/59 109/109/59 106/106/59
f 106/106/60 109/109/60 110/110/60 107/107/60
f 107/107/61 110/110/61 111/111/61 108/108/61
f 75/75/62 83/83/62 106/106/62 101/101/62
f 101/101/63 106/106/63 107/107/63 102/102/63
f 102/102/64 107/107/64 108/108/64 103/103/64
f 112/112/65 105/105/65 104/104/65 113/113/65
f 113/113/66 104/104/66 79/79/66 227/227/66 225/225/66
f 119/119/67 115/115/67 117/117/67 116/116/67
f 122/122/68 118/118/68 120/120/68 121/121/68
f 129/129/69 123/123/69 125/125/69 124/124/69
f 130/130/70 126/126/70 127/127/70 128/128/70
f 149/149/71 230/230/71 229/229/71
f 138/138/72 152/152/72 137/137/72 143/143/72
f 143/143/42 137/137/42 136/136/42 146/146/42
f 146/146/73 136/136/73 135/135/73 230/230/73 149/149/73
f 134/134/74 148/148/74 151/151/74 221/221/74
f 148/148/75 147/147/75 150/150/75 151/151/75
f 147/147/76 146/146/76 149/149/76 150/150/76
f 133/133/59 145/145/59 148/148/59 134/134/59
f 145/145/60 144/144/60 147/147/60 148/148/60
f 144/144/61 143/143/61 146/146/61 147/147/61
f 131/131/77 140/140/77 145/145/77 133/133/77
f 140/140/65 139/139/65 144/144/65 145/145/65
f 139/139/66 138/138/66 143/143/66 144/144/66
f 151/151/63 150/150/63 142/142/63 141/141/63
f 150/150/64 149/149/64 229/229/64 132/132/64 142/142/64
f 173/173/78 226/226/78 228/228/78
f 162/162/79 167/167/79 158/158/79 174/174/79
f 167/167/39 170/170/39 159/159/39 158/158/39
f 170/170/80 173/173/80 228/228/80 154/154/80 159/159/80
f 156/156/81 224/224/81 171/171/81 168/168/81
f 168/168/82 171/171/82 172/172/82 169/169/82
f 169/169/83 172/172/83 173/173/83 170/170/83
f 157/157/47 156/156/47 168/168/47 165/165/47
f 165/165/48 168/168/48 169/169/48 166/166/48
f 166/166/49 169/169/49 170/170/49 167/167/49
f 153/153/84 157/157/84 165/165/84 160/160/84
f 160/160/54 165/165/54 166/166/54 161/161/54
f 161/161/55 166/166/55 167/167/55 162/162/55
f 225/225/66 227/227/66 74/74/66 114/114/66
f 171/171/51 164/164/51 163/163/51 172/172/51
f 172/172/52 163/163/52 155/155/52 226/226/52 173/173/52
f 199/199/85 29/29/85 34/34/85
f 216/216/86 241/241/86 242/242/86
f 187/187/87 175/175/87 181/181/87 193/193/87
f 193/193/11 181/181/11 180/180/11 196/196/11
f 196/196/88 180/180/88 60/60/88 29/29/88 199/199/88
f 204/204/89 210/210/89 184/184/89 217/217/89
f 210/210/8 213/213/8 185/185/8 184/184/8
f 213/213/90 216/216/90 242/242/90 41/41/90 185/185/90
f 178/178/91 198/198/91 201/201/91 179/179/91
f 198/198/92 197/197/92 200/200/92 201/201/92
f 197/197/93 196/196/93 199/199/93 200/200/93
f 177/177/28 195/195/28 198/198/28 178/178/28
f 195/195/29 194/194/29 197/197/29 198/198/29
f 194/194/30 193/193/30 196/196/30 197/197/30
f 176/176/94 189/189/94 195/195/94 177/177/94
f 189/189/34 188/188/34 194/194/34 195/195/34
f 188/188/35 187/187/35 193/193/35 194/194/35
f 201/201/32 200/200/32 191/191/32 190/190/32
f 200/200/33 199/199/33 34/34/33 30/30/33 191/191/33
f 182/182/95 205/205/95 214/214/95 211/211/95
f 211/211/96 214/214/96 215/215/96 212/212/96
f 212/212/97 215/215/97 216/216/97 213/213/97
f 183/183/16 182/182/16 211/211/16 208/208/16
f 208/208/17 211/211/17 212/212/17 209/209/17
f 209/209/18 212/212/18 213/213/18 210/210/18
f 218/218/98 183/183/98 208/208/98 202/202/98
f 202/202/23 208/208/23 209/209/23 203/203/23
f 203/203/24 209/209/24 210/210/24 204/204/24
f 214/214/20 207/207/20 206/206/20 215/215/20
f 215/215/21 206/206/21 47/47/21 241/241/21 216/216/21
f 220/220/99 219/219/99 100/100/99 89/89/99
f 222/222/100 221/221/100 151/151/100 141/141/100
f 224/224/101 223/223/101 164/164/101 171/171/101
f 232/232/102 231/231/102 56/56/102 45/45/102
f 205/205/103 192/192/103 207/207/103 214/214/103
f 186/186/104 179/179/104 201/201/104 190/190/104
f 251/251/105 248/248/105 245/245/105 247/247/105
f 250/250/106 251/251/106 247/247/106 243/243/106
f 246/246/107 249/249/107 251/251/107 250/250/107
f 249/249/108 244/244/108 248/248/108 251/251/108
