# Blender 3.1.0
# www.blender.org
o bush7
v -0.350000 0.000000 0.010000
v 0.350000 0.000000 0.010000
v -0.350000 1.000000 0.010000
v 0.350000 1.000000 0.010000
v 0.000000 0.000000 0.010000
v 0.000000 1.000000 0.010000
v -0.350000 0.000000 -0.010000
v 0.350000 0.000000 -0.010000
v -0.350000 1.000000 -0.010000
v 0.350000 1.000000 -0.010000
v 0.000000 0.000000 -0.010000
v 0.000000 1.000000 -0.010000
v -0.010000 0.000000 -0.000000
v -0.010000 1.000000 -0.000000
v -0.030000 0.000000 -0.000000
v -0.030000 1.000000 0.000000
v 0.050000 1.000000 0.175000
v 0.050000 0.000000 0.175000
v 0.030000 1.000000 0.175000
v 0.030000 0.000000 0.175000
v 0.050000 0.000000 -0.175000
v 0.050000 1.000000 -0.175000
v 0.030000 0.000000 -0.175000
v 0.030000 1.000000 -0.175000
v 0.010000 0.250000 0.350000
v -0.090000 0.500000 0.350000
v -0.020000 0.750000 0.350000
v -0.020000 0.750000 -0.350000
v -0.090000 0.500000 -0.350000
v 0.010000 0.250000 -0.350000
v -0.160000 0.250000 0.000000
v -0.260000 0.500000 0.000000
v -0.190000 0.750000 0.000000
v -0.160000 0.250000 0.175000
v -0.260000 0.500000 0.175000
v -0.190000 0.750000 0.175000
v -0.160000 0.250000 -0.175000
v -0.260000 0.500000 -0.175000
v -0.190000 0.750000 -0.175000
v -0.040000 0.750000 0.350000
v -0.110000 0.500000 0.350000
v -0.010000 0.250000 0.350000
v -0.010000 0.250000 -0.350000
v -0.110000 0.500000 -0.350000
v -0.040000 0.750000 -0.350000
v -0.180000 0.250000 -0.000000
v -0.280000 0.500000 -0.000000
v -0.210000 0.750000 -0.000000
v -0.210000 0.750000 0.175000
v -0.280000 0.500000 0.175000
v -0.180000 0.250000 0.175000
v -0.210000 0.750000 -0.175000
v -0.280000 0.500000 -0.175000
v -0.180000 0.250000 -0.175000
v 0.010000 0.000000 0.350000
v 0.010000 0.000000 -0.350000
v 0.010000 1.000000 0.350000
v 0.010000 1.000000 -0.350000
v 0.010000 0.000000 0.000000
v 0.010000 1.000000 -0.000000
v -0.010000 0.000000 0.350000
v -0.010000 0.000000 -0.350000
v -0.010000 1.000000 0.350000
v -0.010000 1.000000 -0.350000
v -0.010000 0.000000 0.000000
v -0.010000 1.000000 0.000000
v -0.240416 0.000000 0.254558
v 0.254558 0.000000 -0.240416
v -0.240416 1.000000 0.254558
v 0.254558 1.000000 -0.240416
v 0.007071 0.000000 0.007071
v 0.007071 1.000000 0.007071
v -0.254558 0.000000 0.240416
v 0.240416 0.000000 -0.254558
v -0.254558 1.000000 0.240416
v 0.240416 1.000000 -0.254558
v -0.007071 0.000000 -0.007071
v -0.007071 1.000000 -0.007071
v 0.254558 0.000000 0.240416
v -0.240416 0.000000 -0.254558
v 0.254559 1.000000 0.240416
v -0.240416 1.000000 -0.254558
v 0.007071 0.000000 -0.007071
v 0.007071 1.000000 -0.007071
v 0.240416 0.000000 0.254558
v -0.254558 0.000000 -0.240416
v 0.240416 1.000000 0.254558
v -0.254558 1.000000 -0.240416
v -0.007071 0.000000 0.007071
v -0.007071 1.000000 0.007071
v 0.010000 0.000000 -0.000000
v 0.010000 1.000000 -0.000000
v 0.030000 0.000000 -0.000000
v 0.030000 1.000000 -0.000000
v -0.050000 1.000000 -0.175000
v -0.050000 0.000000 -0.175000
v -0.030000 1.000000 -0.175000
v -0.030000 0.000000 -0.175000
v -0.050000 0.000000 0.175000
v -0.050000 1.000000 0.175000
v -0.030000 0.000000 0.175000
v -0.030000 1.000000 0.175000
v -0.010000 0.250000 -0.350000
v 0.090000 0.500000 -0.350000
v 0.020000 0.750000 -0.350000
v 0.020000 0.750000 0.350000
v 0.090000 0.500000 0.350000
v -0.010000 0.250000 0.350000
v 0.160000 0.250000 -0.000000
v 0.260000 0.500000 -0.000000
v 0.190000 0.750000 -0.000000
v 0.160000 0.250000 -0.175000
v 0.260000 0.500000 -0.175000
v 0.190000 0.750000 -0.175000
v 0.160000 0.250000 0.175000
v 0.260000 0.500000 0.175000
v 0.190000 0.750000 0.175000
v 0.040000 0.750000 -0.350000
v 0.110000 0.500000 -0.350000
v 0.010000 0.250000 -0.350000
v 0.010000 0.250000 0.350000
v 0.110000 0.500000 0.350000
v 0.040000 0.750000 0.350000
v 0.180000 0.250000 -0.000000
v 0.280000 0.500000 -0.000000
v 0.210000 0.750000 -0.000000
v 0.210000 0.750000 -0.175000
v 0.280000 0.500000 -0.175000
v 0.180000 0.250000 -0.175000
v 0.210000 0.750000 0.175000
v 0.280000 0.500000 0.175000
v 0.180000 0.250000 0.175000
v 0.000000 0.000000 0.010000
v 0.000000 1.000000 0.010000
v 0.000000 0.000000 0.030000
v 0.000000 1.000000 0.030000
v 0.175000 1.000000 -0.050000
v 0.175000 -0.000000 -0.050000
v 0.175000 1.000000 -0.030000
v 0.175000 0.000000 -0.030000
v -0.175000 0.000000 -0.050000
v -0.175000 1.000000 -0.050000
v -0.175000 0.000000 -0.030000
v -0.175000 1.000000 -0.030000
v 0.350000 0.250000 -0.010000
v 0.350000 0.500000 0.090000
v 0.350000 0.750000 0.020000
v -0.350000 0.750000 0.020000
v -0.350000 0.500000 0.090000
v -0.350000 0.250000 -0.010000
v 0.000000 0.250000 0.160000
v 0.000000 0.500000 0.260000
v 0.000000 0.750000 0.190000
v 0.175000 0.250000 0.160000
v 0.175000 0.500000 0.260000
v 0.175000 0.750000 0.190000
v -0.175000 0.250000 0.160000
v -0.175000 0.500000 0.260000
v -0.175000 0.750000 0.190000
v 0.350000 0.750000 0.040000
v 0.350000 0.500000 0.110000
v 0.350000 0.250000 0.010000
v -0.350000 0.250000 0.010000
v -0.350000 0.500000 0.110000
v -0.350000 0.750000 0.040000
v 0.000000 0.250000 0.180000
v 0.000000 0.500000 0.280000
v 0.000000 0.750000 0.210000
v 0.175000 0.750000 0.210000
v 0.175000 0.500000 0.280000
v 0.175000 0.250000 0.180000
v -0.175000 0.750000 0.210000
v -0.175000 0.500000 0.280000
v -0.175000 0.250000 0.180000
v -0.000000 0.000000 -0.010000
v -0.000000 1.000000 -0.010000
v -0.000000 0.000000 -0.030000
v -0.000000 1.000000 -0.030000
v -0.175000 1.000000 0.050000
v -0.175000 0.000000 0.050000
v -0.175000 1.000000 0.030000
v -0.175000 0.000000 0.030000
v 0.175000 0.000000 0.050000
v 0.175000 1.000000 0.050000
v 0.175000 0.000000 0.030000
v 0.175000 1.000000 0.030000
v -0.350000 0.250000 0.010000
v -0.350000 0.500000 -0.090000
v -0.350000 0.750000 -0.020000
v 0.350000 0.750000 -0.020000
v 0.350000 0.500000 -0.090000
v 0.350000 0.250000 0.010000
v -0.000000 0.250000 -0.160000
v -0.000000 0.500000 -0.260000
v -0.000000 0.750000 -0.190000
v -0.175000 0.250000 -0.160000
v -0.175000 0.500000 -0.260000
v -0.175000 0.750000 -0.190000
v 0.175000 0.250000 -0.160000
v 0.175000 0.500000 -0.260000
v 0.175000 0.750000 -0.190000
v -0.350000 0.750000 -0.040000
v -0.350000 0.500000 -0.110000
v -0.350000 0.250000 -0.010000
v 0.350000 0.250000 -0.010000
v 0.350000 0.500000 -0.110000
v 0.350000 0.750000 -0.040000
v -0.000000 0.250000 -0.180000
v -0.000000 0.500000 -0.280000
v -0.000000 0.750000 -0.210000
v -0.175000 0.750000 -0.210000
v -0.175000 0.500000 -0.280000
v -0.175000 0.250000 -0.180000
v 0.175000 0.750000 -0.210000
v 0.175000 0.500000 -0.280000
v 0.175000 0.250000 -0.180000
vn -0.0000 -0.0000 1.0000
vn -0.0000 -0.0000 -1.0000
vn 0.5908 -0.5671 0.5739
vn 0.7003 -0.6723 -0.2401
vn -0.5908 0.5671 -0.5739
vn -0.8115 0.5843 -0.0000
vn 0.8115 -0.5843 -0.0000
vn 0.8575 0.5145 -0.0000
vn 0.9285 0.3714 -0.0000
vn 0.9630 -0.2696 -0.0000
vn 0.6895 0.2758 -0.6698
vn 0.7032 -0.1969 -0.6831
vn 0.7406 0.6221 -0.2539
vn 0.6144 0.5161 0.5968
vn 0.6895 0.2758 0.6698
vn 0.7032 -0.1969 0.6831
vn -0.7406 -0.6221 -0.2539
vn -0.9285 -0.3714 -0.0000
vn -0.9630 0.2696 -0.0000
vn -0.6895 -0.2758 0.6698
vn -0.7032 0.1969 0.6831
vn -0.7406 -0.6221 0.2539
vn -0.6895 -0.2758 -0.6698
vn -0.7032 0.1969 -0.6831
vn -0.5908 0.5671 0.5739
vn 0.5908 -0.5671 -0.5739
vn 0.6144 0.5161 -0.5968
vn -0.6144 -0.5161 0.5968
vn -0.6144 -0.5161 -0.5968
vn 1.0000 -0.0000 -0.0000
vn -1.0000 -0.0000 -0.0000
vn 0.7071 -0.0000 0.7071
vn -0.7071 -0.0000 -0.7071
vn 0.7071 -0.0000 -0.7071
vn -0.7071 -0.0000 0.7071
vn -0.5908 -0.5671 -0.5739
vn -0.7003 -0.6723 0.2401
vn 0.5908 0.5671 0.5739
vn 0.8115 0.5843 -0.0000
vn -0.8115 -0.5843 -0.0000
vn -0.8575 0.5145 -0.0000
vn -0.9285 0.3714 -0.0000
vn -0.9630 -0.2696 -0.0000
vn -0.6895 0.2758 0.6698
vn -0.7032 -0.1969 0.6831
vn -0.7406 0.6221 0.2539
vn -0.6144 0.5161 -0.5968
vn -0.6895 0.2758 -0.6698
vn -0.7032 -0.1969 -0.6831
vn 0.7406 -0.6221 0.2539
vn 0.9285 -0.3714 -0.0000
vn 0.9630 0.2696 -0.0000
vn 0.6895 -0.2758 -0.6698
vn 0.7032 0.1969 -0.6831
vn 0.7406 -0.6221 -0.2539
vn 0.6895 -0.2758 0.6698
vn 0.7032 0.1969 0.6831
vn 0.5908 0.5671 -0.5739
vn -0.5908 -0.5671 0.5739
vn -0.6144 0.5161 0.5968
vn 0.6144 -0.5161 -0.5968
vn 0.6144 -0.5161 0.5968
vn 0.5739 -0.5671 -0.5908
vn -0.2401 -0.6723 -0.7003
vn -0.5739 0.5671 0.5908
vn -0.0000 0.5843 0.8115
vn -0.0000 -0.5843 -0.8115
vn -0.0000 0.5145 -0.8575
vn -0.0000 0.3714 -0.9285
vn -0.0000 -0.2696 -0.9630
vn -0.6698 0.2758 -0.6895
vn -0.6831 -0.1969 -0.7032
vn -0.2539 0.6221 -0.7406
vn 0.5968 0.5161 -0.6144
vn 0.6698 0.2758 -0.6895
vn 0.6831 -0.1969 -0.7032
vn -0.2539 -0.6221 0.7406
vn -0.0000 -0.3714 0.9285
vn -0.0000 0.2696 0.9630
vn 0.6698 -0.2758 0.6895
vn 0.6831 0.1969 0.7032
vn 0.2539 -0.6221 0.7406
vn -0.6698 -0.2758 0.6895
vn -0.6831 0.1969 0.7032
vn 0.5739 0.5671 0.5908
vn -0.5739 -0.5671 -0.5908
vn -0.5968 0.5161 -0.6144
vn 0.5968 -0.5161 0.6144
vn -0.5968 -0.5161 0.6144
vn -0.5739 -0.5671 0.5908
vn 0.2401 -0.6723 0.7003
vn 0.5739 0.5671 -0.5908
vn -0.0000 0.5843 -0.8115
vn -0.0000 -0.5843 0.8115
vn -0.0000 0.5145 0.8575
vn -0.0000 0.3714 0.9285
vn -0.0000 -0.2696 0.9630
vn 0.6698 0.2758 0.6895
vn 0.6831 -0.1969 0.7032
vn 0.2539 0.6221 0.7406
vn -0.5968 0.5161 0.6144
vn -0.6698 0.2758 0.6895
vn -0.6831 -0.1969 0.7032
vn 0.2539 -0.6221 -0.7406
vn -0.0000 -0.3714 -0.9285
vn -0.0000 0.2696 -0.9630
vn -0.6698 -0.2758 -0.6895
vn -0.6831 0.1969 -0.7032
vn -0.2539 -0.6221 -0.7406
vn 0.6698 -0.2758 -0.6895
vn 0.6831 0.1969 -0.7032
vn -0.5739 0.5671 -0.5908
vn 0.5739 -0.5671 0.5908
vn 0.5968 0.5161 0.6144
vn -0.5968 -0.5161 -0.6144
vn 0.5968 -0.5161 -0.6144
vn -0.7003 0.6723 0.2401
vn 0.7003 -0.6723 0.2401
vn -0.7003 0.6723 -0.2401
vn 0.7406 0.6221 0.2539
vn -0.8575 -0.5145 -0.0000
vn 0.7003 0.6723 -0.2401
vn -0.7003 -0.6723 -0.2401
vn 0.7003 0.6723 0.2401
vn -0.7406 0.6221 -0.2539
vn 0.8575 -0.5145 -0.0000
vn 0.2401 0.6723 0.7003
vn 0.2401 -0.6723 -0.7003
vn -0.2401 0.6723 0.7003
vn 0.2539 0.6221 -0.7406
vn -0.0000 -0.5145 0.8575
vn -0.2401 0.6723 -0.7003
vn -0.2401 -0.6723 0.7003
vn 0.2401 0.6723 -0.7003
vn -0.2539 0.6221 0.7406
vn -0.0000 -0.5145 -0.8575
vt 0.000000 0.500000
vt 0.500000 0.500000
vt 0.000000 1.000000
vt 0.500000 1.000000
vt 0.250000 0.500000
vt 0.250000 1.000000
vt 0.000000 0.500000
vt 0.500000 0.500000
vt 0.000000 1.000000
vt 0.500000 1.000000
vt 0.250000 0.500000
vt 0.250000 1.000000
vt 0.250000 0.500000
vt 0.250000 1.000000
vt 0.250000 0.500000
vt 0.250000 1.000000
vt 0.125000 1.000000
vt 0.125000 0.500000
vt 0.125000 1.000000
vt 0.125000 0.500000
vt 0.375000 0.500000
vt 0.375000 1.000000
vt 0.375000 0.500000
vt 0.375000 1.000000
vt 0.000000 0.625000
vt 0.000000 0.750000
vt 0.000000 0.875000
vt 0.500000 0.875000
vt 0.500000 0.750000
vt 0.500000 0.625000
vt 0.250000 0.625000
vt 0.250000 0.750000
vt 0.250000 0.875000
vt 0.125000 0.625000
vt 0.125000 0.750000
vt 0.125000 0.875000
vt 0.375000 0.625000
vt 0.375000 0.750000
vt 0.375000 0.875000
vt 0.000000 0.875000
vt 0.000000 0.750000
vt 0.000000 0.625000
vt 0.500000 0.625000
vt 0.500000 0.750000
vt 0.500000 0.875000
vt 0.250000 0.625000
vt 0.250000 0.750000
vt 0.250000 0.875000
vt 0.125000 0.875000
vt 0.125000 0.750000
vt 0.125000 0.625000
vt 0.375000 0.875000
vt 0.375000 0.750000
vt 0.375000 0.625000
vt 0.000000 0.500000
vt 0.500000 0.500000
vt 0.000000 1.000000
vt 0.500000 1.000000
vt 0.250000 0.500000
vt 0.250000 1.000000
vt 0.000000 0.500000
vt 0.500000 0.500000
vt 0.000000 1.000000
vt 0.500000 1.000000
vt 0.250000 0.500000
vt 0.250000 1.000000
vt 0.000000 0.500000
vt 0.500000 0.500000
vt 0.000000 1.000000
vt 0.500000 1.000000
vt 0.250000 0.500000
vt 0.250000 1.000000
vt 0.000000 0.500000
vt 0.500000 0.500000
vt 0.000000 1.000000
vt 0.500000 1.000000
vt 0.250000 0.500000
vt 0.250000 1.000000
vt 0.000000 0.500000
vt 0.500000 0.500000
vt 0.000000 1.000000
vt 0.500000 1.000000
vt 0.250000 0.500000
vt 0.250000 1.000000
vt 0.000000 0.500000
vt 0.500000 0.500000
vt 0.000000 1.000000
vt 0.500000 1.000000
vt 0.250000 0.500000
vt 0.250000 1.000000
vt 0.250000 0.500000
vt 0.250000 1.000000
vt 0.250000 0.500000
vt 0.250000 1.000000
vt 0.125000 1.000000
vt 0.125000 0.500000
vt 0.125000 1.000000
vt 0.125000 0.500000
vt 0.375000 0.500000
vt 0.375000 1.000000
vt 0.375000 0.500000
vt 0.375000 1.000000
vt 0.000000 0.625000
vt 0.000000 0.750000
vt 0.000000 0.875000
vt 0.500000 0.875000
vt 0.500000 0.750000
vt 0.500000 0.625000
vt 0.250000 0.625000
vt 0.250000 0.750000
vt 0.250000 0.875000
vt 0.125000 0.625000
vt 0.125000 0.750000
vt 0.125000 0.875000
vt 0.375000 0.625000
vt 0.375000 0.750000
vt 0.375000 0.875000
vt 0.000000 0.875000
vt 0.000000 0.750000
vt 0.000000 0.625000
vt 0.500000 0.625000
vt 0.500000 0.750000
vt 0.500000 0.875000
vt 0.250000 0.625000
vt 0.250000 0.750000
vt 0.250000 0.875000
vt 0.125000 0.875000
vt 0.125000 0.750000
vt 0.125000 0.625000
vt 0.375000 0.875000
vt 0.375000 0.750000
vt 0.375000 0.625000
vt 0.250000 0.500000
vt 0.250000 1.000000
vt 0.250000 0.500000
vt 0.250000 1.000000
vt 0.125000 1.000000
vt 0.125000 0.500000
vt 0.125000 1.000000
vt 0.125000 0.500000
vt 0.375000 0.500000
vt 0.375000 1.000000
vt 0.375000 0.500000
vt 0.375000 1.000000
vt 0.000000 0.625000
vt 0.000000 0.750000
vt 0.000000 0.875000
vt 0.500000 0.875000
vt 0.500000 0.750000
vt 0.500000 0.625000
vt 0.250000 0.625000
vt 0.250000 0.750000
vt 0.250000 0.875000
vt 0.125000 0.625000
vt 0.125000 0.750000
vt 0.125000 0.875000
vt 0.375000 0.625000
vt 0.375000 0.750000
vt 0.375000 0.875000
vt 0.000000 0.875000
vt 0.000000 0.750000
vt 0.000000 0.625000
vt 0.500000 0.625000
vt 0.500000 0.750000
vt 0.500000 0.875000
vt 0.250000 0.625000
vt 0.250000 0.750000
vt 0.250000 0.875000
vt 0.125000 0.875000
vt 0.125000 0.750000
vt 0.125000 0.625000
vt 0.375000 0.875000
vt 0.375000 0.750000
vt 0.375000 0.625000
vt 0.250000 0.500000
vt 0.250000 1.000000
vt 0.250000 0.500000
vt 0.250000 1.000000
vt 0.125000 1.000000
vt 0.125000 0.500000
vt 0.125000 1.000000
vt 0.125000 0.500000
vt 0.375000 0.500000
vt 0.375000 1.000000
vt 0.375000 0.500000
vt 0.375000 1.000000
vt 0.000000 0.625000
vt 0.000000 0.750000
vt 0.000000 0.875000
vt 0.500000 0.875000
vt 0.500000 0.750000
vt 0.500000 0.625000
vt 0.250000 0.625000
vt 0.250000 0.750000
vt 0.250000 0.875000
vt 0.125000 0.625000
vt 0.125000 0.750000
vt 0.125000 0.875000
vt 0.375000 0.625000
vt 0.375000 0.750000
vt 0.375000 0.875000
vt 0.000000 0.875000
vt 0.000000 0.750000
vt 0.000000 0.625000
vt 0.500000 0.625000
vt 0.500000 0.750000
vt 0.500000 0.875000
vt 0.250000 0.625000
vt 0.250000 0.750000
vt 0.250000 0.875000
vt 0.125000 0.875000
vt 0.125000 0.750000
vt 0.125000 0.625000
vt 0.375000 0.875000
vt 0.375000 0.750000
vt 0.375000 0.625000
s 0
f 2/2/1 6/6/1 5/5/1
f 5/5/1 3/3/1 1/1/1
f 12/12/2 8/8/2 11/11/2
f 9/9/2 11/11/2 7/7/2
f 39/39/3 28/28/3 22/22/3
f 36/36/4 14/14/4 17/17/4
f 52/52/5 24/24/5 45/45/5
f 49/49/6 16/16/6 48/48/6
f 39/39/7 14/14/7 33/33/7
f 16/16/6 52/52/6 48/48/6
f 13/13/8 37/37/8 31/31/8
f 37/37/9 32/32/9 31/31/9
f 38/38/10 33/33/10 32/32/10
f 34/34/11 26/26/11 25/25/11
f 26/26/12 36/36/12 27/27/12
f 13/13/13 34/34/13 18/18/13
f 31/31/9 35/35/9 34/34/9
f 32/32/10 36/36/10 35/35/10
f 21/21/14 30/30/14 37/37/14
f 37/37/15 29/29/15 38/38/15
f 29/29/16 39/39/16 38/38/16
f 15/15/17 54/54/17 23/23/17
f 47/47/18 54/54/18 46/46/18
f 48/48/19 53/53/19 47/47/19
f 41/41/20 51/51/20 42/42/20
f 41/41/21 49/49/21 50/50/21
f 51/51/22 15/15/22 20/20/22
f 51/51/18 47/47/18 46/46/18
f 49/49/19 47/47/19 50/50/19
f 54/54/23 44/44/23 43/43/23
f 52/52/24 44/44/24 53/53/24
f 19/19/25 49/49/25 40/40/25
f 17/17/26 27/27/26 36/36/26
f 25/25/27 18/18/27 34/34/27
f 20/20/28 42/42/28 51/51/28
f 43/43/29 23/23/29 54/54/29
f 56/56/30 60/60/30 59/59/30
f 59/59/30 57/57/30 55/55/30
f 66/66/31 62/62/31 65/65/31
f 63/63/31 65/65/31 61/61/31
f 68/68/32 72/72/32 71/71/32
f 71/71/32 69/69/32 67/67/32
f 78/78/33 74/74/33 77/77/33
f 75/75/33 77/77/33 73/73/33
f 80/80/34 84/84/34 83/83/34
f 83/83/34 81/81/34 79/79/34
f 90/90/35 86/86/35 89/89/35
f 87/87/35 89/89/35 85/85/35
f 117/117/36 106/106/36 100/100/36
f 114/114/37 92/92/37 95/95/37
f 130/130/38 102/102/38 123/123/38
f 127/127/39 94/94/39 126/126/39
f 117/117/40 92/92/40 111/111/40
f 94/94/39 130/130/39 126/126/39
f 91/91/41 115/115/41 109/109/41
f 109/109/42 116/116/42 110/110/42
f 110/110/43 117/117/43 111/111/43
f 112/112/44 104/104/44 103/103/44
f 104/104/45 114/114/45 105/105/45
f 91/91/46 112/112/46 96/96/46
f 109/109/42 113/113/42 112/112/42
f 110/110/43 114/114/43 113/113/43
f 99/99/47 108/108/47 115/115/47
f 115/115/48 107/107/48 116/116/48
f 107/107/49 117/117/49 116/116/49
f 93/93/50 132/132/50 101/101/50
f 125/125/51 132/132/51 124/124/51
f 126/126/52 131/131/52 125/125/52
f 119/119/53 129/129/53 120/120/53
f 119/119/54 127/127/54 128/128/54
f 129/129/55 93/93/55 98/98/55
f 129/129/51 125/125/51 124/124/51
f 127/127/52 125/125/52 128/128/52
f 132/132/56 122/122/56 121/121/56
f 130/130/57 122/122/57 131/131/57
f 97/97/58 127/127/58 118/118/58
f 95/95/59 105/105/59 114/114/59
f 103/103/60 96/96/60 112/112/60
f 98/98/61 120/120/61 129/129/61
f 121/121/62 101/101/62 132/132/62
f 159/159/63 148/148/63 142/142/63
f 156/156/64 134/134/64 137/137/64
f 172/172/65 144/144/65 165/165/65
f 169/169/66 136/136/66 168/168/66
f 159/159/67 134/134/67 153/153/67
f 136/136/66 172/172/66 168/168/66
f 133/133/68 157/157/68 151/151/68
f 157/157/69 152/152/69 151/151/69
f 158/158/70 153/153/70 152/152/70
f 154/154/71 146/146/71 145/145/71
f 146/146/72 156/156/72 147/147/72
f 133/133/73 154/154/73 138/138/73
f 151/151/69 155/155/69 154/154/69
f 152/152/70 156/156/70 155/155/70
f 141/141/74 150/150/74 157/157/74
f 157/157/75 149/149/75 158/158/75
f 149/149/76 159/159/76 158/158/76
f 135/135/77 174/174/77 143/143/77
f 167/167/78 174/174/78 166/166/78
f 168/168/79 173/173/79 167/167/79
f 161/161/80 171/171/80 162/162/80
f 161/161/81 169/169/81 170/170/81
f 171/171/82 135/135/82 140/140/82
f 171/171/78 167/167/78 166/166/78
f 169/169/79 167/167/79 170/170/79
f 174/174/83 164/164/83 163/163/83
f 172/172/84 164/164/84 173/173/84
f 139/139/85 169/169/85 160/160/85
f 137/137/86 147/147/86 156/156/86
f 145/145/87 138/138/87 154/154/87
f 140/140/88 162/162/88 171/171/88
f 163/163/89 143/143/89 174/174/89
f 201/201/90 190/190/90 184/184/90
f 198/198/91 176/176/91 179/179/91
f 214/214/92 186/186/92 207/207/92
f 211/211/93 178/178/93 210/210/93
f 201/201/94 176/176/94 195/195/94
f 178/178/93 214/214/93 210/210/93
f 175/175/95 199/199/95 193/193/95
f 199/199/96 194/194/96 193/193/96
f 200/200/97 195/195/97 194/194/97
f 196/196/98 188/188/98 187/187/98
f 188/188/99 198/198/99 189/189/99
f 175/175/100 196/196/100 180/180/100
f 193/193/96 197/197/96 196/196/96
f 197/197/97 195/195/97 198/198/97
f 183/183/101 192/192/101 199/199/101
f 199/199/102 191/191/102 200/200/102
f 191/191/103 201/201/103 200/200/103
f 177/177/104 216/216/104 185/185/104
f 209/209/105 216/216/105 208/208/105
f 210/210/106 215/215/106 209/209/106
f 203/203/107 213/213/107 204/204/107
f 203/203/108 211/211/108 212/212/108
f 213/213/109 177/177/109 182/182/109
f 213/213/105 209/209/105 208/208/105
f 211/211/106 209/209/106 212/212/106
f 216/216/110 206/206/110 205/205/110
f 214/214/111 206/206/111 215/215/111
f 181/181/112 211/211/112 202/202/112
f 179/179/113 189/189/113 198/198/113
f 187/187/114 180/180/114 196/196/114
f 182/182/115 204/204/115 213/213/115
f 205/205/116 185/185/116 216/216/116
f 2/2/1 4/4/1 6/6/1
f 5/5/1 6/6/1 3/3/1
f 12/12/2 10/10/2 8/8/2
f 9/9/2 12/12/2 11/11/2
f 36/36/7 33/33/7 14/14/7
f 49/49/117 19/19/117 16/16/117
f 39/39/118 22/22/118 14/14/118
f 16/16/119 24/24/119 52/52/119
f 13/13/120 21/21/120 37/37/120
f 37/37/9 38/38/9 32/32/9
f 38/38/10 39/39/10 33/33/10
f 34/34/11 35/35/11 26/26/11
f 26/26/12 35/35/12 36/36/12
f 13/13/8 31/31/8 34/34/8
f 31/31/9 32/32/9 35/35/9
f 32/32/10 33/33/10 36/36/10
f 37/37/15 30/30/15 29/29/15
f 29/29/16 28/28/16 39/39/16
f 15/15/121 46/46/121 54/54/121
f 47/47/18 53/53/18 54/54/18
f 48/48/19 52/52/19 53/53/19
f 41/41/20 50/50/20 51/51/20
f 41/41/21 40/40/21 49/49/21
f 51/51/121 46/46/121 15/15/121
f 51/51/18 50/50/18 47/47/18
f 49/49/19 48/48/19 47/47/19
f 54/54/23 53/53/23 44/44/23
f 52/52/24 45/45/24 44/44/24
f 56/56/30 58/58/30 60/60/30
f 59/59/30 60/60/30 57/57/30
f 66/66/31 64/64/31 62/62/31
f 63/63/31 66/66/31 65/65/31
f 68/68/32 70/70/32 72/72/32
f 71/71/32 72/72/32 69/69/32
f 78/78/33 76/76/33 74/74/33
f 75/75/33 78/78/33 77/77/33
f 80/80/34 82/82/34 84/84/34
f 83/83/34 84/84/34 81/81/34
f 90/90/35 88/88/35 86/86/35
f 87/87/35 90/90/35 89/89/35
f 114/114/40 111/111/40 92/92/40
f 127/127/122 97/97/122 94/94/122
f 117/117/123 100/100/123 92/92/123
f 94/94/124 102/102/124 130/130/124
f 91/91/125 99/99/125 115/115/125
f 109/109/42 115/115/42 116/116/42
f 110/110/43 116/116/43 117/117/43
f 112/112/44 113/113/44 104/104/44
f 104/104/45 113/113/45 114/114/45
f 91/91/41 109/109/41 112/112/41
f 109/109/42 110/110/42 113/113/42
f 110/110/43 111/111/43 114/114/43
f 115/115/48 108/108/48 107/107/48
f 107/107/49 106/106/49 117/117/49
f 93/93/126 124/124/126 132/132/126
f 125/125/51 131/131/51 132/132/51
f 126/126/52 130/130/52 131/131/52
f 119/119/53 128/128/53 129/129/53
f 119/119/54 118/118/54 127/127/54
f 129/129/126 124/124/126 93/93/126
f 129/129/51 128/128/51 125/125/51
f 127/127/52 126/126/52 125/125/52
f 132/132/56 131/131/56 122/122/56
f 130/130/57 123/123/57 122/122/57
f 156/156/67 153/153/67 134/134/67
f 169/169/127 139/139/127 136/136/127
f 159/159/128 142/142/128 134/134/128
f 136/136/129 144/144/129 172/172/129
f 133/133/130 141/141/130 157/157/130
f 157/157/69 158/158/69 152/152/69
f 158/158/70 159/159/70 153/153/70
f 154/154/71 155/155/71 146/146/71
f 146/146/72 155/155/72 156/156/72
f 133/133/68 151/151/68 154/154/68
f 151/151/69 152/152/69 155/155/69
f 152/152/70 153/153/70 156/156/70
f 157/157/75 150/150/75 149/149/75
f 149/149/76 148/148/76 159/159/76
f 135/135/131 166/166/131 174/174/131
f 167/167/78 173/173/78 174/174/78
f 168/168/79 172/172/79 173/173/79
f 161/161/80 170/170/80 171/171/80
f 161/161/81 160/160/81 169/169/81
f 171/171/131 166/166/131 135/135/131
f 171/171/78 170/170/78 167/167/78
f 169/169/79 168/168/79 167/167/79
f 174/174/83 173/173/83 164/164/83
f 172/172/84 165/165/84 164/164/84
f 198/198/94 195/195/94 176/176/94
f 211/211/132 181/181/132 178/178/132
f 201/201/133 184/184/133 176/176/133
f 178/178/134 186/186/134 214/214/134
f 175/175/135 183/183/135 199/199/135
f 199/199/96 200/200/96 194/194/96
f 200/200/97 201/201/97 195/195/97
f 196/196/98 197/197/98 188/188/98
f 188/188/99 197/197/99 198/198/99
f 175/175/95 193/193/95 196/196/95
f 193/193/96 194/194/96 197/197/96
f 197/197/97 194/194/97 195/195/97
f 199/199/102 192/192/102 191/191/102
f 191/191/103 190/190/103 201/201/103
f 177/177/136 208/208/136 216/216/136
f 209/209/105 215/215/105 216/216/105
f 210/210/106 214/214/106 215/215/106
f 203/203/107 212/212/107 213/213/107
f 203/203/108 202/202/108 211/211/108
f 213/213/136 208/208/136 177/177/136
f 213/213/105 212/212/105 209/209/105
f 211/211/106 210/210/106 209/209/106
f 216/216/110 215/215/110 206/206/110
f 214/214/111 207/207/111 206/206/111
