# Blender 3.1.0
# www.blender.org
o bush2_winter
v -0.500000 0.000000 0.010000
v 0.500000 0.000000 0.010000
v -0.500000 0.700000 0.010000
v 0.500000 0.700000 0.010000
v -0.500000 0.000000 -0.010000
v 0.500000 0.000000 -0.010000
v -0.500000 0.700000 -0.010000
v 0.500000 0.700000 -0.010000
v -0.500000 0.000000 0.010000
v 0.500000 0.000000 0.010000
v -0.500000 0.700000 0.010000
v 0.500000 0.700000 0.010000
v -0.500000 0.000000 -0.010000
v 0.500000 0.000000 -0.010000
v -0.500000 0.700000 -0.010000
v 0.500000 0.700000 -0.010000
v -0.010000 0.000000 -0.500000
v -0.010000 0.000000 0.500000
v -0.010000 0.700000 -0.500000
v -0.010000 0.700000 0.500000
v 0.010000 0.000000 -0.500000
v 0.010000 0.000000 0.500000
v 0.010000 0.700000 -0.500000
v 0.010000 0.700000 0.500000
v 0.346482 0.000000 -0.360624
v -0.360624 0.000000 0.346482
v 0.346482 0.700000 -0.360624
v -0.360624 0.700000 0.346482
v 0.360624 0.000000 -0.346482
v -0.346482 0.000000 0.360624
v 0.360624 0.700000 -0.346482
v -0.346482 0.700000 0.360624
v -0.360624 0.000000 -0.346482
v 0.346482 0.000000 0.360624
v -0.360624 0.700000 -0.346482
v 0.346482 0.700000 0.360624
v -0.346482 0.000000 -0.360624
v 0.360624 0.000000 0.346482
v -0.346482 0.700000 -0.360624
v 0.360624 0.700000 0.346482
vn -0.0000 -0.0000 1.0000
vn -0.0000 -0.0000 -1.0000
vn -1.0000 -0.0000 -0.0000
vn 1.0000 -0.0000 -0.0000
vn -0.7071 -0.0000 -0.7071
vn 0.7071 -0.0000 0.7071
vn -0.7071 -0.0000 0.7071
vn 0.7071 -0.0000 -0.7071
vt 0.000000 0.500000
vt 0.500000 0.500000
vt 0.000000 1.000000
vt 0.500000 1.000000
vt 0.000000 0.500000
vt 0.500000 0.500000
vt 0.000000 1.000000
vt 0.500000 1.000000
vt 0.000000 0.500000
vt 0.500000 0.500000
vt 0.000000 1.000000
vt 0.500000 1.000000
vt 0.000000 0.500000
vt 0.500000 0.500000
vt 0.000000 1.000000
vt 0.500000 1.000000
vt 0.000000 0.500000
vt 0.500000 0.500000
vt 0.000000 1.000000
vt 0.500000 1.000000
vt 0.000000 0.500000
vt 0.500000 0.500000
vt 0.000000 1.000000
vt 0.500000 1.000000
vt 0.000000 0.500000
vt 0.500000 0.500000
vt 0.000000 1.000000
vt 0.500000 1.000000
vt 0.000000 0.500000
vt 0.500000 0.500000
vt 0.000000 1.000000
vt 0.500000 1.000000
vt 0.000000 0.500000
vt 0.500000 0.500000
vt 0.000000 1.000000
vt 0.500000 1.000000
vt 0.000000 0.500000
vt 0.500000 0.500000
vt 0.000000 1.000000
vt 0.500000 1.000000
s 0
f 2/2/1 3/3/1 1/1/1
f 7/7/2 6/6/2 5/5/2
f 10/10/1 11/11/1 9/9/1
f 15/15/2 14/14/2 13/13/2
f 18/18/3 19/19/3 17/17/3
f 23/23/4 22/22/4 21/21/4
f 26/26/5 27/27/5 25/25/5
f 31/31/6 30/30/6 29/29/6
f 34/34/7 35/35/7 33/33/7
f 39/39/8 38/38/8 37/37/8
f 2/2/1 4/4/1 3/3/1
f 7/7/2 8/8/2 6/6/2
f 10/10/1 12/12/1 11/11/1
f 15/15/2 16/16/2 14/14/2
f 18/18/3 20/20/3 19/19/3
f 23/23/4 24/24/4 22/22/4
f 26/26/5 28/28/5 27/27/5
f 31/31/6 32/32/6 30/30/6
f 34/34/7 36/36/7 35/35/7
f 39/39/8 40/40/8 38/38/8
