# Blender 3.1.0
# www.blender.org
o bush8
v -0.400000 0.000000 0.010000
v 0.400000 0.000000 0.010000
v -0.400000 1.000000 0.010000
v 0.400000 1.000000 0.010000
v 0.000000 0.000000 0.010000
v 0.000000 1.000000 0.010000
v -0.400000 0.000000 -0.010000
v 0.400000 0.000000 -0.010000
v -0.400000 1.000000 -0.010000
v 0.400000 1.000000 -0.010000
v 0.000000 0.000000 -0.010000
v 0.000000 1.000000 -0.010000
v -0.010000 0.000000 -0.400000
v -0.010000 0.000000 0.400000
v -0.010000 1.000000 -0.400000
v -0.010000 1.000000 0.400000
v -0.010000 0.000000 0.000000
v -0.010000 1.000000 -0.000000
v 0.010000 0.000000 -0.400000
v 0.010000 0.000000 0.400000
v 0.010000 1.000000 -0.400000
v 0.010000 1.000000 0.400000
v 0.010000 0.000000 0.000000
v 0.010000 1.000000 0.000000
v 0.140000 0.000000 0.000000
v 0.340000 1.000000 0.000000
v -0.140000 1.000000 -0.400000
v -0.140000 1.000000 0.400000
v -0.140000 0.000000 0.000000
v -0.340000 1.000000 -0.000000
v 0.140000 1.000000 -0.400000
v 0.140000 1.000000 0.400000
v -0.120000 1.000000 -0.400000
v -0.120000 1.000000 0.400000
v -0.120000 0.000000 0.000000
v -0.320000 1.000000 0.000000
v 0.020000 0.250000 -0.400000
v -0.100000 0.500000 -0.400000
v -0.140000 0.750000 -0.400000
v -0.140000 0.750000 0.400000
v -0.100000 0.500000 0.400000
v 0.020000 0.250000 0.400000
v -0.180000 0.250000 -0.000000
v -0.300000 0.500000 -0.000000
v -0.340000 0.750000 -0.000000
v -0.120000 0.750000 -0.400000
v -0.080000 0.500000 -0.400000
v 0.040000 0.250000 -0.400000
v 0.040000 0.250000 0.400000
v -0.080000 0.500000 0.400000
v -0.120000 0.750000 0.400000
v -0.160000 0.250000 0.000000
v -0.280000 0.500000 0.000000
v -0.320000 0.750000 0.000000
v -0.270000 1.000000 -0.200000
v -0.070000 0.000000 -0.200000
v -0.110000 0.250000 -0.200000
v -0.230000 0.500000 -0.200000
v -0.270000 0.750000 -0.200000
v -0.070000 0.000000 0.200000
v -0.270000 1.000000 0.200000
v -0.110000 0.250000 0.200000
v -0.230000 0.500000 0.200000
v -0.270000 0.750000 0.200000
v -0.090000 0.000000 0.200000
v -0.290000 1.000000 0.200000
v -0.130000 0.250000 0.200000
v -0.250000 0.500000 0.200000
v -0.290000 0.750000 0.200000
v -0.290000 1.000000 -0.200000
v -0.090000 0.000000 -0.200000
v -0.130000 0.250000 -0.200000
v -0.250000 0.500000 -0.200000
v -0.290000 0.750000 -0.200000
v 0.400000 1.000000 -0.140000
v -0.400000 1.000000 -0.140000
v 0.000000 1.000000 0.340000
v 0.000000 0.000000 0.140000
v 0.400000 1.000000 0.140000
v -0.400000 1.000000 0.140000
v 0.000000 1.000000 -0.340000
v 0.000000 0.000000 -0.140000
v 0.290000 0.750000 0.200000
v 0.250000 0.500000 0.200000
v 0.130000 0.250000 0.200000
v 0.090000 -0.000000 0.200000
v 0.290000 1.000000 0.200000
v 0.290000 0.750000 -0.200000
v 0.250000 0.500000 -0.200000
v 0.130000 0.250000 -0.200000
v 0.290000 1.000000 -0.200000
v 0.090000 -0.000000 -0.200000
v 0.270000 0.750000 -0.200000
v 0.230000 0.500000 -0.200000
v 0.110000 0.250000 -0.200000
v 0.270000 1.000000 -0.200000
v 0.070000 0.000000 -0.200000
v 0.270000 0.750000 0.200000
v 0.230000 0.500000 0.200000
v 0.110000 0.250000 0.200000
v 0.070000 0.000000 0.200000
v 0.270000 1.000000 0.200000
v 0.320000 0.750000 0.000000
v 0.280000 0.500000 0.000000
v 0.160000 0.250000 0.000000
v 0.120000 0.750000 -0.400000
v 0.080000 0.500000 -0.400000
v -0.040000 0.250000 -0.400000
v -0.040000 0.250000 0.400000
v 0.080000 0.500000 0.400000
v 0.120000 0.750000 0.400000
v 0.340000 0.750000 0.000000
v 0.300000 0.500000 0.000000
v 0.180000 0.250000 0.000000
v -0.020000 0.250000 -0.400000
v 0.100000 0.500000 -0.400000
v 0.140000 0.750000 -0.400000
v 0.140000 0.750000 0.400000
v 0.100000 0.500000 0.400000
v -0.020000 0.250000 0.400000
v 0.320000 1.000000 0.000000
v 0.120000 0.000000 0.000000
v 0.120000 1.000000 -0.400000
v 0.120000 1.000000 0.400000
v -0.200000 0.250000 -0.130000
v -0.200000 0.500000 -0.250000
v -0.200000 0.750000 -0.290000
v 0.200000 1.000000 -0.290000
v 0.200000 -0.000000 -0.090000
v 0.200000 0.250000 -0.130000
v 0.200000 0.500000 -0.250000
v 0.200000 0.750000 -0.290000
v -0.200000 0.750000 0.290000
v -0.200000 0.500000 0.250000
v -0.200000 0.250000 0.130000
v -0.200000 0.000000 0.090000
v -0.200000 1.000000 0.290000
v 0.200000 0.750000 0.290000
v 0.200000 0.500000 0.250000
v 0.200000 0.250000 0.130000
v 0.200000 1.000000 0.290000
v 0.200000 0.000000 0.090000
v 0.200000 0.750000 0.270000
v 0.200000 0.500000 0.230000
v 0.200000 0.250000 0.110000
v 0.200000 1.000000 0.270000
v 0.200000 0.000000 0.070000
v -0.200000 0.750000 0.270000
v -0.200000 0.500000 0.230000
v -0.200000 0.250000 0.110000
v -0.200000 0.000000 0.070000
v -0.200000 1.000000 0.270000
v 0.000000 0.750000 0.320000
v 0.000000 0.500000 0.280000
v 0.000000 0.250000 0.160000
v 0.400000 0.750000 0.120000
v 0.400000 0.500000 0.080000
v 0.400000 0.250000 -0.040000
v -0.400000 0.250000 -0.040000
v -0.400000 0.500000 0.080000
v -0.400000 0.750000 0.120000
v 0.000000 0.750000 0.340000
v 0.000000 0.500000 0.300000
v 0.000000 0.250000 0.180000
v 0.400000 0.250000 -0.020000
v 0.400000 0.500000 0.100000
v 0.400000 0.750000 0.140000
v -0.400000 0.750000 0.140000
v -0.400000 0.500000 0.100000
v -0.400000 0.250000 -0.020000
v 0.000000 1.000000 0.320000
v 0.000000 0.000000 0.120000
v 0.400000 1.000000 0.120000
v -0.400000 1.000000 0.120000
v 0.400000 1.000000 -0.120000
v -0.400000 1.000000 -0.120000
v 0.000000 0.000000 -0.120000
v 0.000000 1.000000 -0.320000
v 0.400000 0.250000 0.020000
v 0.400000 0.500000 -0.100000
v 0.400000 0.750000 -0.140000
v -0.400000 0.750000 -0.140000
v -0.400000 0.500000 -0.100000
v -0.400000 0.250000 0.020000
v 0.000000 0.250000 -0.180000
v 0.000000 0.500000 -0.300000
v 0.000000 0.750000 -0.340000
v 0.400000 0.750000 -0.120000
v 0.400000 0.500000 -0.080000
v 0.400000 0.250000 0.040000
v -0.400000 0.250000 0.040000
v -0.400000 0.500000 -0.080000
v -0.400000 0.750000 -0.120000
v 0.000000 0.250000 -0.160000
v 0.000000 0.500000 -0.280000
v 0.000000 0.750000 -0.320000
v 0.200000 1.000000 -0.270000
v 0.200000 0.000000 -0.070000
v 0.200000 0.250000 -0.110000
v 0.200000 0.500000 -0.230000
v 0.200000 0.750000 -0.270000
v -0.200000 0.000000 -0.070000
v -0.200000 1.000000 -0.270000
v -0.200000 0.250000 -0.110000
v -0.200000 0.500000 -0.230000
v -0.200000 0.750000 -0.270000
v -0.200000 -0.000000 -0.090000
v -0.200000 1.000000 -0.290000
v -0.236274 0.740000 -0.162392
v 0.256274 0.740000 -0.162392
v -0.236274 0.740000 0.182391
v 0.256274 0.740000 0.182391
v 0.010000 0.740000 -0.290000
v 0.010000 0.740000 0.310000
v -0.290000 0.740000 0.010000
v 0.310000 0.740000 0.010000
v 0.000000 0.850000 0.010000
v -0.289914 0.000000 -0.275772
v 0.275772 0.000000 0.289914
v -0.289914 1.000000 -0.275772
v 0.275772 1.000000 0.289914
v -0.007071 0.000000 0.007071
v -0.007071 1.000000 0.007071
v -0.275772 0.000000 -0.289914
v 0.289914 0.000000 0.275772
v -0.275772 1.000000 -0.289914
v 0.289914 1.000000 0.275772
v 0.007071 0.000000 -0.007071
v 0.007071 1.000000 -0.007071
v 0.275772 0.000000 -0.289914
v -0.289914 0.000000 0.275772
v 0.275772 1.000000 -0.289914
v -0.289914 1.000000 0.275772
v -0.007071 0.000000 -0.007071
v -0.007071 1.000000 -0.007071
v 0.289914 0.000000 -0.275772
v -0.275772 0.000000 0.289914
v 0.289914 1.000000 -0.275772
v -0.275772 1.000000 0.289914
v 0.007071 0.000000 0.007071
v 0.007071 1.000000 0.007071
vn -0.0000 -0.0000 1.0000
vn -0.0000 -0.0000 -1.0000
vn -1.0000 -0.0000 -0.0000
vn 1.0000 -0.0000 -0.0000
vn -0.8000 -0.0000 0.6000
vn -0.9701 -0.0000 -0.2425
vn 0.8000 -0.0000 -0.6000
vn 0.9701 -0.0000 0.2425
vn -0.9587 -0.1534 -0.2397
vn -0.8795 -0.4221 -0.2199
vn -0.7935 -0.1270 0.5951
vn -0.7468 -0.3585 0.5601
vn 0.9587 0.1534 0.2397
vn 0.8795 0.4221 0.2199
vn 0.7935 0.1270 -0.5951
vn 0.7468 0.3585 -0.5601
vn 0.7935 0.1270 0.5951
vn 0.7468 0.3585 0.5601
vn 0.8000 -0.0000 0.6000
vn 0.9587 0.1534 -0.2397
vn 0.8795 0.4221 -0.2199
vn 0.9701 -0.0000 -0.2425
vn -0.9587 -0.1534 0.2397
vn -0.8795 -0.4221 0.2199
vn -0.9701 -0.0000 0.2425
vn -0.7935 -0.1270 -0.5951
vn -0.7468 -0.3585 -0.5601
vn -0.8000 -0.0000 -0.6000
vn 0.7468 -0.3585 0.5601
vn 0.9587 -0.1534 -0.2397
vn -0.8795 0.4221 0.2199
vn -0.7935 0.1270 -0.5951
vn -0.9587 0.1534 -0.2397
vn 0.7468 -0.3585 -0.5601
vn 0.7935 -0.1270 0.5951
vn -0.7935 0.1270 0.5951
vn -0.9587 0.1534 0.2397
vn 0.8795 -0.4221 0.2199
vn 0.9587 -0.1534 0.2397
vn 0.7935 -0.1270 -0.5951
vn -0.7468 0.3585 -0.5601
vn -0.8795 0.4221 -0.2199
vn 0.8795 -0.4221 -0.2199
vn -0.7468 0.3585 0.5601
vn -0.5951 -0.1270 0.7935
vn 0.2199 -0.4221 0.8795
vn -0.2397 0.1534 -0.9587
vn 0.5951 0.1270 -0.7935
vn 0.2397 -0.1534 0.9587
vn 0.2397 0.1534 -0.9587
vn 0.5601 -0.3585 0.7468
vn -0.6000 -0.0000 -0.8000
vn -0.5951 0.1270 -0.7935
vn 0.6000 -0.0000 -0.8000
vn 0.6000 -0.0000 0.8000
vn -0.2199 -0.4221 0.8795
vn -0.2397 -0.1534 0.9587
vn 0.5951 -0.1270 0.7935
vn -0.2425 -0.0000 -0.9701
vn -0.2199 0.4221 -0.8795
vn -0.2425 -0.0000 0.9701
vn 0.2425 -0.0000 -0.9701
vn 0.5601 0.3585 -0.7468
vn 0.2199 0.4221 -0.8795
vn 0.2425 -0.0000 0.9701
vn -0.5601 0.3585 -0.7468
vn -0.6000 -0.0000 0.8000
vn -0.5601 -0.3585 0.7468
vn 0.5601 0.3585 0.7468
vn -0.2199 0.4221 0.8795
vn -0.5951 -0.1270 -0.7935
vn 0.5951 -0.1270 -0.7935
vn 0.2397 0.1534 0.9587
vn -0.2397 0.1534 0.9587
vn -0.5951 0.1270 0.7935
vn 0.2199 0.4221 0.8795
vn 0.5601 -0.3585 -0.7468
vn -0.5601 -0.3585 -0.7468
vn -0.5601 0.3585 0.7468
vn -0.2397 -0.1534 -0.9587
vn 0.2397 -0.1534 -0.9587
vn 0.5951 0.1270 0.7935
vn -0.2199 -0.4221 -0.8795
vn 0.2199 -0.4221 -0.8795
vn 0.3326 0.9374 0.1037
vn -0.3525 0.9293 0.1099
vn -0.1782 0.9219 -0.3440
vn 0.1730 0.9266 -0.3340
vn 0.1731 0.9266 0.3340
vn -0.1782 0.9219 0.3440
vn -0.3525 0.9293 -0.1099
vn 0.3326 0.9374 -0.1037
vn -0.7071 -0.0000 0.7071
vn 0.7071 -0.0000 -0.7071
vn -0.7071 -0.0000 -0.7071
vn 0.7071 -0.0000 0.7071
vt 0.000000 0.500000
vt 0.501075 0.500000
vt 0.000000 1.000000
vt 0.501075 1.000000
vt 0.250538 0.500000
vt 0.250538 1.000000
vt 0.000000 0.500000
vt 0.501075 0.500000
vt 0.000000 1.000000
vt 0.501075 1.000000
vt 0.250538 0.500000
vt 0.250538 1.000000
vt 0.000000 0.500000
vt 0.501075 0.500000
vt 0.000000 1.000000
vt 0.501075 1.000000
vt 0.250538 0.500000
vt 0.250538 1.000000
vt 0.000000 0.500000
vt 0.501075 0.500000
vt 0.000000 1.000000
vt 0.501075 1.000000
vt 0.250538 0.500000
vt 0.250538 1.000000
vt 0.250538 0.500000
vt 0.250538 1.000000
vt 0.000000 1.000000
vt 0.501075 1.000000
vt 0.250538 0.500000
vt 0.250538 1.000000
vt 0.501075 1.000000
vt 0.000000 1.000000
vt 0.000000 1.000000
vt 0.501075 1.000000
vt 0.250538 0.500000
vt 0.250538 1.000000
vt 0.000000 0.625556
vt 0.000000 0.750000
vt 0.000000 0.875556
vt 0.501075 0.875556
vt 0.501075 0.750000
vt 0.501075 0.625556
vt 0.250538 0.625556
vt 0.250538 0.750000
vt 0.250538 0.875556
vt 0.000000 0.875556
vt 0.000000 0.750000
vt 0.000000 0.625556
vt 0.501075 0.625556
vt 0.501075 0.750000
vt 0.501075 0.875556
vt 0.250538 0.625556
vt 0.250538 0.750000
vt 0.250538 0.875556
vt 0.125806 1.000000
vt 0.125806 0.500000
vt 0.125806 0.625556
vt 0.125806 0.750000
vt 0.125806 0.875556
vt 0.375269 0.500000
vt 0.375269 1.000000
vt 0.375269 0.625556
vt 0.375269 0.750000
vt 0.375269 0.875556
vt 0.375269 0.500000
vt 0.375269 1.000000
vt 0.375269 0.625556
vt 0.375269 0.750000
vt 0.375269 0.875556
vt 0.125806 1.000000
vt 0.125806 0.500000
vt 0.125806 0.625556
vt 0.125806 0.750000
vt 0.125806 0.875556
vt 0.000000 1.000000
vt 0.501075 1.000000
vt 0.250538 1.000000
vt 0.250538 0.500000
vt 0.501075 1.000000
vt 0.000000 1.000000
vt 0.250538 1.000000
vt 0.250538 0.500000
vt 0.125806 0.875556
vt 0.125806 0.750000
vt 0.125806 0.625556
vt 0.125806 0.500000
vt 0.125806 1.000000
vt 0.375269 0.875556
vt 0.375269 0.750000
vt 0.375269 0.625556
vt 0.375269 1.000000
vt 0.375269 0.500000
vt 0.375269 0.875556
vt 0.375269 0.750000
vt 0.375269 0.625556
vt 0.375269 1.000000
vt 0.375269 0.500000
vt 0.125806 0.875556
vt 0.125806 0.750000
vt 0.125806 0.625556
vt 0.125806 0.500000
vt 0.125806 1.000000
vt 0.250538 0.875556
vt 0.250538 0.750000
vt 0.250538 0.625556
vt 0.501075 0.875556
vt 0.501075 0.750000
vt 0.501075 0.625556
vt 0.000000 0.625556
vt 0.000000 0.750000
vt 0.000000 0.875556
vt 0.250538 0.875556
vt 0.250538 0.750000
vt 0.250538 0.625556
vt 0.501075 0.625556
vt 0.501075 0.750000
vt 0.501075 0.875556
vt 0.000000 0.875556
vt 0.000000 0.750000
vt 0.000000 0.625556
vt 0.250538 1.000000
vt 0.250538 0.500000
vt 0.501075 1.000000
vt 0.000000 1.000000
vt 0.375269 0.625556
vt 0.375269 0.750000
vt 0.375269 0.875556
vt 0.125806 1.000000
vt 0.125806 0.500000
vt 0.125806 0.625556
vt 0.125806 0.750000
vt 0.125806 0.875556
vt 0.125806 0.875556
vt 0.125806 0.750000
vt 0.125806 0.625556
vt 0.125806 0.500000
vt 0.125806 1.000000
vt 0.375269 0.875556
vt 0.375269 0.750000
vt 0.375269 0.625556
vt 0.375269 1.000000
vt 0.375269 0.500000
vt 0.375269 0.875556
vt 0.375269 0.750000
vt 0.375269 0.625556
vt 0.375269 1.000000
vt 0.375269 0.500000
vt 0.125806 0.875556
vt 0.125806 0.750000
vt 0.125806 0.625556
vt 0.125806 0.500000
vt 0.125806 1.000000
vt 0.250538 0.875556
vt 0.250538 0.750000
vt 0.250538 0.625556
vt 0.501075 0.875556
vt 0.501075 0.750000
vt 0.501075 0.625556
vt 0.000000 0.625556
vt 0.000000 0.750000
vt 0.000000 0.875556
vt 0.250538 0.875556
vt 0.250538 0.750000
vt 0.250538 0.625556
vt 0.501075 0.625556
vt 0.501075 0.750000
vt 0.501075 0.875556
vt 0.000000 0.875556
vt 0.000000 0.750000
vt 0.000000 0.625556
vt 0.250538 1.000000
vt 0.250538 0.500000
vt 0.501075 1.000000
vt 0.000000 1.000000
vt 0.000000 1.000000
vt 0.501075 1.000000
vt 0.250538 0.500000
vt 0.250538 1.000000
vt 0.000000 0.625556
vt 0.000000 0.750000
vt 0.000000 0.875556
vt 0.501075 0.875556
vt 0.501075 0.750000
vt 0.501075 0.625556
vt 0.250538 0.625556
vt 0.250538 0.750000
vt 0.250538 0.875556
vt 0.000000 0.875556
vt 0.000000 0.750000
vt 0.000000 0.625556
vt 0.501075 0.625556
vt 0.501075 0.750000
vt 0.501075 0.875556
vt 0.250538 0.625556
vt 0.250538 0.750000
vt 0.250538 0.875556
vt 0.125806 1.000000
vt 0.125806 0.500000
vt 0.125806 0.625556
vt 0.125806 0.750000
vt 0.125806 0.875556
vt 0.375269 0.500000
vt 0.375269 1.000000
vt 0.375269 0.625556
vt 0.375269 0.750000
vt 0.375269 0.875556
vt 0.375269 0.500000
vt 0.375269 1.000000
vt 0.125000 0.671875
vt 0.375000 0.671875
vt 0.125000 0.843750
vt 0.375000 0.843750
vt 0.250000 0.671875
vt 0.250000 0.843750
vt 0.125000 0.757812
vt 0.375000 0.757812
vt 0.250000 0.757812
vt 0.000000 0.500000
vt 0.501075 0.500000
vt 0.000000 1.000000
vt 0.501075 1.000000
vt 0.250538 0.500000
vt 0.250538 1.000000
vt 0.000000 0.500000
vt 0.501075 0.500000
vt 0.000000 1.000000
vt 0.501075 1.000000
vt 0.250538 0.500000
vt 0.250538 1.000000
vt 0.000000 0.500000
vt 0.501075 0.500000
vt 0.000000 1.000000
vt 0.501075 1.000000
vt 0.250538 0.500000
vt 0.250538 1.000000
vt 0.000000 0.500000
vt 0.501075 0.500000
vt 0.000000 1.000000
vt 0.501075 1.000000
vt 0.250538 0.500000
vt 0.250538 1.000000
s 0
f 2/2/1 6/6/1 5/5/1
f 5/5/1 3/3/1 1/1/1
f 12/12/2 8/8/2 11/11/2
f 9/9/2 11/11/2 7/7/2
f 14/14/3 18/18/3 17/17/3
f 17/17/3 15/15/3 13/13/3
f 24/24/4 20/20/4 23/23/4
f 21/21/4 23/23/4 19/19/4
f 40/40/5 66/66/5 69/69/5
f 45/45/6 70/70/6 74/74/6
f 61/61/7 51/51/7 64/64/7
f 55/55/8 54/54/8 59/59/8
f 29/29/9 72/72/9 71/71/9
f 43/43/10 73/73/10 72/72/10
f 44/44/9 74/74/9 73/73/9
f 65/65/11 42/42/11 67/67/11
f 67/67/12 41/41/12 68/68/12
f 68/68/11 40/40/11 69/69/11
f 57/57/13 35/35/13 56/56/13
f 58/58/14 52/52/14 57/57/14
f 59/59/13 53/53/13 58/58/13
f 60/60/15 62/62/15 49/49/15
f 62/62/16 50/50/16 49/49/16
f 63/63/15 51/51/15 50/50/15
f 46/46/17 58/58/17 47/47/17
f 47/47/18 57/57/18 48/48/18
f 112/112/8 87/87/8 83/83/8
f 33/33/19 59/59/19 46/46/19
f 53/53/20 64/64/20 63/63/20
f 52/52/21 63/63/21 62/62/21
f 35/35/20 62/62/20 60/60/20
f 36/36/22 64/64/22 54/54/22
f 44/44/23 69/69/23 45/45/23
f 43/43/24 68/68/24 44/44/24
f 29/29/23 67/67/23 43/43/23
f 69/69/25 30/30/25 45/45/25
f 73/73/26 39/39/26 38/38/26
f 72/72/27 38/38/27 37/37/27
f 117/117/7 91/91/7 88/88/7
f 74/74/28 27/27/28 39/39/28
f 85/85/29 119/119/29 120/120/29
f 25/25/30 90/90/30 114/114/30
f 105/105/31 94/94/31 95/95/31
f 111/111/32 99/99/32 110/110/32
f 88/88/22 26/26/22 112/112/22
f 100/100/33 122/122/33 101/101/33
f 90/90/34 116/116/34 89/89/34
f 120/120/35 86/86/35 85/85/35
f 98/98/33 104/104/33 99/99/33
f 97/97/36 95/95/36 108/108/36
f 104/104/37 93/93/37 94/94/37
f 96/96/5 106/106/5 93/93/5
f 37/37/26 71/71/26 72/72/26
f 121/121/25 93/93/25 103/103/25
f 114/114/38 84/84/38 85/85/38
f 25/25/39 85/85/39 86/86/39
f 92/92/40 115/115/40 90/90/40
f 113/113/39 83/83/39 84/84/39
f 113/113/30 88/88/30 112/112/30
f 122/122/37 95/95/37 97/97/37
f 56/56/17 48/48/17 57/57/17
f 102/102/6 103/103/6 98/98/6
f 111/111/28 102/102/28 98/98/28
f 110/110/41 100/100/41 109/109/41
f 89/89/40 117/117/40 88/88/40
f 99/99/42 105/105/42 100/100/42
f 84/84/35 118/118/35 119/119/35
f 114/114/43 89/89/43 113/113/43
f 95/95/44 107/107/44 108/108/44
f 94/94/36 106/106/36 107/107/36
f 101/101/32 109/109/32 100/100/32
f 83/83/19 32/32/19 118/118/19
f 134/134/45 168/168/45 169/169/45
f 164/164/46 139/139/46 163/163/46
f 154/154/47 143/143/47 144/144/47
f 161/161/48 149/149/48 160/160/48
f 78/78/49 140/140/49 164/164/49
f 150/150/50 172/172/50 151/151/50
f 140/140/51 166/166/51 139/139/51
f 182/182/52 208/208/52 127/127/52
f 148/148/50 154/154/50 149/149/50
f 147/147/53 145/145/53 158/158/53
f 174/174/54 148/148/54 161/161/54
f 146/146/52 156/156/52 143/143/52
f 167/167/55 141/141/55 138/138/55
f 172/172/47 145/145/47 147/147/47
f 164/164/56 134/134/56 135/135/56
f 78/78/57 135/135/57 136/136/57
f 142/142/58 165/165/58 140/140/58
f 163/163/57 133/133/57 134/134/57
f 171/171/59 143/143/59 153/153/59
f 155/155/60 144/144/60 145/145/60
f 162/162/61 137/137/61 133/133/61
f 152/152/62 153/153/62 148/148/62
f 187/187/62 128/128/62 132/132/62
f 160/160/63 150/150/63 159/159/63
f 139/139/58 167/167/58 138/138/58
f 149/149/64 155/155/64 150/150/64
f 138/138/65 77/77/65 162/162/65
f 163/163/49 138/138/49 162/162/49
f 145/145/66 157/157/66 158/158/66
f 144/144/53 156/156/53 157/157/53
f 133/133/67 80/80/67 168/168/67
f 135/135/68 169/169/68 170/170/68
f 204/204/69 192/192/69 191/191/69
f 200/200/70 194/194/70 199/199/70
f 151/151/48 159/159/48 150/150/48
f 207/207/71 184/184/71 125/125/71
f 131/131/72 181/181/72 180/180/72
f 195/195/73 206/206/73 205/205/73
f 201/201/74 195/195/74 200/200/74
f 198/198/75 190/190/75 199/199/75
f 170/170/45 136/136/45 135/135/45
f 178/178/65 206/206/65 196/196/65
f 177/177/73 204/204/73 202/202/73
f 194/194/76 205/205/76 204/204/76
f 130/130/77 180/180/77 179/179/77
f 188/188/67 197/197/67 201/201/67
f 199/199/74 177/177/74 198/198/74
f 127/127/59 81/81/59 187/187/59
f 179/179/72 129/129/72 130/130/72
f 125/125/78 183/183/78 126/126/78
f 189/189/79 199/199/79 190/190/79
f 197/197/61 196/196/61 201/201/61
f 82/82/80 125/125/80 185/185/80
f 188/188/75 200/200/75 189/189/75
f 186/186/80 127/127/80 187/187/80
f 186/186/81 132/132/81 131/131/81
f 202/202/82 204/204/82 191/191/82
f 203/203/55 193/193/55 206/206/55
f 185/185/83 126/126/83 186/186/83
f 126/126/71 182/182/71 127/127/71
f 185/185/84 131/131/84 130/130/84
f 82/82/81 130/130/81 129/129/81
f 181/181/54 128/128/54 75/75/54
f 205/205/82 193/193/82 192/192/82
f 217/217/85 212/212/85 216/216/85
f 211/211/86 217/217/86 215/215/86
f 209/209/87 217/217/87 213/213/87
f 217/217/88 210/210/88 213/213/88
f 2/2/1 4/4/1 6/6/1
f 5/5/1 6/6/1 3/3/1
f 12/12/2 10/10/2 8/8/2
f 9/9/2 12/12/2 11/11/2
f 14/14/3 16/16/3 18/18/3
f 17/17/3 18/18/3 15/15/3
f 24/24/4 22/22/4 20/20/4
f 21/21/4 24/24/4 23/23/4
f 40/40/5 28/28/5 66/66/5
f 45/45/6 30/30/6 70/70/6
f 61/61/7 34/34/7 51/51/7
f 55/55/8 36/36/8 54/54/8
f 29/29/9 43/43/9 72/72/9
f 43/43/10 44/44/10 73/73/10
f 44/44/9 45/45/9 74/74/9
f 67/67/12 42/42/12 41/41/12
f 68/68/11 41/41/11 40/40/11
f 57/57/13 52/52/13 35/35/13
f 58/58/14 53/53/14 52/52/14
f 59/59/13 54/54/13 53/53/13
f 62/62/16 63/63/16 50/50/16
f 63/63/15 64/64/15 51/51/15
f 46/46/17 59/59/17 58/58/17
f 47/47/18 58/58/18 57/57/18
f 112/112/8 26/26/8 87/87/8
f 33/33/19 55/55/19 59/59/19
f 53/53/20 54/54/20 64/64/20
f 52/52/21 53/53/21 63/63/21
f 35/35/20 52/52/20 62/62/20
f 36/36/22 61/61/22 64/64/22
f 44/44/23 68/68/23 69/69/23
f 43/43/24 67/67/24 68/68/24
f 29/29/23 65/65/23 67/67/23
f 69/69/25 66/66/25 30/30/25
f 73/73/26 74/74/26 39/39/26
f 72/72/27 73/73/27 38/38/27
f 117/117/7 31/31/7 91/91/7
f 74/74/28 70/70/28 27/27/28
f 85/85/29 84/84/29 119/119/29
f 25/25/30 92/92/30 90/90/30
f 105/105/31 104/104/31 94/94/31
f 111/111/32 98/98/32 99/99/32
f 88/88/22 91/91/22 26/26/22
f 100/100/33 105/105/33 122/122/33
f 90/90/34 115/115/34 116/116/34
f 98/98/33 103/103/33 104/104/33
f 104/104/37 103/103/37 93/93/37
f 96/96/5 123/123/5 106/106/5
f 121/121/25 96/96/25 93/93/25
f 114/114/38 113/113/38 84/84/38
f 25/25/39 114/114/39 85/85/39
f 113/113/39 112/112/39 83/83/39
f 113/113/30 89/89/30 88/88/30
f 122/122/37 105/105/37 95/95/37
f 102/102/6 121/121/6 103/103/6
f 111/111/28 124/124/28 102/102/28
f 110/110/41 99/99/41 100/100/41
f 89/89/40 116/116/40 117/117/40
f 99/99/42 104/104/42 105/105/42
f 84/84/35 83/83/35 118/118/35
f 114/114/43 90/90/43 89/89/43
f 95/95/44 94/94/44 107/107/44
f 94/94/36 93/93/36 106/106/36
f 83/83/19 87/87/19 32/32/19
f 134/134/45 133/133/45 168/168/45
f 164/164/46 140/140/46 139/139/46
f 154/154/47 153/153/47 143/143/47
f 161/161/48 148/148/48 149/149/48
f 78/78/49 142/142/49 140/140/49
f 150/150/50 155/155/50 172/172/50
f 140/140/51 165/165/51 166/166/51
f 182/182/52 76/76/52 208/208/52
f 148/148/50 153/153/50 154/154/50
f 174/174/54 152/152/54 148/148/54
f 146/146/52 173/173/52 156/156/52
f 167/167/55 79/79/55 141/141/55
f 172/172/47 155/155/47 145/145/47
f 164/164/56 163/163/56 134/134/56
f 78/78/57 164/164/57 135/135/57
f 163/163/57 162/162/57 133/133/57
f 171/171/59 146/146/59 143/143/59
f 155/155/60 154/154/60 144/144/60
f 162/162/61 77/77/61 137/137/61
f 152/152/62 171/171/62 153/153/62
f 187/187/62 81/81/62 128/128/62
f 160/160/63 149/149/63 150/150/63
f 139/139/58 166/166/58 167/167/58
f 149/149/64 154/154/64 155/155/64
f 138/138/65 141/141/65 77/77/65
f 163/163/49 139/139/49 138/138/49
f 145/145/66 144/144/66 157/157/66
f 144/144/53 143/143/53 156/156/53
f 133/133/67 137/137/67 80/80/67
f 135/135/68 134/134/68 169/169/68
f 204/204/69 205/205/69 192/192/69
f 200/200/70 195/195/70 194/194/70
f 131/131/72 132/132/72 181/181/72
f 195/195/73 196/196/73 206/206/73
f 201/201/74 196/196/74 195/195/74
f 178/178/65 203/203/65 206/206/65
f 177/177/73 194/194/73 204/204/73
f 194/194/76 195/195/76 205/205/76
f 130/130/77 131/131/77 180/180/77
f 188/188/67 175/175/67 197/197/67
f 199/199/74 194/194/74 177/177/74
f 127/127/59 208/208/59 81/81/59
f 125/125/78 184/184/78 183/183/78
f 189/189/79 200/200/79 199/199/79
f 197/197/61 178/178/61 196/196/61
f 82/82/80 207/207/80 125/125/80
f 188/188/75 201/201/75 200/200/75
f 186/186/80 126/126/80 127/127/80
f 186/186/81 187/187/81 132/132/81
f 203/203/55 176/176/55 193/193/55
f 185/185/83 125/125/83 126/126/83
f 126/126/71 183/183/71 182/182/71
f 185/185/84 186/186/84 131/131/84
f 82/82/81 185/185/81 130/130/81
f 181/181/54 132/132/54 128/128/54
f 205/205/82 206/206/82 193/193/82
f 217/217/89 214/214/89 212/212/89
f 211/211/90 214/214/90 217/217/90
f 209/209/91 215/215/91 217/217/91
f 217/217/92 216/216/92 210/210/92
f 219/219/93 223/223/93 222/222/93
f 222/222/93 220/220/93 218/218/93
f 229/229/94 225/225/94 228/228/94
f 226/226/94 228/228/94 224/224/94
f 231/231/95 235/235/95 234/234/95
f 234/234/95 232/232/95 230/230/95
f 241/241/96 237/237/96 240/240/96
f 238/238/96 240/240/96 236/236/96
f 219/219/93 221/221/93 223/223/93
f 222/222/93 223/223/93 220/220/93
f 229/229/94 227/227/94 225/225/94
f 226/226/94 229/229/94 228/228/94
f 231/231/95 233/233/95 235/235/95
f 234/234/95 235/235/95 232/232/95
f 241/241/96 239/239/96 237/237/96
f 238/238/96 241/241/96 240/240/96
