# Blender 3.1.0
# www.blender.org
o bush4
v -0.300000 0.000000 0.005000
v 0.300000 0.000000 0.005000
v -0.300000 1.000000 0.005000
v 0.300000 1.000000 0.005000
v -0.300000 0.000000 -0.005000
v 0.300000 0.000000 -0.005000
v -0.300000 1.000000 -0.005000
v 0.300000 1.000000 -0.005000
v 0.005000 0.000000 0.300000
v 0.005000 0.000000 -0.300000
v 0.005000 1.000000 0.300000
v 0.005000 1.000000 -0.300000
v -0.005000 0.000000 0.300000
v -0.005000 0.000000 -0.300000
v -0.005000 1.000000 0.300000
v -0.005000 1.000000 -0.300000
v 0.017000 0.750000 -0.300000
v -0.003000 0.500000 -0.300000
v -0.013000 0.250000 -0.300000
v -0.013000 0.250000 0.300000
v 0.017000 0.500000 0.300000
v 0.017000 0.750000 0.300000
v 0.017000 1.000000 0.150000
v 0.017000 1.000000 0.000000
v 0.017000 1.000000 -0.150000
v -0.153000 0.250000 -0.150000
v -0.203000 0.250000 0.000000
v -0.153000 0.250000 0.150000
v -0.193000 0.500000 -0.150000
v -0.243000 0.500000 0.000000
v -0.193000 0.500000 0.150000
v -0.123000 0.750000 -0.150000
v -0.173000 0.750000 0.000000
v -0.123000 0.750000 0.150000
v -0.024000 0.250000 -0.300000
v -0.014000 0.500000 -0.300000
v 0.006000 0.750000 -0.300000
v 0.006000 0.750000 0.300000
v 0.006000 0.500000 0.300000
v -0.024000 0.250000 0.300000
v 0.006000 1.000000 -0.150000
v 0.006000 1.000000 0.000000
v 0.006000 1.000000 0.150000
v -0.164000 0.250000 0.150000
v -0.214000 0.250000 0.000000
v -0.164000 0.250000 -0.150000
v -0.204000 0.500000 0.150000
v -0.254000 0.500000 -0.000000
v -0.204000 0.500000 -0.150000
v -0.134000 0.750000 0.150000
v -0.184000 0.750000 0.000000
v -0.134000 0.750000 -0.150000
v -0.134000 0.125000 0.150000
v -0.134000 0.125000 0.000000
v -0.134000 0.125000 -0.150000
v -0.123000 0.125000 0.150000
v -0.123000 0.125000 0.000000
v -0.123000 0.125000 -0.150000
v 0.006000 1.000000 -0.156871
v -0.017000 0.750000 0.300000
v 0.003000 0.500000 0.300000
v 0.013000 0.250000 0.300000
v 0.013000 0.250000 -0.300000
v -0.017000 0.500000 -0.300000
v -0.017000 0.750000 -0.300000
v -0.017000 1.000000 -0.150000
v -0.017000 1.000000 -0.000000
v -0.017000 1.000000 0.150000
v 0.153000 0.250000 0.150000
v 0.203000 0.250000 0.000000
v 0.153000 0.250000 -0.150000
v 0.193000 0.500000 0.150000
v 0.243000 0.500000 0.000000
v 0.193000 0.500000 -0.150000
v 0.123000 0.750000 0.150000
v 0.173000 0.750000 -0.000000
v 0.123000 0.750000 -0.150000
v 0.024000 0.250000 0.300000
v 0.014000 0.500000 0.300000
v -0.006000 0.750000 0.300000
v -0.006000 0.750000 -0.300000
v -0.006000 0.500000 -0.300000
v 0.024000 0.250000 -0.300000
v -0.006000 1.000000 0.150000
v -0.006000 1.000000 -0.000000
v -0.006000 1.000000 -0.150000
v 0.164000 0.250000 -0.150000
v 0.214000 0.250000 0.000000
v 0.164000 0.250000 0.150000
v 0.204000 0.500000 -0.150000
v 0.254000 0.500000 0.000000
v 0.204000 0.500000 0.150000
v 0.134000 0.750000 -0.150000
v 0.184000 0.750000 0.000000
v 0.134000 0.750000 0.150000
v 0.134000 0.125000 -0.150000
v 0.134000 0.125000 0.000000
v 0.134000 0.125000 0.150000
v 0.123000 0.125000 -0.150000
v 0.123000 0.125000 0.000000
v 0.123000 0.125000 0.150000
v -0.006000 1.000000 0.156871
v 0.300000 0.750000 0.017000
v 0.300000 0.500000 -0.003000
v 0.300000 0.250000 -0.013000
v -0.300000 0.250000 -0.013000
v -0.300000 0.500000 0.017000
v -0.300000 0.750000 0.017000
v -0.150000 1.000000 0.017000
v -0.000000 1.000000 0.017000
v 0.150000 1.000000 0.017000
v 0.150000 0.250000 -0.153000
v 0.000000 0.250000 -0.203000
v -0.150000 0.250000 -0.153000
v 0.150000 0.500000 -0.193000
v 0.000000 0.500000 -0.243000
v -0.150000 0.500000 -0.193000
v 0.150000 0.750000 -0.123000
v -0.000000 0.750000 -0.173000
v -0.150000 0.750000 -0.123000
v 0.300000 0.250000 -0.024000
v 0.300000 0.500000 -0.014000
v 0.300000 0.750000 0.006000
v -0.300000 0.750000 0.006000
v -0.300000 0.500000 0.006000
v -0.300000 0.250000 -0.024000
v 0.150000 1.000000 0.006000
v -0.000000 1.000000 0.006000
v -0.150000 1.000000 0.006000
v -0.150000 0.250000 -0.164000
v 0.000000 0.250000 -0.214000
v 0.150000 0.250000 -0.164000
v -0.150000 0.500000 -0.204000
v 0.000000 0.500000 -0.254000
v 0.150000 0.500000 -0.204000
v -0.150000 0.750000 -0.134000
v 0.000000 0.750000 -0.184000
v 0.150000 0.750000 -0.134000
v -0.150000 0.125000 -0.134000
v 0.000000 0.125000 -0.134000
v 0.150000 0.125000 -0.134000
v -0.150000 0.125000 -0.123000
v 0.000000 0.125000 -0.123000
v 0.150000 0.125000 -0.123000
v 0.156871 1.000000 0.006000
v -0.300000 0.750000 -0.017000
v -0.300000 0.500000 0.003000
v -0.300000 0.250000 0.013000
v 0.300000 0.250000 0.013000
v 0.300000 0.500000 -0.017000
v 0.300000 0.750000 -0.017000
v 0.150000 1.000000 -0.017000
v 0.000000 1.000000 -0.017000
v -0.150000 1.000000 -0.017000
v -0.150000 0.250000 0.153000
v -0.000000 0.250000 0.203000
v 0.150000 0.250000 0.153000
v -0.150000 0.500000 0.193000
v -0.000000 0.500000 0.243000
v 0.150000 0.500000 0.193000
v -0.150000 0.750000 0.123000
v 0.000000 0.750000 0.173000
v 0.150000 0.750000 0.123000
v -0.300000 0.250000 0.024000
v -0.300000 0.500000 0.014000
v -0.300000 0.750000 -0.006000
v 0.300000 0.750000 -0.006000
v 0.300000 0.500000 -0.006000
v 0.300000 0.250000 0.024000
v -0.150000 1.000000 -0.006000
v 0.000000 1.000000 -0.006000
v 0.150000 1.000000 -0.006000
v 0.150000 0.250000 0.164000
v -0.000000 0.250000 0.214000
v -0.150000 0.250000 0.164000
v 0.150000 0.500000 0.204000
v -0.000000 0.500000 0.254000
v -0.150000 0.500000 0.204000
v 0.150000 0.750000 0.134000
v -0.000000 0.750000 0.184000
v -0.150000 0.750000 0.134000
v 0.150000 0.125000 0.134000
v -0.000000 0.125000 0.134000
v -0.150000 0.125000 0.134000
v 0.150000 0.125000 0.123000
v -0.000000 0.125000 0.123000
v -0.150000 0.125000 0.123000
v -0.156871 1.000000 -0.006000
v -0.215668 0.000000 -0.208597
v 0.208597 0.000000 0.215668
v -0.215668 1.000000 -0.208596
v 0.208596 1.000000 0.215668
v -0.208596 0.000000 -0.215668
v 0.215668 0.000000 0.208596
v -0.208597 1.000000 -0.215668
v 0.215668 1.000000 0.208597
v -0.208597 0.000000 0.215668
v 0.215668 0.000000 -0.208597
v -0.208596 1.000000 0.215668
v 0.215668 1.000000 -0.208596
v -0.215668 0.000000 0.208596
v 0.208596 0.000000 -0.215668
v -0.215668 1.000000 0.208597
v 0.208597 1.000000 -0.215668
vn -0.0000 -0.0000 1.0000
vn -0.0000 -0.0000 -1.0000
vn 1.0000 -0.0000 -0.0000
vn -1.0000 -0.0000 -0.0000
vn -0.6809 0.3639 -0.6355
vn 0.6766 -0.3789 0.6315
vn 0.6166 0.0987 0.7811
vn 0.6105 -0.1709 0.7733
vn 0.7311 -0.0000 -0.6823
vn 0.9169 -0.2567 -0.3056
vn 0.9169 -0.2567 0.3056
vn 0.7283 -0.0874 -0.6797
vn 0.9379 0.1501 -0.3126
vn 0.9379 0.1501 0.3126
vn 0.9724 0.2334 -0.0000
vn 0.8109 0.5190 0.2703
vn 0.6766 -0.3789 -0.6315
vn 0.8725 -0.4886 -0.0000
vn 0.7695 -0.5848 0.2565
vn 0.7201 0.1728 -0.6721
vn -0.7307 0.0292 -0.6820
vn -0.6105 0.1709 -0.7733
vn -0.5737 0.1606 0.8032
vn -0.9169 0.2567 0.3056
vn -0.9169 0.2567 -0.3056
vn -0.7283 0.0874 0.6797
vn -0.9379 -0.1501 0.3126
vn -0.9379 -0.1501 -0.3126
vn 0.7201 0.1728 0.6721
vn -0.9724 -0.2334 -0.0000
vn -0.6766 0.3789 0.6315
vn -0.7695 0.5848 0.2565
vn -0.7695 0.5848 -0.2565
vn -0.7201 -0.1728 -0.6721
vn -0.7201 -0.1728 0.6721
vn 0.6809 0.3639 0.6355
vn -0.6766 -0.3789 -0.6315
vn -0.6166 0.0987 -0.7811
vn -0.6105 -0.1709 -0.7733
vn -0.7311 -0.0000 0.6823
vn -0.9169 -0.2567 0.3056
vn -0.9169 -0.2567 -0.3056
vn -0.7283 -0.0874 0.6797
vn -0.9379 0.1501 0.3126
vn -0.9379 0.1501 -0.3126
vn -0.9724 0.2334 -0.0000
vn -0.8109 0.5190 -0.2703
vn -0.6766 -0.3789 0.6315
vn -0.8725 -0.4886 -0.0000
vn -0.7695 -0.5848 -0.2565
vn -0.7201 0.1728 0.6721
vn 0.7307 0.0292 0.6820
vn 0.6105 0.1709 0.7733
vn 0.5737 0.1606 -0.8032
vn 0.9169 0.2567 -0.3056
vn 0.9169 0.2567 0.3056
vn 0.7283 0.0874 -0.6797
vn 0.9379 -0.1501 -0.3126
vn 0.9379 -0.1501 0.3126
vn -0.7201 0.1728 -0.6721
vn 0.9724 -0.2334 -0.0000
vn 0.6766 0.3789 -0.6315
vn 0.7695 0.5848 -0.2565
vn 0.7695 0.5848 0.2565
vn 0.7201 -0.1728 0.6721
vn 0.7201 -0.1728 -0.6721
vn 0.6355 0.3639 -0.6809
vn -0.6315 -0.3789 0.6766
vn -0.7811 0.0987 0.6166
vn -0.7733 -0.1709 0.6105
vn 0.6823 -0.0000 0.7311
vn 0.3056 -0.2567 0.9169
vn -0.3056 -0.2567 0.9169
vn 0.6797 -0.0874 0.7283
vn 0.3126 0.1501 0.9379
vn -0.3126 0.1501 0.9379
vn -0.0000 0.2334 0.9724
vn -0.2703 0.5190 0.8109
vn 0.6315 -0.3789 0.6766
vn -0.0000 -0.4886 0.8725
vn -0.2565 -0.5848 0.7695
vn 0.6721 0.1728 0.7201
vn 0.6820 0.0292 -0.7307
vn 0.7733 0.1709 -0.6105
vn -0.8032 0.1606 -0.5737
vn -0.3056 0.2567 -0.9169
vn 0.3056 0.2567 -0.9169
vn -0.6797 0.0874 -0.7283
vn -0.3126 -0.1501 -0.9379
vn 0.3126 -0.1501 -0.9379
vn -0.6721 0.1728 0.7201
vn -0.0000 -0.2334 -0.9724
vn -0.6315 0.3789 -0.6766
vn -0.2565 0.5848 -0.7695
vn 0.2565 0.5848 -0.7695
vn 0.6721 -0.1728 -0.7201
vn -0.6721 -0.1728 -0.7201
vn -0.6355 0.3639 0.6809
vn 0.6315 -0.3789 -0.6766
vn 0.7811 0.0987 -0.6166
vn 0.7733 -0.1709 -0.6105
vn -0.6823 -0.0000 -0.7311
vn -0.3056 -0.2567 -0.9169
vn 0.3056 -0.2567 -0.9169
vn -0.6797 -0.0874 -0.7283
vn -0.3126 0.1501 -0.9379
vn 0.3126 0.1501 -0.9379
vn -0.0000 0.2334 -0.9724
vn 0.2703 0.5190 -0.8109
vn -0.6315 -0.3789 -0.6766
vn -0.0000 -0.4886 -0.8725
vn 0.2565 -0.5848 -0.7695
vn -0.6721 0.1728 -0.7201
vn -0.6820 0.0292 0.7307
vn -0.7733 0.1709 0.6105
vn 0.8032 0.1606 0.5737
vn 0.3056 0.2567 0.9169
vn -0.3056 0.2567 0.9169
vn 0.6797 0.0874 0.7283
vn 0.3126 -0.1501 0.9379
vn -0.3126 -0.1501 0.9379
vn 0.6721 0.1728 -0.7201
vn -0.0000 -0.2334 0.9724
vn 0.6315 0.3789 0.6766
vn 0.2565 0.5848 0.7695
vn -0.2565 0.5848 0.7695
vn -0.6721 -0.1728 0.7201
vn 0.6721 -0.1728 0.7201
vn -0.7071 -0.0000 0.7071
vn 0.7071 -0.0000 -0.7071
vn 0.7071 -0.0000 0.7071
vn -0.7071 -0.0000 -0.7071
vn -0.8725 0.4886 -0.0000
vn 0.7307 -0.0292 0.6820
vn 0.7298 -0.0584 0.6812
vn 0.5737 -0.1606 -0.8032
vn 0.5787 0.0926 -0.8102
vn 0.8109 0.5190 -0.2703
vn 0.7695 -0.5848 -0.2565
vn -0.6166 -0.0987 -0.7811
vn -0.7298 0.0584 -0.6812
vn -0.5787 -0.0926 0.8102
vn -0.8109 -0.5190 0.2703
vn -0.8109 -0.5190 -0.2703
vn 0.8725 0.4886 -0.0000
vn -0.7307 -0.0292 -0.6820
vn -0.7298 -0.0584 -0.6812
vn -0.5737 -0.1606 0.8032
vn -0.5787 0.0926 0.8102
vn -0.8109 0.5190 0.2703
vn -0.7695 -0.5848 0.2565
vn 0.6166 -0.0987 0.7811
vn 0.7298 0.0584 0.6812
vn 0.5787 -0.0926 -0.8102
vn 0.8109 -0.5190 -0.2703
vn 0.8109 -0.5190 0.2703
vn -0.0000 0.4886 -0.8725
vn -0.6820 -0.0292 0.7307
vn -0.6812 -0.0584 0.7298
vn 0.8032 -0.1606 0.5737
vn 0.8102 0.0926 0.5787
vn 0.2703 0.5190 0.8109
vn 0.2565 -0.5848 0.7695
vn 0.7811 -0.0987 -0.6166
vn 0.6812 0.0584 -0.7298
vn -0.8102 -0.0926 -0.5787
vn -0.2703 -0.5190 -0.8109
vn 0.2703 -0.5190 -0.8109
vn -0.0000 0.4886 0.8725
vn 0.6820 -0.0292 -0.7307
vn 0.6812 -0.0584 -0.7298
vn -0.8032 -0.1606 -0.5737
vn -0.8102 0.0926 -0.5787
vn -0.2703 0.5190 -0.8109
vn -0.2565 -0.5848 -0.7695
vn -0.7811 -0.0987 0.6166
vn -0.6812 0.0584 0.7298
vn 0.8102 -0.0926 0.5787
vn 0.2703 -0.5190 0.8109
vn -0.2703 -0.5190 0.8109
vt 0.000000 0.500000
vt 0.500000 0.500000
vt 0.000000 1.000000
vt 0.500000 1.000000
vt 0.000000 0.500000
vt 0.500000 0.500000
vt 0.000000 1.000000
vt 0.500000 1.000000
vt 0.000000 0.500000
vt 0.500000 0.500000
vt 0.000000 1.000000
vt 0.500000 1.000000
vt 0.000000 0.500000
vt 0.500000 0.500000
vt 0.000000 1.000000
vt 0.500000 1.000000
vt 1.000000 0.875000
vt 1.000000 0.750000
vt 1.000000 0.625000
vt 0.500000 0.625000
vt 0.500000 0.750000
vt 0.500000 0.875000
vt 0.625000 1.000000
vt 0.750000 1.000000
vt 0.875000 1.000000
vt 0.875000 0.625000
vt 0.750000 0.625000
vt 0.625000 0.625000
vt 0.875000 0.750000
vt 0.750000 0.750000
vt 0.625000 0.750000
vt 0.875000 0.875000
vt 0.750000 0.875000
vt 0.625000 0.875000
vt 1.000000 0.625000
vt 1.000000 0.750000
vt 1.000000 0.875000
vt 0.500000 0.875000
vt 0.500000 0.750000
vt 0.500000 0.625000
vt 0.875000 1.000000
vt 0.750000 1.000000
vt 0.625000 1.000000
vt 0.625000 0.625000
vt 0.750000 0.625000
vt 0.875000 0.625000
vt 0.625000 0.750000
vt 0.750000 0.750000
vt 0.875000 0.750000
vt 0.625000 0.875000
vt 0.750000 0.875000
vt 0.875000 0.875000
vt 0.625000 0.562500
vt 0.750000 0.562500
vt 0.875000 0.562500
vt 0.625000 0.562500
vt 0.750000 0.562500
vt 0.875000 0.562500
vt 0.875000 1.000000
vt 1.000000 0.875000
vt 1.000000 0.750000
vt 1.000000 0.625000
vt 0.500000 0.625000
vt 0.500000 0.750000
vt 0.500000 0.875000
vt 0.625000 1.000000
vt 0.750000 1.000000
vt 0.875000 1.000000
vt 0.875000 0.625000
vt 0.750000 0.625000
vt 0.625000 0.625000
vt 0.875000 0.750000
vt 0.750000 0.750000
vt 0.625000 0.750000
vt 0.875000 0.875000
vt 0.750000 0.875000
vt 0.625000 0.875000
vt 1.000000 0.625000
vt 1.000000 0.750000
vt 1.000000 0.875000
vt 0.500000 0.875000
vt 0.500000 0.750000
vt 0.500000 0.625000
vt 0.875000 1.000000
vt 0.750000 1.000000
vt 0.625000 1.000000
vt 0.625000 0.625000
vt 0.750000 0.625000
vt 0.875000 0.625000
vt 0.625000 0.750000
vt 0.750000 0.750000
vt 0.875000 0.750000
vt 0.625000 0.875000
vt 0.750000 0.875000
vt 0.875000 0.875000
vt 0.625000 0.562500
vt 0.750000 0.562500
vt 0.875000 0.562500
vt 0.625000 0.562500
vt 0.750000 0.562500
vt 0.875000 0.562500
vt 0.875000 1.000000
vt 1.000000 0.875000
vt 1.000000 0.750000
vt 1.000000 0.625000
vt 0.500000 0.625000
vt 0.500000 0.750000
vt 0.500000 0.875000
vt 0.625000 1.000000
vt 0.750000 1.000000
vt 0.875000 1.000000
vt 0.875000 0.625000
vt 0.750000 0.625000
vt 0.625000 0.625000
vt 0.875000 0.750000
vt 0.750000 0.750000
vt 0.625000 0.750000
vt 0.875000 0.875000
vt 0.750000 0.875000
vt 0.625000 0.875000
vt 1.000000 0.625000
vt 1.000000 0.750000
vt 1.000000 0.875000
vt 0.500000 0.875000
vt 0.500000 0.750000
vt 0.500000 0.625000
vt 0.875000 1.000000
vt 0.750000 1.000000
vt 0.625000 1.000000
vt 0.625000 0.625000
vt 0.750000 0.625000
vt 0.875000 0.625000
vt 0.625000 0.750000
vt 0.750000 0.750000
vt 0.875000 0.750000
vt 0.625000 0.875000
vt 0.750000 0.875000
vt 0.875000 0.875000
vt 0.625000 0.562500
vt 0.750000 0.562500
vt 0.875000 0.562500
vt 0.625000 0.562500
vt 0.750000 0.562500
vt 0.875000 0.562500
vt 0.875000 1.000000
vt 1.000000 0.875000
vt 1.000000 0.750000
vt 1.000000 0.625000
vt 0.500000 0.625000
vt 0.500000 0.750000
vt 0.500000 0.875000
vt 0.625000 1.000000
vt 0.750000 1.000000
vt 0.875000 1.000000
vt 0.875000 0.625000
vt 0.750000 0.625000
vt 0.625000 0.625000
vt 0.875000 0.750000
vt 0.750000 0.750000
vt 0.625000 0.750000
vt 0.875000 0.875000
vt 0.750000 0.875000
vt 0.625000 0.875000
vt 1.000000 0.625000
vt 1.000000 0.750000
vt 1.000000 0.875000
vt 0.500000 0.875000
vt 0.500000 0.750000
vt 0.500000 0.625000
vt 0.875000 1.000000
vt 0.750000 1.000000
vt 0.625000 1.000000
vt 0.625000 0.625000
vt 0.750000 0.625000
vt 0.875000 0.625000
vt 0.625000 0.750000
vt 0.750000 0.750000
vt 0.875000 0.750000
vt 0.625000 0.875000
vt 0.750000 0.875000
vt 0.875000 0.875000
vt 0.625000 0.562500
vt 0.750000 0.562500
vt 0.875000 0.562500
vt 0.625000 0.562500
vt 0.750000 0.562500
vt 0.875000 0.562500
vt 0.875000 1.000000
vt 0.000000 0.500000
vt 0.500000 0.500000
vt 0.000000 1.000000
vt 0.500000 1.000000
vt 0.000000 0.500000
vt 0.500000 0.500000
vt 0.000000 1.000000
vt 0.500000 1.000000
vt 0.000000 0.500000
vt 0.500000 0.500000
vt 0.000000 1.000000
vt 0.500000 1.000000
vt 0.000000 0.500000
vt 0.500000 0.500000
vt 0.000000 1.000000
vt 0.500000 1.000000
s 0
f 2/2/1 3/3/1 1/1/1
f 7/7/2 6/6/2 5/5/2
f 10/10/3 11/11/3 9/9/3
f 15/15/4 14/14/4 13/13/4
f 52/52/5 59/59/5 37/37/5
f 32/32/6 17/17/6 25/25/6
f 26/26/7 18/18/7 29/29/7
f 18/18/8 32/32/8 29/29/8
f 21/21/9 34/34/9 22/22/9
f 31/31/10 33/33/10 34/34/10
f 29/29/11 33/33/11 30/30/11
f 28/28/12 21/21/12 20/20/12
f 27/27/13 31/31/13 28/28/13
f 27/27/14 29/29/14 30/30/14
f 57/57/15 28/28/15 56/56/15
f 57/57/16 26/26/16 27/27/16
f 22/22/17 34/34/17 23/23/17
f 34/34/18 24/24/18 23/23/18
f 32/32/19 24/24/19 33/33/19
f 20/20/20 56/56/20 28/28/20
f 46/46/21 36/36/21 35/35/21
f 52/52/22 36/36/22 49/49/22
f 39/39/23 50/50/23 47/47/23
f 47/47/24 51/51/24 48/48/24
f 51/51/25 49/49/25 48/48/25
f 39/39/26 44/44/26 40/40/26
f 47/47/27 45/45/27 44/44/27
f 45/45/28 49/49/28 46/46/28
f 19/19/29 26/26/29 58/58/29
f 44/44/30 54/54/30 53/53/30
f 54/54/30 46/46/30 55/55/30
f 38/38/31 43/43/31 50/50/31
f 50/50/32 42/42/32 51/51/32
f 42/42/33 52/52/33 51/51/33
f 35/35/34 55/55/34 46/46/34
f 53/53/35 40/40/35 44/44/35
f 95/95/36 102/102/36 80/80/36
f 75/75/37 60/60/37 68/68/37
f 69/69/38 61/61/38 72/72/38
f 61/61/39 75/75/39 72/72/39
f 64/64/40 77/77/40 65/65/40
f 74/74/41 76/76/41 77/77/41
f 72/72/42 76/76/42 73/73/42
f 71/71/43 64/64/43 63/63/43
f 70/70/44 74/74/44 71/71/44
f 70/70/45 72/72/45 73/73/45
f 100/100/46 71/71/46 99/99/46
f 100/100/47 69/69/47 70/70/47
f 65/65/48 77/77/48 66/66/48
f 77/77/49 67/67/49 66/66/49
f 75/75/50 67/67/50 76/76/50
f 63/63/51 99/99/51 71/71/51
f 89/89/52 79/79/52 78/78/52
f 95/95/53 79/79/53 92/92/53
f 82/82/54 93/93/54 90/90/54
f 90/90/55 94/94/55 91/91/55
f 94/94/56 92/92/56 91/91/56
f 82/82/57 87/87/57 83/83/57
f 90/90/58 88/88/58 87/87/58
f 88/88/59 92/92/59 89/89/59
f 62/62/60 69/69/60 101/101/60
f 87/87/61 97/97/61 96/96/61
f 97/97/61 89/89/61 98/98/61
f 81/81/62 86/86/62 93/93/62
f 93/93/63 85/85/63 94/94/63
f 85/85/64 95/95/64 94/94/64
f 78/78/65 98/98/65 89/89/65
f 96/96/66 83/83/66 87/87/66
f 138/138/67 145/145/67 123/123/67
f 118/118/68 103/103/68 111/111/68
f 112/112/69 104/104/69 115/115/69
f 104/104/70 118/118/70 115/115/70
f 107/107/71 120/120/71 108/108/71
f 117/117/72 119/119/72 120/120/72
f 115/115/73 119/119/73 116/116/73
f 114/114/74 107/107/74 106/106/74
f 113/113/75 117/117/75 114/114/75
f 113/113/76 115/115/76 116/116/76
f 143/143/77 114/114/77 142/142/77
f 143/143/78 112/112/78 113/113/78
f 108/108/79 120/120/79 109/109/79
f 120/120/80 110/110/80 109/109/80
f 118/118/81 110/110/81 119/119/81
f 106/106/82 142/142/82 114/114/82
f 132/132/83 122/122/83 121/121/83
f 138/138/84 122/122/84 135/135/84
f 125/125/85 136/136/85 133/133/85
f 133/133/86 137/137/86 134/134/86
f 137/137/87 135/135/87 134/134/87
f 125/125/88 130/130/88 126/126/88
f 133/133/89 131/131/89 130/130/89
f 131/131/90 135/135/90 132/132/90
f 105/105/91 112/112/91 144/144/91
f 130/130/92 140/140/92 139/139/92
f 140/140/92 132/132/92 141/141/92
f 124/124/93 129/129/93 136/136/93
f 136/136/94 128/128/94 137/137/94
f 128/128/95 138/138/95 137/137/95
f 121/121/96 141/141/96 132/132/96
f 139/139/97 126/126/97 130/130/97
f 181/181/98 188/188/98 166/166/98
f 161/161/99 146/146/99 154/154/99
f 155/155/100 147/147/100 158/158/100
f 147/147/101 161/161/101 158/158/101
f 150/150/102 163/163/102 151/151/102
f 160/160/103 162/162/103 163/163/103
f 158/158/104 162/162/104 159/159/104
f 157/157/105 150/150/105 149/149/105
f 156/156/106 160/160/106 157/157/106
f 156/156/107 158/158/107 159/159/107
f 186/186/108 157/157/108 185/185/108
f 186/186/109 155/155/109 156/156/109
f 151/151/110 163/163/110 152/152/110
f 163/163/111 153/153/111 152/152/111
f 161/161/112 153/153/112 162/162/112
f 149/149/113 185/185/113 157/157/113
f 175/175/114 165/165/114 164/164/114
f 181/181/115 165/165/115 178/178/115
f 168/168/116 179/179/116 176/176/116
f 176/176/117 180/180/117 177/177/117
f 180/180/118 178/178/118 177/177/118
f 168/168/119 173/173/119 169/169/119
f 176/176/120 174/174/120 173/173/120
f 174/174/121 178/178/121 175/175/121
f 148/148/122 155/155/122 187/187/122
f 173/173/123 183/183/123 182/182/123
f 183/183/123 175/175/123 184/184/123
f 167/167/124 172/172/124 179/179/124
f 179/179/125 171/171/125 180/180/125
f 171/171/126 181/181/126 180/180/126
f 164/164/127 184/184/127 175/175/127
f 182/182/128 169/169/128 173/173/128
f 189/189/129 192/192/129 191/191/129
f 193/193/130 196/196/130 194/194/130
f 198/198/131 199/199/131 197/197/131
f 203/203/132 202/202/132 201/201/132
f 2/2/1 4/4/1 3/3/1
f 7/7/2 8/8/2 6/6/2
f 10/10/3 12/12/3 11/11/3
f 15/15/4 16/16/4 14/14/4
f 52/52/133 41/41/133 59/59/133
f 26/26/134 19/19/134 18/18/134
f 18/18/135 17/17/135 32/32/135
f 21/21/136 31/31/136 34/34/136
f 31/31/10 30/30/10 33/33/10
f 29/29/11 32/32/11 33/33/11
f 28/28/137 31/31/137 21/21/137
f 27/27/13 30/30/13 31/31/13
f 27/27/14 26/26/14 29/29/14
f 57/57/138 27/27/138 28/28/138
f 57/57/15 58/58/15 26/26/15
f 34/34/139 33/33/139 24/24/139
f 32/32/18 25/25/18 24/24/18
f 46/46/140 49/49/140 36/36/140
f 52/52/141 37/37/141 36/36/141
f 39/39/40 38/38/40 50/50/40
f 47/47/24 50/50/24 51/51/24
f 51/51/25 52/52/25 49/49/25
f 39/39/142 47/47/142 44/44/142
f 47/47/27 48/48/27 45/45/27
f 45/45/28 48/48/28 49/49/28
f 44/44/143 45/45/143 54/54/143
f 54/54/144 45/45/144 46/46/144
f 50/50/133 43/43/133 42/42/133
f 42/42/133 41/41/133 52/52/133
f 95/95/145 84/84/145 102/102/145
f 69/69/146 62/62/146 61/61/146
f 61/61/147 60/60/147 75/75/147
f 64/64/148 74/74/148 77/77/148
f 74/74/41 73/73/41 76/76/41
f 72/72/42 75/75/42 76/76/42
f 71/71/149 74/74/149 64/64/149
f 70/70/44 73/73/44 74/74/44
f 70/70/45 69/69/45 72/72/45
f 100/100/150 70/70/150 71/71/150
f 100/100/46 101/101/46 69/69/46
f 77/77/151 76/76/151 67/67/151
f 75/75/49 68/68/49 67/67/49
f 89/89/152 92/92/152 79/79/152
f 95/95/153 80/80/153 79/79/153
f 82/82/9 81/81/9 93/93/9
f 90/90/55 93/93/55 94/94/55
f 94/94/56 95/95/56 92/92/56
f 82/82/154 90/90/154 87/87/154
f 90/90/58 91/91/58 88/88/58
f 88/88/59 91/91/59 92/92/59
f 87/87/155 88/88/155 97/97/155
f 97/97/156 88/88/156 89/89/156
f 93/93/145 86/86/145 85/85/145
f 85/85/145 84/84/145 95/95/145
f 138/138/157 127/127/157 145/145/157
f 112/112/158 105/105/158 104/104/158
f 104/104/159 103/103/159 118/118/159
f 107/107/160 117/117/160 120/120/160
f 117/117/72 116/116/72 119/119/72
f 115/115/73 118/118/73 119/119/73
f 114/114/161 117/117/161 107/107/161
f 113/113/75 116/116/75 117/117/75
f 113/113/76 112/112/76 115/115/76
f 143/143/162 113/113/162 114/114/162
f 143/143/77 144/144/77 112/112/77
f 120/120/163 119/119/163 110/110/163
f 118/118/80 111/111/80 110/110/80
f 132/132/164 135/135/164 122/122/164
f 138/138/165 123/123/165 122/122/165
f 125/125/102 124/124/102 136/136/102
f 133/133/86 136/136/86 137/137/86
f 137/137/87 138/138/87 135/135/87
f 125/125/166 133/133/166 130/130/166
f 133/133/89 134/134/89 131/131/89
f 131/131/90 134/134/90 135/135/90
f 130/130/167 131/131/167 140/140/167
f 140/140/168 131/131/168 132/132/168
f 136/136/157 129/129/157 128/128/157
f 128/128/157 127/127/157 138/138/157
f 181/181/169 170/170/169 188/188/169
f 155/155/170 148/148/170 147/147/170
f 147/147/171 146/146/171 161/161/171
f 150/150/172 160/160/172 163/163/172
f 160/160/103 159/159/103 162/162/103
f 158/158/104 161/161/104 162/162/104
f 157/157/173 160/160/173 150/150/173
f 156/156/106 159/159/106 160/160/106
f 156/156/107 155/155/107 158/158/107
f 186/186/174 156/156/174 157/157/174
f 186/186/108 187/187/108 155/155/108
f 163/163/175 162/162/175 153/153/175
f 161/161/111 154/154/111 153/153/111
f 175/175/176 178/178/176 165/165/176
f 181/181/177 166/166/177 165/165/177
f 168/168/71 167/167/71 179/179/71
f 176/176/117 179/179/117 180/180/117
f 180/180/118 181/181/118 178/178/118
f 168/168/178 176/176/178 173/173/178
f 176/176/120 177/177/120 174/174/120
f 174/174/121 177/177/121 178/178/121
f 173/173/179 174/174/179 183/183/179
f 183/183/180 174/174/180 175/175/180
f 179/179/169 172/172/169 171/171/169
f 171/171/169 170/170/169 181/181/169
f 189/189/129 190/190/129 192/192/129
f 193/193/130 195/195/130 196/196/130
f 198/198/131 200/200/131 199/199/131
f 203/203/132 204/204/132 202/202/132
