# Blender 3.1.0
# www.blender.org
o bush2
v -0.500000 0.000000 0.010000
v 0.500000 0.000000 0.010000
v -0.500000 0.700000 0.010000
v 0.500000 0.700000 0.010000
v -0.500000 0.000000 -0.010000
v 0.500000 0.000000 -0.010000
v -0.500000 0.700000 -0.010000
v 0.500000 0.700000 -0.010000
v -0.500000 0.000000 0.010000
v 0.500000 0.000000 0.010000
v -0.500000 0.700000 0.010000
v 0.500000 0.700000 0.010000
v -0.500000 0.000000 -0.010000
v 0.500000 0.000000 -0.010000
v -0.500000 0.700000 -0.010000
v 0.500000 0.700000 -0.010000
v -0.080000 0.000000 -0.500000
v -0.080000 0.000000 0.500000
v -0.060000 0.000000 -0.500000
v -0.060000 0.000000 0.500000
v -0.280000 0.000000 0.250000
v -0.380000 0.000000 0.000000
v -0.280000 0.000000 -0.250000
v 0.050000 0.700000 -0.250000
v -0.050000 0.700000 -0.000000
v 0.050000 0.700000 0.250000
v -0.210000 0.175000 -0.500000
v -0.140000 0.350000 -0.500000
v 0.020000 0.525000 -0.500000
v 0.020000 0.525000 0.500000
v -0.140000 0.350000 0.500000
v -0.210000 0.175000 0.500000
v -0.410000 0.175000 -0.250000
v -0.340000 0.350000 -0.250000
v -0.180000 0.525000 -0.250000
v -0.510000 0.175000 -0.000000
v -0.440000 0.350000 -0.000000
v -0.280000 0.525000 -0.000000
v -0.410000 0.175000 0.250000
v -0.340000 0.350000 0.250000
v -0.180000 0.525000 0.250000
v -0.260000 0.000000 -0.250000
v -0.360000 0.000000 0.000000
v -0.260000 0.000000 0.250000
v 0.070000 0.700000 0.250000
v -0.030000 0.700000 0.000000
v 0.070000 0.700000 -0.250000
v 0.040000 0.525000 -0.500000
v -0.120000 0.350000 -0.500000
v -0.190000 0.175000 -0.500000
v -0.190000 0.175000 0.500000
v -0.120000 0.350000 0.500000
v 0.040000 0.525000 0.500000
v -0.160000 0.525000 -0.250000
v -0.320000 0.350000 -0.250000
v -0.390000 0.175000 -0.250000
v -0.260000 0.525000 0.000000
v -0.420000 0.350000 0.000000
v -0.490000 0.175000 0.000000
v -0.160000 0.525000 0.250000
v -0.320000 0.350000 0.250000
v -0.390000 0.175000 0.250000
v -0.010000 0.000000 -0.500000
v -0.010000 0.000000 0.500000
v -0.010000 0.700000 -0.500000
v -0.010000 0.700000 0.500000
v 0.010000 0.000000 -0.500000
v 0.010000 0.000000 0.500000
v 0.010000 0.700000 -0.500000
v 0.010000 0.700000 0.500000
v 0.346482 0.000000 -0.360624
v -0.360624 0.000000 0.346482
v 0.346482 0.700000 -0.360624
v -0.360624 0.700000 0.346482
v 0.360624 0.000000 -0.346482
v -0.346482 0.000000 0.360624
v 0.360624 0.700000 -0.346482
v -0.346482 0.700000 0.360624
v -0.360624 0.000000 -0.346482
v 0.346482 0.000000 0.360624
v -0.360624 0.700000 -0.346482
v 0.346482 0.700000 0.360624
v -0.346482 0.000000 -0.360624
v 0.360624 0.000000 0.346482
v -0.346482 0.700000 -0.360624
v 0.360624 0.700000 0.346482
v 0.080000 0.000000 0.500000
v 0.080000 0.000000 -0.500000
v 0.060000 0.000000 0.500000
v 0.060000 0.000000 -0.500000
v 0.280000 -0.000000 -0.250000
v 0.380000 0.000000 0.000000
v 0.280000 0.000000 0.250000
v -0.050000 0.700000 0.250000
v 0.050000 0.700000 0.000000
v -0.050000 0.700000 -0.250000
v 0.210000 0.175000 0.500000
v 0.140000 0.350000 0.500000
v -0.020000 0.525000 0.500000
v -0.020000 0.525000 -0.500000
v 0.140000 0.350000 -0.500000
v 0.210000 0.175000 -0.500000
v 0.410000 0.175000 0.250000
v 0.340000 0.350000 0.250000
v 0.180000 0.525000 0.250000
v 0.510000 0.175000 0.000000
v 0.440000 0.350000 0.000000
v 0.280000 0.525000 0.000000
v 0.410000 0.175000 -0.250000
v 0.340000 0.350000 -0.250000
v 0.180000 0.525000 -0.250000
v 0.260000 0.000000 0.250000
v 0.360000 0.000000 0.000000
v 0.260000 0.000000 -0.250000
v -0.070000 0.700000 -0.250000
v 0.030000 0.700000 0.000000
v -0.070000 0.700000 0.250000
v -0.040000 0.525000 0.500000
v 0.120000 0.350000 0.500000
v 0.190000 0.175000 0.500000
v 0.190000 0.175000 -0.500000
v 0.120000 0.350000 -0.500000
v -0.040000 0.525000 -0.500000
v 0.160000 0.525000 0.250000
v 0.320000 0.350000 0.250000
v 0.390000 0.175000 0.250000
v 0.260000 0.525000 0.000000
v 0.420000 0.350000 0.000000
v 0.490000 0.175000 0.000000
v 0.160000 0.525000 -0.250000
v 0.320000 0.350000 -0.250000
v 0.390000 0.175000 -0.250000
v 0.498528 0.000000 -0.088714
v -0.501320 0.000000 -0.071262
v 0.498877 0.000000 -0.068717
v -0.500971 0.000000 -0.051265
v -0.254849 -0.000000 -0.275594
v -0.006632 0.000000 -0.379942
v 0.245075 0.000000 -0.284320
v 0.250835 0.700000 0.045629
v -0.000873 0.700000 -0.049992
v -0.249089 0.700000 0.054355
v 0.496259 0.175000 -0.218694
v 0.497481 0.350000 -0.148705
v 0.500273 0.525000 0.011271
v -0.499575 0.525000 0.028723
v -0.502367 0.350000 -0.131252
v -0.503589 0.175000 -0.201242
v 0.242806 0.175000 -0.414301
v 0.244028 0.350000 -0.344311
v 0.246821 0.525000 -0.184336
v -0.008901 0.175000 -0.509922
v -0.007679 0.350000 -0.439933
v -0.004887 0.525000 -0.279957
v -0.257117 0.175000 -0.405575
v -0.255896 0.350000 -0.335585
v -0.253103 0.525000 -0.175610
v 0.245424 0.000000 -0.264323
v -0.006283 0.000000 -0.359945
v -0.254500 0.000000 -0.255597
v -0.248740 0.700000 0.074352
v -0.000524 0.700000 -0.029995
v 0.251184 0.700000 0.065626
v 0.500622 0.525000 0.031268
v 0.497830 0.350000 -0.128708
v 0.496608 0.175000 -0.198697
v -0.503240 0.175000 -0.181245
v -0.502018 0.350000 -0.111256
v -0.499226 0.525000 0.048720
v 0.247170 0.525000 -0.164339
v 0.244377 0.350000 -0.324314
v 0.243156 0.175000 -0.394304
v -0.004538 0.525000 -0.259960
v -0.007330 0.350000 -0.419936
v -0.008552 0.175000 -0.489925
v -0.252754 0.525000 -0.155613
v -0.255547 0.350000 -0.315588
v -0.256768 0.175000 -0.385578
v -0.498528 0.000000 0.088714
v 0.501320 0.000000 0.071262
v -0.498877 0.000000 0.068717
v 0.500971 0.000000 0.051265
v 0.254849 0.000000 0.275594
v 0.006632 0.000000 0.379942
v -0.245075 0.000000 0.284320
v -0.250835 0.700000 -0.045629
v 0.000873 0.700000 0.049992
v 0.249089 0.700000 -0.054355
v -0.496259 0.175000 0.218694
v -0.497481 0.350000 0.148705
v -0.500273 0.525000 -0.011271
v 0.499575 0.525000 -0.028723
v 0.502367 0.350000 0.131253
v 0.503589 0.175000 0.201242
v -0.242806 0.175000 0.414301
v -0.244028 0.350000 0.344311
v -0.246821 0.525000 0.184336
v 0.008901 0.175000 0.509922
v 0.007679 0.350000 0.439933
v 0.004887 0.525000 0.279957
v 0.257117 0.175000 0.405575
v 0.255896 0.350000 0.335585
v 0.253103 0.525000 0.175610
v -0.245424 0.000000 0.264323
v 0.006283 0.000000 0.359945
v 0.254500 0.000000 0.255597
v 0.248740 0.700000 -0.074352
v 0.000524 0.700000 0.029995
v -0.251184 0.700000 -0.065626
v -0.500622 0.525000 -0.031268
v -0.497830 0.350000 0.128708
v -0.496608 0.175000 0.198697
v 0.503240 0.175000 0.181245
v 0.502018 0.350000 0.111256
v 0.499226 0.525000 -0.048720
v -0.247170 0.525000 0.164339
v -0.244377 0.350000 0.324314
v -0.243156 0.175000 0.394304
v 0.004538 0.525000 0.259960
v 0.007330 0.350000 0.419936
v 0.008552 0.175000 0.489925
v 0.252754 0.525000 0.155613
v 0.255547 0.350000 0.315588
v 0.256768 0.175000 0.385578
v 0.100000 0.650000 0.100000
v 0.100000 0.650000 -0.100000
v -0.100000 0.650000 0.100000
v -0.100000 0.650000 -0.100000
vn -0.0000 -0.0000 1.0000
vn -0.0000 -0.0000 -1.0000
vn -0.5885 0.7735 -0.2354
vn -0.5885 0.7735 0.2354
vn -0.7643 -0.5678 0.3057
vn -0.8704 0.3482 0.3482
vn -0.7078 0.6472 0.2831
vn -0.7643 -0.5678 -0.3057
vn -0.8704 0.3482 -0.3482
vn -0.7078 0.6472 -0.2831
vn -0.6755 -0.5018 -0.5404
vn -0.7454 0.2981 -0.5963
vn -0.6355 0.5811 -0.5084
vn -0.6755 -0.5018 0.5404
vn -0.7454 0.2981 0.5963
vn -0.6355 0.5811 0.5084
vn 0.5885 -0.7735 0.2354
vn 0.5885 -0.7735 -0.2354
vn 0.7643 0.5678 -0.3057
vn 0.8704 -0.3482 -0.3482
vn 0.7078 -0.6472 -0.2831
vn 0.7643 0.5678 0.3057
vn 0.8704 -0.3482 0.3482
vn 0.7078 -0.6472 0.2831
vn 0.6755 0.5018 0.5404
vn 0.7454 -0.2981 0.5963
vn 0.6355 -0.5811 0.5084
vn 0.6755 0.5018 -0.5404
vn 0.7454 -0.2981 -0.5963
vn 0.6355 -0.5811 -0.5084
vn -1.0000 -0.0000 -0.0000
vn 1.0000 -0.0000 -0.0000
vn -0.7071 -0.0000 -0.7071
vn 0.7071 -0.0000 0.7071
vn -0.7071 -0.0000 0.7071
vn 0.7071 -0.0000 -0.7071
vn 0.5885 0.7735 0.2354
vn 0.5885 0.7735 -0.2354
vn 0.7643 -0.5678 -0.3057
vn 0.8704 0.3482 -0.3482
vn 0.7078 0.6472 -0.2831
vn 0.7643 -0.5678 0.3057
vn 0.8704 0.3482 0.3482
vn 0.7078 0.6472 0.2831
vn 0.6755 -0.5018 0.5404
vn 0.7454 0.2981 0.5963
vn 0.6355 0.5811 0.5084
vn 0.6755 -0.5018 -0.5404
vn 0.7454 0.2981 -0.5963
vn 0.6355 0.5811 -0.5084
vn -0.5885 -0.7735 -0.2354
vn -0.5885 -0.7735 0.2354
vn -0.7643 0.5678 0.3057
vn -0.8704 -0.3482 0.3482
vn -0.7078 -0.6472 0.2831
vn -0.7643 0.5678 -0.3057
vn -0.8704 -0.3482 -0.3482
vn -0.7078 -0.6472 -0.2831
vn -0.6755 0.5018 -0.5404
vn -0.7454 -0.2981 -0.5963
vn -0.6355 -0.5811 -0.5084
vn -0.6755 0.5018 0.5404
vn -0.7454 -0.2981 0.5963
vn -0.6355 -0.5811 0.5084
vn 0.2251 0.7735 -0.5925
vn -0.2456 0.7735 -0.5843
vn -0.3190 -0.5678 -0.7589
vn -0.3633 0.3482 -0.8642
vn -0.2954 0.6472 -0.7028
vn 0.2923 -0.5678 -0.7695
vn 0.3329 0.3482 -0.8763
vn 0.2707 0.6472 -0.7127
vn 0.5285 -0.5018 -0.6848
vn 0.5832 0.2981 -0.7556
vn 0.4973 0.5811 -0.6443
vn -0.5521 -0.5018 -0.6659
vn -0.6092 0.2981 -0.7348
vn -0.5194 0.5811 -0.6266
vn -0.2251 -0.7735 0.5925
vn 0.2456 -0.7735 0.5843
vn 0.3190 0.5678 0.7589
vn 0.3633 -0.3482 0.8642
vn 0.2954 -0.6472 0.7028
vn -0.2923 0.5678 0.7695
vn -0.3329 -0.3482 0.8763
vn -0.2707 -0.6472 0.7127
vn -0.5285 0.5018 0.6848
vn -0.5832 -0.2981 0.7556
vn -0.4973 -0.5811 0.6443
vn 0.5521 0.5018 0.6659
vn 0.6092 -0.2981 0.7348
vn 0.5194 -0.5811 0.6266
vn -0.2251 0.7735 0.5925
vn 0.2456 0.7735 0.5843
vn 0.3190 -0.5678 0.7589
vn 0.3633 0.3482 0.8642
vn 0.2954 0.6472 0.7028
vn -0.2923 -0.5678 0.7695
vn -0.3329 0.3482 0.8763
vn -0.2707 0.6472 0.7127
vn -0.5285 -0.5018 0.6848
vn -0.5832 0.2981 0.7556
vn -0.4973 0.5811 0.6443
vn 0.5521 -0.5018 0.6659
vn 0.6092 0.2981 0.7348
vn 0.5194 0.5811 0.6266
vn 0.2251 -0.7735 -0.5925
vn -0.2456 -0.7735 -0.5843
vn -0.3190 0.5678 -0.7589
vn -0.3633 -0.3482 -0.8642
vn -0.2954 -0.6472 -0.7028
vn 0.2923 0.5678 -0.7695
vn 0.3329 -0.3482 -0.8763
vn 0.2707 -0.6472 -0.7127
vn 0.5285 0.5018 -0.6848
vn 0.5832 -0.2981 -0.7556
vn 0.4973 -0.5811 -0.6443
vn -0.5521 0.5018 -0.6659
vn -0.6092 -0.2981 -0.7348
vn -0.5194 -0.5811 -0.6266
vn -0.0000 1.0000 -0.0000
vn 0.6355 0.5810 0.5084
vt 0.000000 0.500000
vt 0.500000 0.500000
vt 0.000000 1.000000
vt 0.500000 1.000000
vt 0.000000 0.500000
vt 0.500000 0.500000
vt 0.000000 1.000000
vt 0.500000 1.000000
vt 0.000000 0.500000
vt 0.500000 0.500000
vt 0.000000 1.000000
vt 0.500000 1.000000
vt 0.000000 0.500000
vt 0.500000 0.500000
vt 0.000000 1.000000
vt 0.500000 1.000000
vt 0.500000 0.500000
vt 1.000000 0.500000
vt 0.500000 0.500000
vt 1.000000 0.500000
vt 0.875000 0.500000
vt 0.750000 0.500000
vt 0.625000 0.500000
vt 0.625000 1.000000
vt 0.750000 1.000000
vt 0.875000 1.000000
vt 0.500000 0.625000
vt 0.500000 0.750000
vt 0.500000 0.875000
vt 1.000000 0.875000
vt 1.000000 0.750000
vt 1.000000 0.625000
vt 0.625000 0.625000
vt 0.625000 0.750000
vt 0.625000 0.875000
vt 0.750000 0.625000
vt 0.750000 0.750000
vt 0.750000 0.875000
vt 0.875000 0.625000
vt 0.875000 0.750000
vt 0.875000 0.875000
vt 0.625000 0.500000
vt 0.750000 0.500000
vt 0.875000 0.500000
vt 0.875000 1.000000
vt 0.750000 1.000000
vt 0.625000 1.000000
vt 0.500000 0.875000
vt 0.500000 0.750000
vt 0.500000 0.625000
vt 1.000000 0.625000
vt 1.000000 0.750000
vt 1.000000 0.875000
vt 0.625000 0.875000
vt 0.625000 0.750000
vt 0.625000 0.625000
vt 0.750000 0.875000
vt 0.750000 0.750000
vt 0.750000 0.625000
vt 0.875000 0.875000
vt 0.875000 0.750000
vt 0.875000 0.625000
vt 0.000000 0.500000
vt 0.500000 0.500000
vt 0.000000 1.000000
vt 0.500000 1.000000
vt 0.000000 0.500000
vt 0.500000 0.500000
vt 0.000000 1.000000
vt 0.500000 1.000000
vt 0.000000 0.500000
vt 0.500000 0.500000
vt 0.000000 1.000000
vt 0.500000 1.000000
vt 0.000000 0.500000
vt 0.500000 0.500000
vt 0.000000 1.000000
vt 0.500000 1.000000
vt 0.000000 0.500000
vt 0.500000 0.500000
vt 0.000000 1.000000
vt 0.500000 1.000000
vt 0.000000 0.500000
vt 0.500000 0.500000
vt 0.000000 1.000000
vt 0.500000 1.000000
vt 0.500000 0.500000
vt 1.000000 0.500000
vt 0.500000 0.500000
vt 1.000000 0.500000
vt 0.875000 0.500000
vt 0.750000 0.500000
vt 0.625000 0.500000
vt 0.625000 1.000000
vt 0.750000 1.000000
vt 0.875000 1.000000
vt 0.500000 0.625000
vt 0.500000 0.750000
vt 0.500000 0.875000
vt 1.000000 0.875000
vt 1.000000 0.750000
vt 1.000000 0.625000
vt 0.625000 0.625000
vt 0.625000 0.750000
vt 0.625000 0.875000
vt 0.750000 0.625000
vt 0.750000 0.750000
vt 0.750000 0.875000
vt 0.875000 0.625000
vt 0.875000 0.750000
vt 0.875000 0.875000
vt 0.625000 0.500000
vt 0.750000 0.500000
vt 0.875000 0.500000
vt 0.875000 1.000000
vt 0.750000 1.000000
vt 0.625000 1.000000
vt 0.500000 0.875000
vt 0.500000 0.750000
vt 0.500000 0.625000
vt 1.000000 0.625000
vt 1.000000 0.750000
vt 1.000000 0.875000
vt 0.625000 0.875000
vt 0.625000 0.750000
vt 0.625000 0.625000
vt 0.750000 0.875000
vt 0.750000 0.750000
vt 0.750000 0.625000
vt 0.875000 0.875000
vt 0.875000 0.750000
vt 0.875000 0.625000
vt 0.500000 0.500000
vt 1.000000 0.500000
vt 0.500000 0.500000
vt 1.000000 0.500000
vt 0.875000 0.500000
vt 0.750000 0.500000
vt 0.625000 0.500000
vt 0.625000 1.000000
vt 0.750000 1.000000
vt 0.875000 1.000000
vt 0.500000 0.625000
vt 0.500000 0.750000
vt 0.500000 0.875000
vt 1.000000 0.875000
vt 1.000000 0.750000
vt 1.000000 0.625000
vt 0.625000 0.625000
vt 0.625000 0.750000
vt 0.625000 0.875000
vt 0.750000 0.625000
vt 0.750000 0.750000
vt 0.750000 0.875000
vt 0.875000 0.625000
vt 0.875000 0.750000
vt 0.875000 0.875000
vt 0.625000 0.500000
vt 0.750000 0.500000
vt 0.875000 0.500000
vt 0.875000 1.000000
vt 0.750000 1.000000
vt 0.625000 1.000000
vt 0.500000 0.875000
vt 0.500000 0.750000
vt 0.500000 0.625000
vt 1.000000 0.625000
vt 1.000000 0.750000
vt 1.000000 0.875000
vt 0.625000 0.875000
vt 0.625000 0.750000
vt 0.625000 0.625000
vt 0.750000 0.875000
vt 0.750000 0.750000
vt 0.750000 0.625000
vt 0.875000 0.875000
vt 0.875000 0.750000
vt 0.875000 0.625000
vt 0.500000 0.500000
vt 1.000000 0.500000
vt 0.500000 0.500000
vt 1.000000 0.500000
vt 0.875000 0.500000
vt 0.750000 0.500000
vt 0.625000 0.500000
vt 0.625000 1.000000
vt 0.750000 1.000000
vt 0.875000 1.000000
vt 0.500000 0.625000
vt 0.500000 0.750000
vt 0.500000 0.875000
vt 1.000000 0.875000
vt 1.000000 0.750000
vt 1.000000 0.625000
vt 0.625000 0.625000
vt 0.625000 0.750000
vt 0.625000 0.875000
vt 0.750000 0.625000
vt 0.750000 0.750000
vt 0.750000 0.875000
vt 0.875000 0.625000
vt 0.875000 0.750000
vt 0.875000 0.875000
vt 0.625000 0.500000
vt 0.750000 0.500000
vt 0.875000 0.500000
vt 0.875000 1.000000
vt 0.750000 1.000000
vt 0.625000 1.000000
vt 0.500000 0.875000
vt 0.500000 0.750000
vt 0.500000 0.625000
vt 1.000000 0.625000
vt 1.000000 0.750000
vt 1.000000 0.875000
vt 0.625000 0.875000
vt 0.625000 0.750000
vt 0.625000 0.625000
vt 0.750000 0.875000
vt 0.750000 0.750000
vt 0.750000 0.625000
vt 0.875000 0.875000
vt 0.875000 0.750000
vt 0.875000 0.625000
vt 0.312500 0.812500
vt 0.187500 0.812500
vt 0.312500 0.687500
vt 0.187500 0.687500
s 0
f 2/2/1 3/3/1 1/1/1
f 7/7/2 6/6/2 5/5/2
f 10/10/1 11/11/1 9/9/1
f 15/15/2 14/14/2 13/13/2
f 35/35/3 25/25/3 24/24/3
f 41/41/4 25/25/4 38/38/4
f 22/22/5 39/39/5 36/36/5
f 39/39/6 37/37/6 36/36/6
f 40/40/7 38/38/7 37/37/7
f 22/22/8 33/33/8 23/23/8
f 33/33/9 37/37/9 34/34/9
f 34/34/10 38/38/10 35/35/10
f 23/23/11 27/27/11 17/17/11
f 27/27/12 34/34/12 28/28/12
f 28/28/13 35/35/13 29/29/13
f 21/21/14 32/32/14 39/39/14
f 32/32/15 40/40/15 39/39/15
f 31/31/16 41/41/16 40/40/16
f 54/54/17 46/46/17 57/57/17
f 46/46/18 60/60/18 57/57/18
f 43/43/19 62/62/19 44/44/19
f 58/58/20 62/62/20 59/59/20
f 57/57/21 61/61/21 58/58/21
f 56/56/22 43/43/22 42/42/22
f 56/56/23 58/58/23 59/59/23
f 55/55/24 57/57/24 58/58/24
f 50/50/25 42/42/25 19/19/25
f 50/50/26 55/55/26 56/56/26
f 49/49/27 54/54/27 55/55/27
f 44/44/28 51/51/28 20/20/28
f 61/61/29 51/51/29 62/62/29
f 60/60/30 52/52/30 61/61/30
f 64/64/31 65/65/31 63/63/31
f 69/69/32 68/68/32 67/67/32
f 72/72/33 73/73/33 71/71/33
f 77/77/34 76/76/34 75/75/34
f 80/80/35 81/81/35 79/79/35
f 85/85/36 84/84/36 83/83/36
f 105/105/37 95/95/37 94/94/37
f 111/111/38 95/95/38 108/108/38
f 92/92/39 109/109/39 106/106/39
f 109/109/40 107/107/40 106/106/40
f 110/110/41 108/108/41 107/107/41
f 92/92/42 103/103/42 93/93/42
f 103/103/43 107/107/43 104/104/43
f 104/104/44 108/108/44 105/105/44
f 93/93/45 97/97/45 87/87/45
f 97/97/46 104/104/46 98/98/46
f 98/98/47 105/105/47 99/99/47
f 91/91/48 102/102/48 109/109/48
f 102/102/49 110/110/49 109/109/49
f 101/101/50 111/111/50 110/110/50
f 124/124/51 116/116/51 127/127/51
f 116/116/52 130/130/52 127/127/52
f 113/113/53 132/132/53 114/114/53
f 128/128/54 132/132/54 129/129/54
f 127/127/55 131/131/55 128/128/55
f 126/126/56 113/113/56 112/112/56
f 126/126/57 128/128/57 129/129/57
f 125/125/58 127/127/58 128/128/58
f 120/120/59 112/112/59 89/89/59
f 120/120/60 125/125/60 126/126/60
f 119/119/61 124/124/61 125/125/61
f 114/114/62 121/121/62 90/90/62
f 131/131/63 121/121/63 132/132/63
f 130/130/64 122/122/64 131/131/64
f 151/151/65 141/141/65 140/140/65
f 157/157/66 141/141/66 154/154/66
f 138/138/67 155/155/67 152/152/67
f 155/155/68 153/153/68 152/152/68
f 156/156/69 154/154/69 153/153/69
f 138/138/70 149/149/70 139/139/70
f 149/149/71 153/153/71 150/150/71
f 150/150/72 154/154/72 151/151/72
f 139/139/73 143/143/73 133/133/73
f 143/143/74 150/150/74 144/144/74
f 144/144/75 151/151/75 145/145/75
f 137/137/76 148/148/76 155/155/76
f 148/148/77 156/156/77 155/155/77
f 147/147/78 157/157/78 156/156/78
f 170/170/79 162/162/79 173/173/79
f 162/162/80 176/176/80 173/173/80
f 159/159/81 178/178/81 160/160/81
f 174/174/82 178/178/82 175/175/82
f 173/173/83 177/177/83 174/174/83
f 172/172/84 159/159/84 158/158/84
f 172/172/85 174/174/85 175/175/85
f 171/171/86 173/173/86 174/174/86
f 166/166/87 158/158/87 135/135/87
f 166/166/88 171/171/88 172/172/88
f 165/165/89 170/170/89 171/171/89
f 160/160/90 167/167/90 136/136/90
f 177/177/91 167/167/91 178/178/91
f 176/176/92 168/168/92 177/177/92
f 197/197/93 187/187/93 186/186/93
f 203/203/94 187/187/94 200/200/94
f 184/184/95 201/201/95 198/198/95
f 201/201/96 199/199/96 198/198/96
f 202/202/97 200/200/97 199/199/97
f 184/184/98 195/195/98 185/185/98
f 195/195/99 199/199/99 196/196/99
f 196/196/100 200/200/100 197/197/100
f 185/185/101 189/189/101 179/179/101
f 189/189/102 196/196/102 190/190/102
f 190/190/103 197/197/103 191/191/103
f 183/183/104 194/194/104 201/201/104
f 194/194/105 202/202/105 201/201/105
f 193/193/106 203/203/106 202/202/106
f 216/216/107 208/208/107 219/219/107
f 208/208/108 222/222/108 219/219/108
f 205/205/109 224/224/109 206/206/109
f 220/220/110 224/224/110 221/221/110
f 219/219/111 223/223/111 220/220/111
f 218/218/112 205/205/112 204/204/112
f 218/218/113 220/220/113 221/221/113
f 217/217/114 219/219/114 220/220/114
f 212/212/115 204/204/115 181/181/115
f 212/212/116 217/217/116 218/218/116
f 211/211/117 216/216/117 217/217/117
f 206/206/118 213/213/118 182/182/118
f 223/223/119 213/213/119 224/224/119
f 222/222/120 214/214/120 223/223/120
f 227/227/121 226/226/121 228/228/121
f 2/2/1 4/4/1 3/3/1
f 7/7/2 8/8/2 6/6/2
f 10/10/1 12/12/1 11/11/1
f 15/15/2 16/16/2 14/14/2
f 35/35/3 38/38/3 25/25/3
f 41/41/4 26/26/4 25/25/4
f 22/22/5 21/21/5 39/39/5
f 39/39/6 40/40/6 37/37/6
f 40/40/7 41/41/7 38/38/7
f 22/22/8 36/36/8 33/33/8
f 33/33/9 36/36/9 37/37/9
f 34/34/10 37/37/10 38/38/10
f 23/23/11 33/33/11 27/27/11
f 27/27/12 33/33/12 34/34/12
f 28/28/13 34/34/13 35/35/13
f 21/21/14 18/18/14 32/32/14
f 32/32/15 31/31/15 40/40/15
f 31/31/16 30/30/16 41/41/16
f 54/54/17 47/47/17 46/46/17
f 46/46/18 45/45/18 60/60/18
f 43/43/19 59/59/19 62/62/19
f 58/58/20 61/61/20 62/62/20
f 57/57/21 60/60/21 61/61/21
f 56/56/22 59/59/22 43/43/22
f 56/56/23 55/55/23 58/58/23
f 55/55/24 54/54/24 57/57/24
f 50/50/25 56/56/25 42/42/25
f 50/50/26 49/49/26 55/55/26
f 49/49/27 48/48/27 54/54/27
f 44/44/28 62/62/28 51/51/28
f 61/61/29 52/52/29 51/51/29
f 60/60/30 53/53/30 52/52/30
f 64/64/31 66/66/31 65/65/31
f 69/69/32 70/70/32 68/68/32
f 72/72/33 74/74/33 73/73/33
f 77/77/34 78/78/34 76/76/34
f 80/80/35 82/82/35 81/81/35
f 85/85/36 86/86/36 84/84/36
f 105/105/37 108/108/37 95/95/37
f 111/111/38 96/96/38 95/95/38
f 92/92/39 91/91/39 109/109/39
f 109/109/40 110/110/40 107/107/40
f 110/110/41 111/111/41 108/108/41
f 92/92/42 106/106/42 103/103/42
f 103/103/43 106/106/43 107/107/43
f 104/104/44 107/107/44 108/108/44
f 93/93/45 103/103/45 97/97/45
f 97/97/46 103/103/46 104/104/46
f 98/98/122 104/104/122 105/105/122
f 91/91/48 88/88/48 102/102/48
f 102/102/49 101/101/49 110/110/49
f 101/101/50 100/100/50 111/111/50
f 124/124/51 117/117/51 116/116/51
f 116/116/52 115/115/52 130/130/52
f 113/113/53 129/129/53 132/132/53
f 128/128/54 131/131/54 132/132/54
f 127/127/55 130/130/55 131/131/55
f 126/126/56 129/129/56 113/113/56
f 126/126/57 125/125/57 128/128/57
f 125/125/58 124/124/58 127/127/58
f 120/120/59 126/126/59 112/112/59
f 120/120/60 119/119/60 125/125/60
f 119/119/61 118/118/61 124/124/61
f 114/114/62 132/132/62 121/121/62
f 131/131/63 122/122/63 121/121/63
f 130/130/64 123/123/64 122/122/64
f 151/151/65 154/154/65 141/141/65
f 157/157/66 142/142/66 141/141/66
f 138/138/67 137/137/67 155/155/67
f 155/155/68 156/156/68 153/153/68
f 156/156/69 157/157/69 154/154/69
f 138/138/70 152/152/70 149/149/70
f 149/149/71 152/152/71 153/153/71
f 150/150/72 153/153/72 154/154/72
f 139/139/73 149/149/73 143/143/73
f 143/143/74 149/149/74 150/150/74
f 144/144/75 150/150/75 151/151/75
f 137/137/76 134/134/76 148/148/76
f 148/148/77 147/147/77 156/156/77
f 147/147/78 146/146/78 157/157/78
f 170/170/79 163/163/79 162/162/79
f 162/162/80 161/161/80 176/176/80
f 159/159/81 175/175/81 178/178/81
f 174/174/82 177/177/82 178/178/82
f 173/173/83 176/176/83 177/177/83
f 172/172/84 175/175/84 159/159/84
f 172/172/85 171/171/85 174/174/85
f 171/171/86 170/170/86 173/173/86
f 166/166/87 172/172/87 158/158/87
f 166/166/88 165/165/88 171/171/88
f 165/165/89 164/164/89 170/170/89
f 160/160/90 178/178/90 167/167/90
f 177/177/91 168/168/91 167/167/91
f 176/176/92 169/169/92 168/168/92
f 197/197/93 200/200/93 187/187/93
f 203/203/94 188/188/94 187/187/94
f 184/184/95 183/183/95 201/201/95
f 201/201/96 202/202/96 199/199/96
f 202/202/97 203/203/97 200/200/97
f 184/184/98 198/198/98 195/195/98
f 195/195/99 198/198/99 199/199/99
f 196/196/100 199/199/100 200/200/100
f 185/185/101 195/195/101 189/189/101
f 189/189/102 195/195/102 196/196/102
f 190/190/103 196/196/103 197/197/103
f 183/183/104 180/180/104 194/194/104
f 194/194/105 193/193/105 202/202/105
f 193/193/106 192/192/106 203/203/106
f 216/216/107 209/209/107 208/208/107
f 208/208/108 207/207/108 222/222/108
f 205/205/109 221/221/109 224/224/109
f 220/220/110 223/223/110 224/224/110
f 219/219/111 222/222/111 223/223/111
f 218/218/112 221/221/112 205/205/112
f 218/218/113 217/217/113 220/220/113
f 217/217/114 216/216/114 219/219/114
f 212/212/115 218/218/115 204/204/115
f 212/212/116 211/211/116 217/217/116
f 211/211/117 210/210/117 216/216/117
f 206/206/118 224/224/118 213/213/118
f 223/223/119 214/214/119 213/213/119
f 222/222/120 215/215/120 214/214/120
f 227/227/121 225/225/121 226/226/121
