# Blender 3.1.0
# www.blender.org
o bush1
v 0.350000 -0.000000 0.010000
v -0.350000 -0.000000 0.010000
v 0.350000 1.000000 0.010000
v -0.350000 1.000000 0.010000
v 0.000000 -0.000000 0.010000
v 0.000000 1.000000 0.010000
v 0.350000 -0.000000 -0.010000
v -0.350000 -0.000000 -0.010000
v 0.350000 1.000000 -0.010000
v -0.350000 1.000000 -0.010000
v 0.000000 -0.000000 -0.010000
v 0.000000 1.000000 -0.010000
v -0.010000 -0.000000 0.350000
v -0.010000 0.000000 -0.350000
v -0.010000 1.000000 0.350000
v -0.010000 1.000000 -0.350000
v -0.010000 0.000000 0.000000
v -0.010000 1.000000 -0.000000
v 0.010000 0.000000 0.350000
v 0.010000 0.000000 -0.350000
v 0.010000 1.000000 0.350000
v 0.010000 1.000000 -0.350000
v 0.010000 0.000000 0.000000
v 0.010000 1.000000 -0.000000
v -0.007071 1.000000 0.007071
v -0.007071 -0.000000 0.007071
v 0.240416 1.000000 0.254558
v -0.254558 1.000000 -0.240416
v 0.240416 -0.000000 0.254559
v -0.254558 -0.000000 -0.240416
v 0.007071 1.000000 -0.007071
v 0.007071 0.000000 -0.007071
v 0.254559 1.000000 0.240416
v -0.240416 1.000000 -0.254559
v 0.254558 -0.000000 0.240416
v -0.240416 -0.000000 -0.254558
v 0.254558 -0.000000 -0.240416
v -0.240416 0.000000 0.254558
v 0.254559 1.000000 -0.240416
v -0.240416 1.000000 0.254559
v 0.007071 0.000000 0.007071
v 0.007071 1.000000 0.007071
v 0.240416 -0.000000 -0.254559
v -0.254558 0.000000 0.240416
v 0.240416 1.000000 -0.254558
v -0.254558 1.000000 0.240416
v -0.007071 0.000000 -0.007071
v -0.007071 1.000000 -0.007071
v -0.090000 1.000000 0.350000
v -0.090000 1.000000 -0.350000
v -0.290000 1.000000 -0.000000
v -0.040000 0.115369 0.000000
v -0.040000 0.115369 -0.350000
v -0.040000 0.115369 0.350000
v -0.070000 0.557684 0.350000
v -0.070000 0.557684 -0.350000
v -0.270000 0.557684 -0.000000
v -0.070000 1.000000 0.350000
v -0.070000 1.000000 -0.350000
v -0.270000 1.000000 -0.000000
v -0.020000 0.115369 0.000000
v -0.020000 0.115369 -0.350000
v -0.020000 0.115369 0.350000
v -0.050000 0.557684 0.350000
v -0.050000 0.557684 -0.350000
v -0.250000 0.557684 -0.000000
v -0.240000 1.000000 0.175000
v -0.040000 0.115369 0.175000
v -0.220000 0.557684 0.175000
v -0.240000 1.000000 -0.175000
v -0.040000 0.115369 -0.175000
v -0.220000 0.557684 -0.175000
v -0.220000 1.000000 0.175000
v -0.020000 0.115369 0.175000
v -0.200000 0.557684 0.175000
v -0.220000 1.000000 -0.175000
v -0.020000 0.115369 -0.175000
v -0.200000 0.557684 -0.175000
v 0.090000 1.000000 -0.350000
v 0.090000 1.000000 0.350000
v 0.290000 1.000000 0.000000
v 0.040000 0.115369 -0.000000
v 0.040000 0.115369 0.350000
v 0.040000 0.115369 -0.350000
v 0.070000 0.557684 -0.350000
v 0.070000 0.557684 0.350000
v 0.270000 0.557684 0.000000
v 0.070000 1.000000 -0.350000
v 0.070000 1.000000 0.350000
v 0.270000 1.000000 0.000000
v 0.020000 0.115369 -0.000000
v 0.020000 0.115369 0.350000
v 0.020000 0.115369 -0.350000
v 0.050000 0.557684 -0.350000
v 0.050000 0.557684 0.350000
v 0.250000 0.557684 0.000000
v 0.240000 1.000000 -0.175000
v 0.040000 0.115369 -0.175000
v 0.220000 0.557684 -0.175000
v 0.240000 1.000000 0.175000
v 0.040000 0.115369 0.175000
v 0.220000 0.557684 0.175000
v 0.220000 1.000000 -0.175000
v 0.020000 0.115369 -0.175000
v 0.200000 0.557684 -0.175000
v 0.220000 1.000000 0.175000
v 0.020000 0.115369 0.175000
v 0.200000 0.557684 0.175000
v -0.350000 1.000000 -0.090000
v 0.350000 1.000000 -0.090000
v 0.000000 1.000000 -0.290000
v -0.000000 0.115369 -0.040000
v 0.350000 0.115369 -0.040000
v -0.350000 0.115369 -0.040000
v -0.350000 0.557684 -0.070000
v 0.350000 0.557684 -0.070000
v 0.000000 0.557684 -0.270000
v -0.350000 1.000000 -0.070000
v 0.350000 1.000000 -0.070000
v 0.000000 1.000000 -0.270000
v -0.000000 0.115369 -0.020000
v 0.350000 0.115369 -0.020000
v -0.350000 0.115369 -0.020000
v -0.350000 0.557684 -0.050000
v 0.350000 0.557684 -0.050000
v 0.000000 0.557684 -0.250000
v -0.175000 1.000000 -0.240000
v -0.175000 0.115369 -0.040000
v -0.175000 0.557684 -0.220000
v 0.175000 1.000000 -0.240000
v 0.175000 0.115369 -0.040000
v 0.175000 0.557684 -0.220000
v -0.175000 1.000000 -0.220000
v -0.175000 0.115369 -0.020000
v -0.175000 0.557684 -0.200000
v 0.175000 1.000000 -0.220000
v 0.175000 0.115369 -0.020000
v 0.175000 0.557684 -0.200000
v 0.350000 1.000000 0.090000
v -0.350000 1.000000 0.090000
v -0.000000 1.000000 0.290000
v 0.000000 0.115369 0.040000
v -0.350000 0.115369 0.040000
v 0.350000 0.115369 0.040000
v 0.350000 0.557684 0.070000
v -0.350000 0.557684 0.070000
v -0.000000 0.557684 0.270000
v 0.350000 1.000000 0.070000
v -0.350000 1.000000 0.070000
v -0.000000 1.000000 0.270000
v 0.000000 0.115369 0.020000
v -0.350000 0.115369 0.020000
v 0.350000 0.115369 0.020000
v 0.350000 0.557684 0.050000
v -0.350000 0.557684 0.050000
v -0.000000 0.557684 0.250000
v 0.175000 1.000000 0.240000
v 0.175000 0.115369 0.040000
v 0.175000 0.557684 0.220000
v -0.175000 1.000000 0.240000
v -0.175000 0.115369 0.040000
v -0.175000 0.557684 0.220000
v 0.175000 1.000000 0.220000
v 0.175000 0.115369 0.020000
v 0.175000 0.557684 0.200000
v -0.175000 1.000000 0.220000
v -0.175000 0.115369 0.020000
v -0.175000 0.557684 0.200000
vn -0.0000 -0.0000 1.0000
vn -0.0000 -0.0000 -1.0000
vn -1.0000 -0.0000 -0.0000
vn 1.0000 -0.0000 -0.0000
vn -0.7071 -0.0000 0.7071
vn 0.7071 -0.0000 -0.7071
vn 0.7071 -0.0000 0.7071
vn -0.7071 -0.0000 -0.7071
vn 0.9606 0.0434 -0.2745
vn -0.7588 -0.0343 -0.6504
vn -0.9977 -0.0677 -0.0000
vn 0.9977 0.0677 -0.0000
vn 0.7588 0.0343 0.6504
vn 0.9262 0.3769 -0.0000
vn -0.9262 -0.3769 -0.0000
vn -0.9606 -0.0434 0.2745
vn -0.7588 -0.0343 0.6504
vn -0.9606 -0.0434 -0.2745
vn 0.7588 0.0343 -0.6504
vn 0.9606 0.0434 0.2745
vn -0.9606 0.0434 0.2745
vn 0.7588 -0.0343 0.6504
vn 0.9977 -0.0677 -0.0000
vn -0.9977 0.0677 -0.0000
vn -0.7588 0.0343 -0.6504
vn -0.9262 0.3769 -0.0000
vn 0.9262 -0.3769 -0.0000
vn 0.9606 -0.0434 -0.2745
vn 0.7588 -0.0343 -0.6504
vn 0.9606 -0.0434 0.2745
vn -0.7588 0.0343 0.6504
vn -0.9606 0.0434 -0.2745
vn 0.2745 0.0434 0.9606
vn 0.6504 -0.0343 -0.7588
vn -0.0000 -0.0677 -0.9977
vn -0.0000 0.0677 0.9977
vn -0.6504 0.0343 0.7588
vn -0.0000 0.3769 0.9262
vn -0.0000 -0.3769 -0.9262
vn -0.2745 -0.0434 -0.9606
vn -0.6504 -0.0343 -0.7588
vn 0.2745 -0.0434 -0.9606
vn 0.6504 0.0343 0.7588
vn -0.2745 0.0434 0.9606
vn -0.2745 0.0434 -0.9606
vn -0.6504 -0.0343 0.7588
vn -0.0000 -0.0677 0.9977
vn -0.0000 0.0677 -0.9977
vn 0.6504 0.0343 -0.7588
vn -0.0000 0.3769 -0.9262
vn -0.0000 -0.3769 0.9262
vn 0.2745 -0.0434 0.9606
vn 0.6504 -0.0343 0.7588
vn -0.2745 -0.0434 0.9606
vn -0.6504 0.0343 -0.7588
vn 0.2745 0.0434 -0.9606
vn -0.7254 -0.2952 -0.6218
vn 0.7254 0.2952 -0.6218
vn 0.8600 0.4472 0.2457
vn -0.8600 -0.4472 0.2457
vn -0.7254 -0.2952 0.6218
vn -0.8600 -0.4472 -0.2457
vn 0.8600 0.4472 -0.2457
vn 0.7254 0.2952 0.6218
vn 0.7254 -0.2952 0.6218
vn -0.7254 0.2952 0.6218
vn -0.8600 0.4472 -0.2457
vn 0.8600 -0.4472 -0.2457
vn 0.7254 -0.2952 -0.6218
vn 0.8600 -0.4472 0.2457
vn -0.8600 0.4472 0.2457
vn -0.7254 0.2952 -0.6218
vn 0.6218 -0.2952 -0.7254
vn 0.6218 0.2952 0.7254
vn -0.2457 0.4472 0.8600
vn -0.2457 -0.4472 -0.8600
vn -0.6218 -0.2952 -0.7254
vn 0.2457 -0.4472 -0.8600
vn 0.2457 0.4472 0.8600
vn -0.6218 0.2952 0.7254
vn -0.6218 -0.2952 0.7254
vn -0.6218 0.2952 -0.7254
vn 0.2457 0.4472 -0.8600
vn 0.2457 -0.4472 0.8600
vn 0.6218 -0.2952 0.7254
vn -0.2457 -0.4472 0.8600
vn -0.2457 0.4472 -0.8600
vn 0.6218 0.2952 -0.7254
vt 0.000000 0.500000
vt 0.500000 0.500000
vt 0.000000 1.000000
vt 0.500000 1.000000
vt 0.250000 0.500000
vt 0.250000 1.000000
vt 0.000000 0.500000
vt 0.500000 0.500000
vt 0.000000 1.000000
vt 0.500000 1.000000
vt 0.250000 0.500000
vt 0.250000 1.000000
vt 0.000000 0.500000
vt 0.500000 0.500000
vt 0.000000 1.000000
vt 0.500000 1.000000
vt 0.250000 0.500000
vt 0.250000 1.000000
vt 0.000000 0.500000
vt 0.500000 0.500000
vt 0.000000 1.000000
vt 0.500000 1.000000
vt 0.250000 0.500000
vt 0.250000 1.000000
vt 0.250000 1.000000
vt 0.250000 0.500000
vt 0.500000 1.000000
vt 0.000000 1.000000
vt 0.500000 0.500000
vt 0.000000 0.500000
vt 0.250000 1.000000
vt 0.250000 0.500000
vt 0.500000 1.000000
vt 0.000000 1.000000
vt 0.500000 0.500000
vt 0.000000 0.500000
vt 0.000000 0.500000
vt 0.500000 0.500000
vt 0.000000 1.000000
vt 0.500000 1.000000
vt 0.250000 0.500000
vt 0.250000 1.000000
vt 0.000000 0.500000
vt 0.500000 0.500000
vt 0.000000 1.000000
vt 0.500000 1.000000
vt 0.250000 0.500000
vt 0.250000 1.000000
vt 0.500000 1.000000
vt 1.000000 1.000000
vt 0.750000 1.000000
vt 0.750000 0.557684
vt 1.000000 0.557684
vt 0.500000 0.557684
vt 0.500000 0.778842
vt 1.000000 0.778842
vt 0.750000 0.778842
vt 0.500000 1.000000
vt 1.000000 1.000000
vt 0.750000 1.000000
vt 0.750000 0.557684
vt 1.000000 0.557684
vt 0.500000 0.557684
vt 0.500000 0.778842
vt 1.000000 0.778842
vt 0.750000 0.778842
vt 0.625000 1.000000
vt 0.625000 0.557684
vt 0.625000 0.778842
vt 0.875000 1.000000
vt 0.875000 0.557684
vt 0.875000 0.778842
vt 0.625000 1.000000
vt 0.625000 0.557684
vt 0.625000 0.778842
vt 0.875000 1.000000
vt 0.875000 0.557684
vt 0.875000 0.778842
vt 0.500000 1.000000
vt 1.000000 1.000000
vt 0.750000 1.000000
vt 0.750000 0.557684
vt 1.000000 0.557684
vt 0.500000 0.557684
vt 0.500000 0.778842
vt 1.000000 0.778842
vt 0.750000 0.778842
vt 0.500000 1.000000
vt 1.000000 1.000000
vt 0.750000 1.000000
vt 0.750000 0.557684
vt 1.000000 0.557684
vt 0.500000 0.557684
vt 0.500000 0.778842
vt 1.000000 0.778842
vt 0.750000 0.778842
vt 0.625000 1.000000
vt 0.625000 0.557684
vt 0.625000 0.778842
vt 0.875000 1.000000
vt 0.875000 0.557684
vt 0.875000 0.778842
vt 0.625000 1.000000
vt 0.625000 0.557684
vt 0.625000 0.778842
vt 0.875000 1.000000
vt 0.875000 0.557684
vt 0.875000 0.778842
vt 0.500000 1.000000
vt 1.000000 1.000000
vt 0.750000 1.000000
vt 0.750000 0.557684
vt 1.000000 0.557684
vt 0.500000 0.557684
vt 0.500000 0.778842
vt 1.000000 0.778842
vt 0.750000 0.778842
vt 0.500000 1.000000
vt 1.000000 1.000000
vt 0.750000 1.000000
vt 0.750000 0.557684
vt 1.000000 0.557684
vt 0.500000 0.557684
vt 0.500000 0.778842
vt 1.000000 0.778842
vt 0.750000 0.778842
vt 0.625000 1.000000
vt 0.625000 0.557684
vt 0.625000 0.778842
vt 0.875000 1.000000
vt 0.875000 0.557684
vt 0.875000 0.778842
vt 0.625000 1.000000
vt 0.625000 0.557684
vt 0.625000 0.778842
vt 0.875000 1.000000
vt 0.875000 0.557684
vt 0.875000 0.778842
vt 0.500000 1.000000
vt 1.000000 1.000000
vt 0.750000 1.000000
vt 0.750000 0.557684
vt 1.000000 0.557684
vt 0.500000 0.557684
vt 0.500000 0.778842
vt 1.000000 0.778842
vt 0.750000 0.778842
vt 0.500000 1.000000
vt 1.000000 1.000000
vt 0.750000 1.000000
vt 0.750000 0.557684
vt 1.000000 0.557684
vt 0.500000 0.557684
vt 0.500000 0.778842
vt 1.000000 0.778842
vt 0.750000 0.778842
vt 0.625000 1.000000
vt 0.625000 0.557684
vt 0.625000 0.778842
vt 0.875000 1.000000
vt 0.875000 0.557684
vt 0.875000 0.778842
vt 0.625000 1.000000
vt 0.625000 0.557684
vt 0.625000 0.778842
vt 0.875000 1.000000
vt 0.875000 0.557684
vt 0.875000 0.778842
s 0
f 6/6/1 2/2/1 5/5/1
f 3/3/1 5/5/1 1/1/1
f 8/8/2 12/12/2 11/11/2
f 11/11/2 9/9/2 7/7/2
f 18/18/3 14/14/3 17/17/3
f 15/15/3 17/17/3 13/13/3
f 20/20/4 24/24/4 23/23/4
f 23/23/4 21/21/4 19/19/4
f 29/29/5 25/25/5 26/26/5
f 26/26/5 28/28/5 30/30/5
f 31/31/6 35/35/6 32/32/6
f 36/36/6 31/31/6 32/32/6
f 41/41/7 40/40/7 38/38/7
f 39/39/7 41/41/7 37/37/7
f 44/44/8 48/48/8 47/47/8
f 47/47/8 45/45/8 43/43/8
f 66/66/9 73/73/9 75/75/9
f 72/72/10 50/50/10 56/56/10
f 71/71/11 56/56/11 53/53/11
f 74/74/12 64/64/12 63/63/12
f 78/78/13 59/59/13 76/76/13
f 78/78/14 61/61/14 77/77/14
f 69/69/15 52/52/15 68/68/15
f 67/67/16 57/57/16 69/69/16
f 49/49/17 69/69/17 55/55/17
f 55/55/11 68/68/11 54/54/11
f 52/52/15 72/72/15 71/71/15
f 57/57/18 70/70/18 72/72/18
f 61/61/14 75/75/14 74/74/14
f 75/75/19 58/58/19 64/64/19
f 65/65/12 77/77/12 62/62/12
f 66/66/20 76/76/20 60/60/20
f 96/96/21 103/103/21 105/105/21
f 102/102/22 80/80/22 86/86/22
f 101/101/23 86/86/23 83/83/23
f 104/104/24 94/94/24 93/93/24
f 108/108/25 89/89/25 106/106/25
f 108/108/26 91/91/26 107/107/26
f 99/99/27 82/82/27 98/98/27
f 97/97/28 87/87/28 99/99/28
f 79/79/29 99/99/29 85/85/29
f 85/85/23 98/98/23 84/84/23
f 82/82/27 102/102/27 101/101/27
f 87/87/30 100/100/30 102/102/30
f 91/91/26 105/105/26 104/104/26
f 105/105/31 88/88/31 94/94/31
f 95/95/24 107/107/24 92/92/24
f 96/96/32 106/106/32 90/90/32
f 126/126/33 133/133/33 135/135/33
f 132/132/34 110/110/34 116/116/34
f 131/131/35 116/116/35 113/113/35
f 134/134/36 124/124/36 123/123/36
f 138/138/37 119/119/37 136/136/37
f 138/138/38 121/121/38 137/137/38
f 129/129/39 112/112/39 128/128/39
f 127/127/40 117/117/40 129/129/40
f 109/109/41 129/129/41 115/115/41
f 115/115/35 128/128/35 114/114/35
f 112/112/39 132/132/39 131/131/39
f 117/117/42 130/130/42 132/132/42
f 121/121/38 135/135/38 134/134/38
f 135/135/43 118/118/43 124/124/43
f 125/125/36 137/137/36 122/122/36
f 126/126/44 136/136/44 120/120/44
f 156/156/45 163/163/45 165/165/45
f 162/162/46 140/140/46 146/146/46
f 161/161/47 146/146/47 143/143/47
f 164/164/48 154/154/48 153/153/48
f 168/168/49 149/149/49 166/166/49
f 168/168/50 151/151/50 167/167/50
f 159/159/51 142/142/51 158/158/51
f 157/157/52 147/147/52 159/159/52
f 139/139/53 159/159/53 145/145/53
f 145/145/47 158/158/47 144/144/47
f 142/142/51 162/162/51 161/161/51
f 147/147/54 160/160/54 162/162/54
f 151/151/50 165/165/50 164/164/50
f 165/165/55 148/148/55 154/154/55
f 155/155/48 167/167/48 152/152/48
f 156/156/56 166/166/56 150/150/56
f 6/6/1 4/4/1 2/2/1
f 3/3/1 6/6/1 5/5/1
f 8/8/2 10/10/2 12/12/2
f 11/11/2 12/12/2 9/9/2
f 18/18/3 16/16/3 14/14/3
f 15/15/3 18/18/3 17/17/3
f 20/20/4 22/22/4 24/24/4
f 23/23/4 24/24/4 21/21/4
f 29/29/5 27/27/5 25/25/5
f 26/26/5 25/25/5 28/28/5
f 31/31/6 33/33/6 35/35/6
f 36/36/6 34/34/6 31/31/6
f 41/41/7 42/42/7 40/40/7
f 39/39/7 42/42/7 41/41/7
f 44/44/8 46/46/8 48/48/8
f 47/47/8 48/48/8 45/45/8
f 66/66/9 60/60/9 73/73/9
f 72/72/10 70/70/10 50/50/10
f 71/71/57 72/72/57 56/56/57
f 74/74/58 75/75/58 64/64/58
f 78/78/13 65/65/13 59/59/13
f 78/78/59 66/66/59 61/61/59
f 69/69/60 57/57/60 52/52/60
f 67/67/16 51/51/16 57/57/16
f 49/49/17 67/67/17 69/69/17
f 55/55/61 69/69/61 68/68/61
f 52/52/62 57/57/62 72/72/62
f 57/57/18 51/51/18 70/70/18
f 61/61/63 66/66/63 75/75/63
f 75/75/19 73/73/19 58/58/19
f 65/65/64 78/78/64 77/77/64
f 66/66/20 78/78/20 76/76/20
f 96/96/21 90/90/21 103/103/21
f 102/102/22 100/100/22 80/80/22
f 101/101/65 102/102/65 86/86/65
f 104/104/66 105/105/66 94/94/66
f 108/108/25 95/95/25 89/89/25
f 108/108/67 96/96/67 91/91/67
f 99/99/68 87/87/68 82/82/68
f 97/97/28 81/81/28 87/87/28
f 79/79/29 97/97/29 99/99/29
f 85/85/69 99/99/69 98/98/69
f 82/82/70 87/87/70 102/102/70
f 87/87/30 81/81/30 100/100/30
f 91/91/71 96/96/71 105/105/71
f 105/105/31 103/103/31 88/88/31
f 95/95/72 108/108/72 107/107/72
f 96/96/32 108/108/32 106/106/32
f 126/126/33 120/120/33 133/133/33
f 132/132/34 130/130/34 110/110/34
f 131/131/73 132/132/73 116/116/73
f 134/134/74 135/135/74 124/124/74
f 138/138/37 125/125/37 119/119/37
f 138/138/75 126/126/75 121/121/75
f 129/129/76 117/117/76 112/112/76
f 127/127/40 111/111/40 117/117/40
f 109/109/41 127/127/41 129/129/41
f 115/115/77 129/129/77 128/128/77
f 112/112/78 117/117/78 132/132/78
f 117/117/42 111/111/42 130/130/42
f 121/121/79 126/126/79 135/135/79
f 135/135/43 133/133/43 118/118/43
f 125/125/80 138/138/80 137/137/80
f 126/126/44 138/138/44 136/136/44
f 156/156/45 150/150/45 163/163/45
f 162/162/46 160/160/46 140/140/46
f 161/161/81 162/162/81 146/146/81
f 164/164/82 165/165/82 154/154/82
f 168/168/49 155/155/49 149/149/49
f 168/168/83 156/156/83 151/151/83
f 159/159/84 147/147/84 142/142/84
f 157/157/52 141/141/52 147/147/52
f 139/139/53 157/157/53 159/159/53
f 145/145/85 159/159/85 158/158/85
f 142/142/86 147/147/86 162/162/86
f 147/147/54 141/141/54 160/160/54
f 151/151/87 156/156/87 165/165/87
f 165/165/55 163/163/55 148/148/55
f 155/155/88 168/168/88 167/167/88
f 156/156/56 168/168/56 166/166/56
