# Blender 3.1.0
# www.blender.org
o bush3_winter
v 0.346482 0.000000 0.360624
v -0.360624 1.000000 -0.346482
v -0.346482 0.000000 -0.360625
v 0.360624 0.000000 0.346482
v 0.346482 -0.000000 -0.360624
v 0.346482 1.000000 -0.360625
v 0.360624 0.000000 -0.346482
v -0.346482 1.000000 0.360624
v -0.360624 -0.000000 -0.346482
v 0.346482 1.000000 0.360624
v -0.346482 1.000000 -0.360625
v 0.360624 1.000000 0.346482
v -0.360624 0.000000 0.346482
v -0.360624 1.000000 0.346482
v -0.346482 0.000000 0.360624
v 0.360624 1.000000 -0.346482
v -0.010000 0.000000 0.500000
v -0.010000 1.000000 -0.500000
v -0.010000 1.000000 0.500000
v 0.010000 1.000000 -0.500000
v -0.010000 -0.000000 -0.500000
v 0.010000 1.000000 0.500000
v 0.010000 0.000000 0.500000
v 0.010000 -0.000000 -0.500000
v 0.500000 -0.000000 0.010000
v -0.500000 1.000000 0.010000
v 0.500000 1.000000 0.010000
v -0.500000 1.000000 -0.010000
v 0.500000 1.000000 -0.010000
v 0.500000 0.000000 -0.010000
v -0.500000 -0.000000 0.010000
v -0.500000 0.000000 -0.010000
vn -0.7071 -0.0000 0.7071
vn 0.7071 -0.0000 -0.7071
vn -0.7071 -0.0000 -0.7071
vn 0.7071 -0.0000 0.7071
vn -1.0000 -0.0000 -0.0000
vn 1.0000 -0.0000 -0.0000
vn -0.0000 -0.0000 1.0000
vn -0.0000 -0.0000 -1.0000
vt 0.500000 0.500000
vt 0.000000 1.000000
vt 0.000000 0.500000
vt 0.500000 0.500000
vt 0.000000 0.500000
vt 0.000000 1.000000
vt 0.000000 0.500000
vt 0.500000 1.000000
vt 0.000000 0.500000
vt 0.500000 1.000000
vt 0.000000 1.000000
vt 0.500000 1.000000
vt 0.500000 0.500000
vt 0.500000 1.000000
vt 0.500000 0.500000
vt 0.000000 1.000000
vt 0.500000 0.500000
vt 0.000000 1.000000
vt 0.500000 1.000000
vt 0.000000 1.000000
vt 0.000000 0.500000
vt 0.500000 1.000000
vt 0.500000 0.500000
vt 0.000000 0.500000
vt 0.500000 0.500000
vt 0.000000 1.000000
vt 0.500000 1.000000
vt 0.000000 1.000000
vt 0.500000 1.000000
vt 0.500000 0.500000
vt 0.000000 0.500000
vt 0.000000 0.500000
s 0
f 9/9/1 1/1/1 10/10/1 2/2/1
f 3/3/2 11/11/2 12/12/2 4/4/2
f 5/5/3 13/13/3 14/14/3 6/6/3
f 7/7/4 16/16/4 8/8/4 15/15/4
f 21/21/5 17/17/5 19/19/5 18/18/5
f 24/24/6 20/20/6 22/22/6 23/23/6
f 31/31/7 25/25/7 27/27/7 26/26/7
f 32/32/8 28/28/8 29/29/8 30/30/8
