# Blender 3.1.0
# www.blender.org
o tree06_top
v 0.020000 1.000000 -1.580000
v 0.020000 1.000000 1.580000
v 0.020000 4.000000 1.580000
v -0.020000 1.000000 -1.580000
v -0.020000 1.000000 1.580000
v -0.020000 4.000000 -1.580000
v -0.020000 4.000000 1.580000
v 0.020000 4.000000 -1.580000
v 1.580000 1.000000 0.020000
v -1.580000 1.000000 0.020000
v -1.580000 4.000000 0.020000
v 1.580000 1.000000 -0.020000
v -1.580000 1.000000 -0.020000
v 1.580000 4.000000 -0.020000
v -1.580000 4.000000 -0.020000
v 1.580000 4.000000 0.020000
v 1.131371 1.000000 -1.103087
v -1.103087 1.000000 1.131371
v -1.103087 4.000000 1.131371
v 1.103087 1.000000 -1.131371
v -1.131371 1.000000 1.103087
v 1.103087 4.000000 -1.131371
v -1.131371 4.000000 1.103087
v 1.131371 4.000000 -1.103086
v 1.103086 1.000000 1.131371
v -1.131371 1.000000 -1.103087
v -1.131371 4.000000 -1.103087
v 1.131371 1.000000 1.103087
v -1.103087 1.000000 -1.131371
v 1.131371 4.000000 1.103087
v -1.103087 4.000000 -1.131371
v 1.103087 4.000000 1.131371
vn 1.0000 -0.0000 -0.0000
vn -1.0000 -0.0000 -0.0000
vn -0.0000 -0.0000 1.0000
vn -0.0000 -0.0000 -1.0000
vn 0.7071 -0.0000 0.7071
vn -0.7071 -0.0000 -0.7071
vn -0.7071 -0.0000 0.7071
vn 0.7071 -0.0000 -0.7071
vt 0.976562 0.214844
vt 0.207031 0.214844
vt 0.207031 0.988281
vt 0.976562 0.214844
vt 0.207031 0.214844
vt 0.976562 0.988281
vt 0.207031 0.988281
vt 0.976562 0.988281
vt 0.976562 0.214844
vt 0.207031 0.214844
vt 0.207031 0.988281
vt 0.976562 0.214844
vt 0.207031 0.214844
vt 0.976562 0.988281
vt 0.207031 0.988281
vt 0.976562 0.988281
vt 0.976562 0.214844
vt 0.207031 0.214844
vt 0.207031 0.988281
vt 0.976562 0.214844
vt 0.207031 0.214844
vt 0.976562 0.988281
vt 0.207031 0.988281
vt 0.976562 0.988281
vt 0.976562 0.214844
vt 0.207031 0.214844
vt 0.207031 0.988281
vt 0.976562 0.214844
vt 0.207031 0.214844
vt 0.976562 0.988281
vt 0.207031 0.988281
vt 0.976562 0.988281
s 0
f 8/8/1 2/2/1 1/1/1
f 5/5/2 6/6/2 4/4/2
f 16/16/3 10/10/3 9/9/3
f 13/13/4 14/14/4 12/12/4
f 24/24/5 18/18/5 17/17/5
f 21/21/6 22/22/6 20/20/6
f 32/32/7 26/26/7 25/25/7
f 29/29/8 30/30/8 28/28/8
f 8/8/1 3/3/1 2/2/1
f 5/5/2 7/7/2 6/6/2
f 16/16/3 11/11/3 10/10/3
f 13/13/4 15/15/4 14/14/4
f 24/24/5 19/19/5 18/18/5
f 21/21/6 23/23/6 22/22/6
f 32/32/7 27/27/7 26/26/7
f 29/29/8 31/31/8 30/30/8
o tree06
v -0.000000 -0.100000 -0.147000
v -0.127306 -0.100000 -0.073500
v -0.127306 -0.100000 0.073500
v 0.000000 -0.100000 0.147000
v 0.127306 -0.100000 0.073500
v 0.127306 -0.100000 -0.073500
v -0.053621 3.002872 -0.030958
v 0.000000 3.002872 -0.061916
v 0.000000 3.002872 0.061916
v -0.053621 3.002872 0.030958
v 0.053621 3.002872 -0.030958
v 0.053621 3.002872 0.030958
v 0.076383 1.022871 0.044100
v 0.076383 1.022871 -0.044100
v -0.076383 1.022871 0.044100
v 0.000000 1.022871 0.088200
v 0.000000 1.022871 -0.088200
v -0.076383 1.022871 -0.044100
v 0.000000 3.062871 0.000000
v 0.000000 0.098154 0.136624
v 0.118319 0.098154 0.068312
v 0.118319 0.098154 -0.068312
v -0.000000 0.098154 -0.136624
v -0.118319 0.098154 -0.068312
v -0.118319 0.098154 0.068312
v -0.339606 -0.087364 0.054325
v -0.339606 -0.087364 -0.054325
v 0.216850 -0.087364 0.266944
v 0.122756 -0.087364 0.321270
v 0.122756 -0.087364 -0.321270
v 0.216850 -0.087364 -0.266944
v 0.210208 0.059095 0.263110
v 0.210208 0.059095 -0.263110
v 0.122756 0.059095 -0.313600
v -0.332964 0.059095 0.050490
v 0.122756 0.059095 0.313600
v -0.332964 0.059095 -0.050490
v -0.681153 -0.132430 0.026075
v -0.681153 -0.132430 -0.026075
v 0.363158 -0.132430 0.576858
v 0.317995 -0.132430 0.602933
v 0.317995 -0.132430 -0.602933
v 0.363158 -0.132430 -0.576858
v 0.359970 -0.062133 0.575018
v 0.359970 -0.062133 -0.575018
v 0.317995 -0.062133 -0.599252
v -0.677965 -0.062133 0.024234
v 0.317995 -0.062133 0.599252
v -0.677965 -0.062133 -0.024234
vn -0.4995 0.0453 -0.8651
vn 0.4995 0.0453 -0.8651
vn 0.4995 0.0453 0.8651
vn -0.9990 0.0453 -0.0000
vn 0.9999 0.0115 -0.0000
vn -0.5000 0.0115 -0.8660
vn 0.5000 0.0115 0.8660
vn -0.5000 0.0115 0.8660
vn -0.4995 0.0453 0.8651
vn 0.9990 0.0453 -0.0000
vn -0.9999 0.0115 -0.0000
vn 0.5000 0.0115 -0.8660
vn 0.7456 0.6664 -0.0000
vn 0.3728 0.6664 -0.6457
vn -0.7456 0.6664 -0.0000
vn 0.3728 0.6664 0.6457
vn -0.3728 0.6664 0.6457
vn -0.3728 0.6664 -0.6457
vn -0.0000 -1.0000 -0.0000
vn 0.0895 0.9838 -0.1550
vn -0.8182 0.0301 -0.5742
vn 0.0297 -0.9982 -0.0515
vn -0.0654 -0.9914 -0.1133
vn 0.1658 0.9435 -0.2871
vn 0.9056 0.0300 0.4231
vn -0.8182 0.0301 0.5742
vn -0.0881 0.0301 -0.9957
vn 0.9063 0.0301 -0.4215
vn 0.0297 -0.9982 0.0515
vn -0.1790 0.9838 -0.0000
vn -0.0881 0.0301 0.9957
vn 0.9063 0.0301 0.4215
vn 0.0895 0.9838 0.1550
vn -0.0594 -0.9982 -0.0000
vn -0.0863 0.0300 -0.9958
vn -0.8192 0.0300 -0.5727
vn -0.0654 -0.9914 0.1133
vn -0.3315 0.9435 -0.0000
vn -0.0863 0.0300 0.9958
vn 0.9056 0.0300 -0.4231
vn 0.1658 0.9435 0.2871
vn 0.1308 -0.9914 -0.0000
vn -0.8192 0.0300 0.5727
vt 0.285156 0.070312
vt 0.339844 0.152344
vt 0.742188 0.042969
vt 0.644531 0.015625
vt 0.292969 0.027344
vt 0.343750 0.187500
vt 0.628906 0.031250
vt 0.257812 0.003906
vt 0.437500 0.152344
vt 0.691406 0.015625
vt 0.218750 0.019531
vt 0.441406 0.187500
vt 0.515625 0.183594
vt 0.390625 0.152344
vt 0.210938 0.062500
vt 0.742188 0.085938
vt 0.246094 0.089844
vt 0.390625 0.187500
vt 0.527344 0.046875
vt 0.027753 0.947602
vt 0.099891 0.999465
vt 0.079398 1.000026
vt 0.016743 0.966672
vt 0.140006 1.000026
vt 0.078446 1.000026
vt 0.060783 0.966672
vt 0.140958 1.000026
vt 0.049773 0.947602
vt 0.120392 0.999465
vt 0.027753 0.985742
vt 0.119439 0.999465
vt 0.049773 0.985742
vt 0.098939 0.999465
vt 0.090814 0.407320
vt 0.127509 0.407310
vt 0.128463 0.407310
vt 0.054189 0.408786
vt 0.165110 0.408766
vt 0.055143 0.408786
vt 0.164156 0.408766
vt 0.091768 0.407320
vt 0.038763 0.966672
vt 0.027990 0.075424
vt 0.570312 0.195312
vt 0.191353 0.075461
vt 0.394531 0.191406
vt 0.933594 0.132812
vt 0.933594 0.089844
vt 0.082232 0.072680
vt 0.343750 0.156250
vt 0.476562 0.027344
vt 0.136354 0.072702
vt 0.343750 0.191406
vt 0.937500 0.046875
vt 0.028945 0.075424
vt 0.190398 0.075461
vt 0.937500 0.003906
vt 0.292969 0.156250
vt 0.574219 0.027344
vt 0.083187 0.072680
vt 0.296875 0.191406
vt 0.734375 0.144531
vt 0.734375 0.183594
vt 0.137309 0.072702
vt 0.390625 0.156250
vt 0.437500 0.101562
vt 0.683594 0.078125
vt 0.625000 0.093750
vt 0.652344 0.078125
vt 0.148438 0.042969
vt 0.386719 0.101562
vt 0.156250 0.011719
vt 0.535156 0.121094
vt 0.335938 0.101562
vt 0.804688 0.046875
vt 0.804688 0.082031
vt 0.507812 0.097656
vt 0.347656 0.105469
vt 0.867188 0.097656
vt 0.871094 0.039062
vt 0.468750 0.085938
vt 0.871094 0.011719
vt 0.300781 0.105469
vt 0.800781 0.179688
vt 0.398438 0.105469
vt 0.570312 0.136719
vt 0.867188 0.125000
vt 0.582031 0.089844
vt 0.800781 0.148438
vt 0.441406 0.019531
vt 0.933594 0.171875
vt 0.675781 0.183594
vt 0.933594 0.156250
vt 0.660156 0.183594
vt 0.628906 0.183594
vt 0.390625 0.019531
vt 0.046875 0.023438
vt 0.734375 0.105469
vt 0.050781 0.007812
vt 0.734375 0.121094
vt 0.539062 0.031250
vt 0.343750 0.019531
vt 0.742188 0.019531
vt 0.906250 0.058594
vt 0.742188 0.035156
vt 0.492188 0.191406
vt 0.906250 0.074219
vt 0.757812 0.105469
vt 0.375000 0.019531
vt 0.472656 0.187500
vt 0.761719 0.031250
vt 0.761719 0.019531
vt 0.328125 0.019531
vt 0.910156 0.171875
vt 0.425781 0.019531
vt 0.757812 0.117188
vt 0.558594 0.039062
vt 0.609375 0.183594
vt 0.910156 0.156250
s 0
f 55/87/9 50/73/9 49/71/9
f 55/88/10 46/67/10 54/84/10
f 53/81/11 48/69/11 52/75/11
f 57/96/12 50/73/12 56/92/12
f 46/67/13 44/65/13 45/66/13
f 49/71/14 39/53/14 40/54/14
f 48/69/15 44/65/15 41/57/15
f 48/70/16 42/61/16 47/68/16
f 52/77/17 47/68/17 57/96/17
f 54/84/18 45/66/18 53/81/18
f 47/68/19 39/53/19 50/73/19
f 49/72/20 43/63/20 46/67/20
f 44/64/21 43/62/21 51/74/21
f 43/62/22 40/55/22 51/74/22
f 39/52/23 42/60/23 51/74/23
f 41/58/24 44/64/24 51/74/24
f 42/60/25 41/58/25 51/74/25
f 40/55/26 39/52/26 51/74/26
f 36/43/27 35/40/27 33/33/27
f 38/50/18 53/82/18 37/46/18
f 36/44/17 57/97/17 35/41/17
f 55/89/28 65/112/28 66/114/28
f 33/34/29 66/115/29 62/106/29
f 33/35/30 63/108/30 38/48/30
f 34/38/9 55/90/9 33/34/9
f 61/104/31 72/129/31 73/131/31
f 65/112/32 78/144/32 66/114/32
f 63/109/33 77/142/33 65/113/33
f 36/45/34 68/118/34 52/76/34
f 34/39/35 69/120/35 56/91/35
f 37/46/36 64/110/36 60/103/36
f 37/47/37 61/104/37 36/43/37
f 56/94/38 67/116/38 57/95/38
f 35/41/39 67/117/39 58/98/39
f 38/51/40 65/113/40 54/83/40
f 52/79/41 64/111/41 53/80/41
f 35/42/42 59/101/42 34/36/42
f 70/123/12 81/151/12 71/125/12
f 73/132/11 76/140/11 80/148/11
f 74/135/10 77/143/10 75/137/10
f 59/100/43 81/150/43 69/120/43
f 62/106/44 78/145/44 74/134/44
f 62/107/45 75/139/45 63/108/45
f 69/121/46 79/146/46 67/116/46
f 58/98/47 79/147/47 70/122/47
f 60/103/48 76/141/48 72/128/48
f 64/111/49 80/148/49 76/140/49
f 59/101/50 70/124/50 71/126/50
f 61/105/51 80/149/51 68/118/51
f 55/87/9 56/92/9 50/73/9
f 55/88/10 49/72/10 46/67/10
f 53/81/11 45/66/11 48/69/11
f 57/96/12 47/68/12 50/73/12
f 46/67/13 43/63/13 44/65/13
f 49/71/14 50/73/14 39/53/14
f 48/69/15 45/66/15 44/65/15
f 48/70/16 41/59/16 42/61/16
f 52/77/17 48/70/17 47/68/17
f 54/84/18 46/67/18 45/66/18
f 47/68/19 42/61/19 39/53/19
f 49/72/20 40/56/20 43/63/20
f 35/40/27 34/37/27 33/33/27
f 33/33/27 38/49/27 37/47/27
f 37/47/27 36/43/27 33/33/27
f 38/50/18 54/85/18 53/82/18
f 36/44/17 52/78/17 57/97/17
f 55/89/28 54/86/28 65/112/28
f 33/34/29 55/90/29 66/115/29
f 33/35/30 62/107/30 63/108/30
f 34/38/9 56/93/9 55/90/9
f 61/104/31 60/102/31 72/129/31
f 65/112/32 77/143/32 78/144/32
f 63/109/33 75/138/33 77/142/33
f 36/45/34 61/105/34 68/118/34
f 34/39/35 59/100/35 69/120/35
f 37/46/36 53/82/36 64/110/36
f 37/47/37 60/102/37 61/104/37
f 56/94/38 69/121/38 67/116/38
f 35/41/39 57/97/39 67/117/39
f 38/51/40 63/109/40 65/113/40
f 52/79/41 68/119/41 64/111/41
f 35/42/42 58/99/42 59/101/42
f 70/123/12 79/146/12 81/151/12
f 73/132/11 72/130/11 76/140/11
f 74/135/10 78/144/10 77/143/10
f 59/100/43 71/127/43 81/150/43
f 62/106/44 66/115/44 78/145/44
f 62/107/45 74/136/45 75/139/45
f 69/121/46 81/151/46 79/146/46
f 58/98/47 67/117/47 79/147/47
f 60/103/48 64/110/48 76/141/48
f 64/111/49 68/119/49 80/148/49
f 59/101/50 58/99/50 70/124/50
f 61/105/51 73/133/51 80/149/51
